<?xml version="1.0" encoding="utf-8"?>
<!-- Generator: Adobe Illustrator 24.3.0, SVG Export Plug-In . SVG Version: 6.00 Build 0)  -->
<svg version="1.1" id="Layer_1" xmlns="http://www.w3.org/2000/svg" xmlns:xlink="http://www.w3.org/1999/xlink" x="0px" y="0px"
	 viewBox="0 0 100 100" style="enable-background:new 0 0 100 100;" xml:space="preserve">
<style type="text/css">
	.st0{fill:#8A252C;}
	.st1{clip-path:url(#SVGID_2_);}
	.st2{fill:#E397C1;}
	.st3{fill:#435BD8;}
	.st4{clip-path:url(#SVGID_4_);}
	.st5{fill:#F9DA4A;}
	.st6{clip-path:url(#SVGID_6_);}
	.st7{fill:#4B8522;}
	.st8{fill:#B5E61D;}
</style>
<path class="st0" d="M56.29,85.24c-0.38,0.38-0.8,0.72-1.24,1.02c-0.45,0.3-0.92,0.56-1.41,0.78c-0.49,0.22-1,0.39-1.53,0.51
	c-0.53,0.12-1.06,0.2-1.59,0.22c-0.54,0.02-1.07-0.01-1.6-0.08c-0.53-0.08-1.05-0.2-1.56-0.38c-0.51-0.17-1-0.39-1.47-0.65
	c-0.47-0.27-0.91-0.57-1.32-0.92C33.62,76.61,12.41,58.15,9.5,50.13c-3.72-10.26-2.14-21.95,6.29-29.6
	c10.09-9.17,24.12-9.03,34.18-1.8l-0.01,0.02c10.06-7.25,24.11-7.4,34.21,1.78c2.26,2.05,3.93,4.44,5.32,6.91
	c5.62,9.93,2.23,21.85-3.81,28.6L56.29,85.24z"/>
<g>
	<defs>
		<rect id="SVGID_1_" x="6.99" y="12" width="86.67" height="76.76"/>
	</defs>
	<clipPath id="SVGID_2_">
		<use xlink:href="#SVGID_1_"  style="overflow:visible;"/>
	</clipPath>
	<g class="st1">
		<path d="M50.15,88.08c-2.18-0.01-4.11-0.7-5.78-2.11C16.68,62.84,10.45,53.65,9.22,50.24C7.31,44.96,6.81,39.45,7.8,34.3
			c0.5-2.69,1.42-5.23,2.75-7.62c1.33-2.4,3.02-4.51,5.04-6.35c4.89-4.45,10.86-6.91,17.29-7.12c3.06-0.09,6.05,0.31,8.97,1.2
			c2.93,0.89,5.64,2.21,8.12,3.98c2.49-1.77,5.19-3.1,8.11-3.98s5.91-1.29,8.96-1.2c6.43,0.22,12.42,2.68,17.31,7.13
			c2.01,1.83,3.72,4.05,5.39,6.98c2.63,4.66,3.49,10.08,2.5,15.7c-0.87,4.89-3.19,9.71-6.35,13.26l-0.01,0.01l-29.4,29.19
			c-0.84,0.84-1.81,1.49-2.91,1.94C52.48,87.85,51.34,88.08,50.15,88.08z M33.79,13.77c-0.3,0-0.59,0-0.89,0.02
			c-6.29,0.21-12.14,2.63-16.92,6.97C8.18,27.84,5.8,39.06,9.78,50.03c2.95,8.12,25.44,27.52,34.97,35.48
			c0.4,0.33,0.82,0.63,1.28,0.89c0.45,0.26,0.93,0.47,1.42,0.64c0.49,0.17,0.99,0.29,1.51,0.36c0.52,0.07,1.03,0.1,1.55,0.08
			c0.52-0.03,1.03-0.09,1.54-0.21c0.51-0.11,0.99-0.28,1.47-0.49c0.47-0.21,0.93-0.46,1.36-0.76c0.43-0.3,0.83-0.62,1.19-0.99
			l29.4-29.18c3.09-3.46,5.35-8.18,6.21-12.96c0.97-5.47,0.13-10.77-2.43-15.3c-1.63-2.88-3.31-5.05-5.27-6.84
			c-4.79-4.35-10.64-6.76-16.93-6.97c-3.03-0.08-5.99,0.32-8.89,1.21c-2.9,0.89-5.57,2.23-8.03,4.01c-0.14,0.1-0.26,0.09-0.38-0.03
			c-0.02-0.02-0.03-0.04-0.04-0.06c-2.32-1.66-4.84-2.93-7.56-3.81C39.44,14.22,36.65,13.78,33.79,13.77z"/>
	</g>
</g>
<path class="st2" d="M80.18,24.76c-0.5-0.51-1.03-0.98-1.57-1.43c-0.55-0.45-1.12-0.87-1.71-1.27c-0.59-0.4-1.2-0.76-1.82-1.09
	c-0.62-0.33-1.27-0.64-1.92-0.91c-0.66-0.27-1.33-0.51-2.01-0.71c-0.68-0.21-1.37-0.38-2.06-0.52c-0.7-0.14-1.4-0.24-2.11-0.31
	c-0.7-0.07-1.41-0.1-2.12-0.1c-0.71,0-1.42,0.03-2.12,0.1c-0.7,0.07-1.41,0.17-2.1,0.31c-0.7,0.14-1.39,0.31-2.06,0.52
	c-0.68,0.2-1.35,0.44-2.01,0.71c-0.66,0.28-1.3,0.58-1.92,0.91c-0.62,0.33-1.23,0.7-1.83,1.09c-0.59,0.4-1.16,0.82-1.71,1.27
	c-0.55,0.45-1.07,0.93-1.58,1.43l-0.01,0.01l-0.03-0.03c-0.51-0.5-1.03-0.97-1.58-1.42c-0.55-0.45-1.12-0.86-1.71-1.26
	c-0.59-0.39-1.2-0.75-1.82-1.08c-0.62-0.33-1.27-0.63-1.92-0.9c-0.65-0.27-1.32-0.51-1.99-0.71c-0.68-0.2-1.36-0.37-2.06-0.51
	c-0.69-0.14-1.39-0.24-2.1-0.31c-0.7-0.07-1.41-0.1-2.11-0.09c-0.71,0-1.42,0.04-2.12,0.11c-0.7,0.07-1.4,0.17-2.1,0.31
	c-0.69,0.14-1.38,0.31-2.05,0.52c-0.68,0.21-1.34,0.45-2,0.72c-0.65,0.27-1.29,0.57-1.91,0.91c-0.63,0.33-1.23,0.7-1.82,1.09
	c-0.59,0.39-1.16,0.81-1.7,1.27c-0.55,0.45-1.07,0.92-1.57,1.42s-0.97,1.03-1.42,1.57c-0.45,0.55-0.88,1.11-1.27,1.7
	c-0.4,0.59-0.76,1.19-1.09,1.82c-0.33,0.62-0.64,1.26-0.91,1.92c-0.27,0.65-0.51,1.32-0.72,1.99c-0.21,0.68-0.38,1.36-0.52,2.05
	c-0.14,0.7-0.24,1.4-0.31,2.1c-0.07,0.7-0.11,1.41-0.11,2.12c-0.01,0.71,0.03,1.41,0.1,2.11c0.06,0.71,0.17,1.41,0.3,2.1
	c0.14,0.7,0.31,1.38,0.51,2.06c0.2,0.68,0.44,1.34,0.71,2c0.27,0.65,0.57,1.29,0.9,1.92c0.33,0.62,0.69,1.23,1.08,1.83
	c0.39,0.59,0.81,1.16,1.26,1.71c0.45,0.55,0.92,1.07,1.42,1.58l0.57,0.57l0.76,0.49c-0.07,0.77,0.07,1.51,0.41,2.2
	c0.34,0.7,0.84,1.26,1.49,1.68c0.66,0.42,1.37,0.64,2.15,0.66c0.78,0.02,1.5-0.16,2.17-0.55l0.25,0.17
	c-0.26,0.44-0.43,0.91-0.52,1.41c-0.09,0.5-0.08,1,0.01,1.5c0.09,0.49,0.28,0.96,0.54,1.4c0.27,0.43,0.6,0.81,1,1.12
	c0.4,0.31,0.84,0.54,1.33,0.69c0.48,0.15,0.98,0.21,1.49,0.18c0.51-0.04,0.99-0.16,1.45-0.36s0.87-0.49,1.23-0.85l0.53-0.53
	l-0.53,0.53c-0.39,0.39-0.69,0.84-0.9,1.35c-0.21,0.51-0.32,1.04-0.32,1.59c0,0.55,0.1,1.08,0.32,1.6c0.21,0.51,0.51,0.96,0.9,1.35
	s0.84,0.69,1.35,0.91c0.51,0.21,1.04,0.32,1.59,0.32s1.08-0.1,1.59-0.32c0.51-0.21,0.96-0.51,1.35-0.9c-0.43,0.38-0.76,0.83-1,1.35
	c-0.24,0.52-0.37,1.07-0.39,1.64s0.08,1.12,0.3,1.66s0.52,1,0.93,1.4c0.4,0.41,0.87,0.71,1.4,0.93c0.53,0.21,1.08,0.31,1.66,0.29
	s1.12-0.14,1.64-0.38c0.52-0.24,0.97-0.58,1.35-1l2.6-2.6c0.16-0.16,0.31-0.34,0.44-0.53l0.48,0.31L52,78.21
	c0.39,0.39,0.84,0.69,1.35,0.9c0.51,0.21,1.04,0.32,1.59,0.32c0.55,0,1.08-0.1,1.59-0.32c0.51-0.21,0.96-0.51,1.35-0.9
	s0.69-0.84,0.9-1.35c0.21-0.51,0.32-1.04,0.32-1.59c0-0.55-0.1-1.08-0.32-1.59c-0.21-0.51-0.51-0.96-0.9-1.35l-6.27-6.27L51.68,66
	l6.27,6.27c0.39,0.39,0.84,0.69,1.35,0.91c0.51,0.21,1.04,0.32,1.59,0.32c0.55,0,1.08-0.11,1.59-0.32c0.51-0.21,0.96-0.52,1.35-0.91
	s0.69-0.84,0.9-1.35c0.21-0.51,0.32-1.05,0.32-1.6s-0.1-1.08-0.32-1.59c-0.21-0.51-0.51-0.96-0.9-1.35l-6.27-6.27l6.27,6.27
	c0.4,0.36,0.84,0.63,1.35,0.82c0.5,0.18,1.02,0.27,1.55,0.26c0.53-0.02,1.05-0.13,1.54-0.34c0.49-0.21,0.93-0.51,1.3-0.89
	c0.38-0.38,0.67-0.81,0.88-1.31c0.21-0.49,0.32-1,0.33-1.54c0.02-0.54-0.07-1.05-0.26-1.55c-0.19-0.5-0.46-0.95-0.82-1.34
	c0.32,0.32,0.68,0.58,1.08,0.78c0.4,0.2,0.83,0.33,1.27,0.4c0.45,0.06,0.89,0.06,1.33-0.03c0.44-0.08,0.86-0.23,1.26-0.44
	c0.4-0.21,0.74-0.49,1.05-0.82s0.55-0.7,0.74-1.11c0.19-0.41,0.3-0.84,0.35-1.29c0.05-0.44,0.02-0.89-0.07-1.33l0.52,1.7l2.92-2.92
	c0.51-0.51,0.98-1.03,1.43-1.58c0.45-0.55,0.87-1.12,1.27-1.71c0.4-0.59,0.76-1.2,1.09-1.82c0.34-0.63,0.64-1.27,0.91-1.93
	s0.51-1.32,0.72-2c0.2-0.68,0.38-1.37,0.52-2.07c0.14-0.69,0.24-1.4,0.31-2.1c0.07-0.71,0.1-1.42,0.1-2.12s-0.03-1.42-0.1-2.12
	c-0.07-0.71-0.17-1.41-0.31-2.1c-0.14-0.7-0.31-1.39-0.52-2.07c-0.2-0.68-0.44-1.34-0.71-2c-0.27-0.66-0.58-1.3-0.91-1.93
	c-0.33-0.62-0.7-1.23-1.09-1.82c-0.4-0.59-0.82-1.16-1.27-1.71C81.16,25.78,80.68,25.26,80.18,24.76z"/>
<path d="M54.94,79.74c-1.23,0-2.29-0.44-3.17-1.31l-3.54-3.53L19.2,56.24c-0.02-0.01-0.03-0.03-0.05-0.04l-0.57-0.57
	c-0.51-0.51-0.99-1.04-1.45-1.6c-0.45-0.56-0.89-1.14-1.28-1.73c-0.4-0.6-0.77-1.21-1.11-1.85c-0.34-0.64-0.65-1.29-0.92-1.95
	c-0.28-0.67-0.52-1.34-0.72-2.03c-0.21-0.69-0.39-1.39-0.53-2.09c-0.14-0.71-0.24-1.42-0.32-2.14c-0.07-0.72-0.1-1.44-0.1-2.16
	c0-0.72,0.04-1.44,0.1-2.16c0.07-0.72,0.18-1.43,0.32-2.14c0.14-0.71,0.31-1.41,0.53-2.09c0.21-0.69,0.45-1.37,0.72-2.04
	c0.28-0.66,0.58-1.31,0.92-1.95c0.34-0.64,0.71-1.26,1.11-1.85c0.4-0.6,0.83-1.18,1.28-1.73c0.46-0.56,0.94-1.09,1.45-1.6
	c0.51-0.51,1.04-0.99,1.6-1.45c0.56-0.46,1.14-0.89,1.73-1.29c0.6-0.4,1.21-0.77,1.85-1.11c0.64-0.34,1.29-0.65,1.95-0.92
	c0.67-0.28,1.34-0.52,2.03-0.73c0.69-0.21,1.39-0.39,2.09-0.53c0.71-0.14,1.42-0.24,2.14-0.32c0.72-0.07,1.44-0.1,2.16-0.1
	c0.72,0,1.44,0.04,2.16,0.1c0.72,0.07,1.43,0.18,2.14,0.32c0.71,0.14,1.41,0.32,2.09,0.53c0.69,0.21,1.37,0.45,2.04,0.73
	c0.66,0.27,1.31,0.58,1.95,0.92c0.64,0.34,1.26,0.71,1.85,1.11c0.6,0.4,1.18,0.83,1.73,1.29c0.56,0.45,1.09,0.94,1.6,1.45l0.05,0.06
	c0.02,0.01,0.03,0.02,0.04,0.04l9.11,12.8l16.95,16.95c0.37,0.37,0.67,0.79,0.89,1.26c0.22,0.47,0.36,0.97,0.41,1.49
	c0.05,0.52,0.01,1.04-0.12,1.54c-0.13,0.51-0.34,0.97-0.64,1.41c-0.3,0.43-0.65,0.8-1.08,1.11c-0.42,0.31-0.89,0.53-1.39,0.68
	c-0.51,0.15-1.02,0.2-1.54,0.17c-0.52-0.03-1.02-0.16-1.5-0.36c0.18,0.41,0.29,0.84,0.34,1.29c0.05,0.45,0.03,0.89-0.06,1.33
	c-0.08,0.44-0.23,0.86-0.44,1.26c-0.21,0.4-0.47,0.75-0.79,1.07c-0.32,0.32-0.68,0.58-1.07,0.79c-0.4,0.21-0.81,0.35-1.26,0.44
	c-0.44,0.08-0.89,0.1-1.33,0.05c-0.44-0.05-0.88-0.17-1.29-0.34c0.18,0.42,0.3,0.85,0.34,1.3c0.05,0.45,0.03,0.9-0.06,1.34
	c-0.08,0.45-0.24,0.87-0.45,1.27c-0.22,0.4-0.48,0.76-0.81,1.07c-0.32,0.32-0.69,0.58-1.09,0.79c-0.4,0.21-0.83,0.35-1.28,0.43
	c-0.45,0.07-0.9,0.08-1.35,0.03c-0.45-0.06-0.88-0.19-1.29-0.38c0.16,0.34,0.27,0.69,0.34,1.06c0.07,0.37,0.09,0.74,0.07,1.12
	c-0.03,0.38-0.1,0.74-0.21,1.1c-0.12,0.36-0.28,0.69-0.48,1.01c-0.2,0.32-0.44,0.6-0.72,0.86c-0.28,0.26-0.58,0.48-0.91,0.66
	c-0.33,0.18-0.68,0.32-1.04,0.41C55.69,79.69,55.32,79.74,54.94,79.74L54.94,79.74z M19.57,55.73L48.6,74.39
	c0.02,0.01,0.03,0.03,0.05,0.04l3.56,3.56c0.36,0.36,0.78,0.64,1.25,0.84c0.47,0.19,0.96,0.29,1.47,0.29c0.52,0,1.01-0.1,1.48-0.29
	c0.47-0.2,0.89-0.48,1.25-0.84c0.36-0.36,0.64-0.78,0.84-1.25c0.19-0.47,0.29-0.97,0.29-1.48c0-0.51-0.1-1-0.29-1.47
	c-0.2-0.47-0.47-0.89-0.84-1.26l-6.26-6.26c-0.15-0.15-0.15-0.3,0-0.44l0.05-0.05c0.15-0.15,0.29-0.15,0.44,0l6.26,6.27
	c0.36,0.37,0.78,0.66,1.25,0.86c0.47,0.2,0.97,0.31,1.49,0.31c0.52,0.01,1.02-0.09,1.49-0.29c0.48-0.2,0.9-0.48,1.27-0.84
	c0.37-0.36,0.65-0.79,0.84-1.27c0.2-0.48,0.29-0.98,0.29-1.49c-0.01-0.52-0.11-1.02-0.31-1.49s-0.49-0.89-0.86-1.25l-6.27-6.27
	c-0.07-0.06-0.1-0.13-0.1-0.22c-0.01-0.09,0.03-0.17,0.09-0.23s0.14-0.09,0.23-0.09c0.09,0,0.17,0.04,0.22,0.1l6.27,6.26
	c0.36,0.36,0.78,0.64,1.25,0.83c0.47,0.2,0.97,0.3,1.48,0.3s1.01-0.1,1.47-0.3c0.47-0.19,0.89-0.47,1.26-0.83
	c0.36-0.36,0.64-0.78,0.83-1.25c0.2-0.47,0.3-0.97,0.3-1.48s-0.1-1.01-0.3-1.47c-0.19-0.47-0.47-0.89-0.83-1.26l-6.27-6.27
	c-0.06-0.06-0.1-0.14-0.1-0.22c0-0.09,0.03-0.17,0.09-0.23s0.14-0.09,0.23-0.09c0.09,0,0.16,0.04,0.22,0.1l6.27,6.27
	c0.36,0.36,0.78,0.64,1.25,0.83c0.47,0.2,0.97,0.29,1.48,0.29c0.51,0,1-0.1,1.47-0.29c0.47-0.2,0.89-0.47,1.25-0.84
	c0.36-0.36,0.64-0.78,0.83-1.25c0.2-0.47,0.3-0.96,0.3-1.47c0-0.51-0.1-1.01-0.29-1.47c-0.2-0.47-0.47-0.89-0.84-1.25L58.43,37.82
	c-0.01-0.02-0.02-0.03-0.03-0.04l-9.12-12.8l-0.03-0.03c-0.49-0.49-1.02-0.96-1.56-1.41c-0.54-0.45-1.1-0.86-1.68-1.25
	c-0.58-0.39-1.18-0.75-1.8-1.08c-0.62-0.33-1.25-0.63-1.9-0.9c-0.65-0.27-1.31-0.51-1.98-0.71c-0.67-0.2-1.34-0.38-2.03-0.51
	c-0.69-0.14-1.38-0.24-2.08-0.31c-0.69-0.07-1.39-0.1-2.09-0.1c-0.7,0-1.4,0.04-2.09,0.1c-0.7,0.07-1.39,0.17-2.07,0.31
	c-0.69,0.14-1.37,0.31-2.04,0.51c-0.67,0.2-1.33,0.44-1.97,0.7c-0.65,0.27-1.28,0.57-1.9,0.9c-0.62,0.33-1.22,0.69-1.8,1.08
	c-0.58,0.39-1.14,0.8-1.68,1.25c-0.54,0.44-1.06,0.91-1.56,1.41c-0.49,0.49-0.96,1.01-1.41,1.55c-0.44,0.54-0.86,1.1-1.25,1.69
	c-0.39,0.58-0.75,1.18-1.08,1.8c-0.33,0.62-0.63,1.25-0.9,1.9c-0.27,0.65-0.51,1.31-0.71,1.97c-0.2,0.67-0.38,1.35-0.51,2.04
	s-0.24,1.38-0.31,2.07c-0.07,0.7-0.1,1.4-0.1,2.1c0,0.7,0.04,1.4,0.1,2.09c0.07,0.7,0.17,1.39,0.31,2.07s0.31,1.36,0.51,2.04
	c0.2,0.67,0.44,1.33,0.71,1.97c0.27,0.65,0.56,1.28,0.9,1.9c0.33,0.62,0.69,1.22,1.08,1.8c0.39,0.58,0.8,1.14,1.25,1.68
	c0.44,0.54,0.91,1.06,1.41,1.56L19.57,55.73z"/>
<path class="st3" d="M64.15,33.77L62.92,35c-0.83,0.83-1.8,1.48-2.89,1.93c-1.09,0.45-2.22,0.68-3.4,0.68h-5.93l-4.54,4.54
	c-0.46,0.46-1,0.82-1.61,1.07c-0.61,0.26-1.24,0.38-1.9,0.38c-0.66,0-1.29-0.12-1.9-0.38c-0.61-0.25-1.15-0.61-1.61-1.07
	c-0.46-0.46-0.82-1-1.07-1.61c-0.26-0.61-0.38-1.24-0.38-1.9s0.12-1.29,0.38-1.9c0.25-0.6,0.61-1.14,1.07-1.61l10.36-10.36
	c0.51-0.51,1.03-0.98,1.58-1.43c0.55-0.45,1.12-0.87,1.71-1.27c0.59-0.4,1.2-0.76,1.83-1.09c0.62-0.33,1.27-0.64,1.92-0.91
	c0.66-0.27,1.32-0.51,2.01-0.71c0.68-0.21,1.36-0.38,2.06-0.52c0.7-0.14,1.4-0.24,2.1-0.31c0.71-0.07,1.42-0.1,2.12-0.1
	c0.71,0,1.42,0.03,2.12,0.1c0.71,0.07,1.41,0.17,2.11,0.31c0.69,0.14,1.38,0.31,2.06,0.52c0.68,0.2,1.35,0.44,2.01,0.71
	c0.66,0.28,1.3,0.58,1.92,0.91c0.62,0.33,1.23,0.7,1.82,1.09c0.59,0.4,1.16,0.82,1.71,1.27c0.55,0.45,1.07,0.93,1.57,1.43
	c0.51,0.5,0.98,1.03,1.43,1.58c0.45,0.55,0.87,1.11,1.27,1.71c0.4,0.59,0.76,1.2,1.09,1.82c0.34,0.62,0.64,1.27,0.91,1.93
	c0.27,0.66,0.51,1.32,0.72,2c0.2,0.68,0.38,1.37,0.52,2.07c0.14,0.69,0.24,1.4,0.31,2.1c0.07,0.7,0.1,1.41,0.1,2.12
	c0,0.71-0.04,1.42-0.1,2.12c-0.07,0.71-0.17,1.41-0.31,2.1s-0.31,1.39-0.52,2.06c-0.21,0.68-0.45,1.35-0.72,2.01
	c-0.27,0.66-0.57,1.3-0.91,1.93c-0.33,0.62-0.7,1.23-1.09,1.82c-0.4,0.59-0.82,1.16-1.27,1.71c-0.45,0.55-0.93,1.07-1.43,1.58
	l-2.92,2.92l-0.71-2.36L57.59,37.55 M47.51,68.98c-0.39-0.39-0.84-0.69-1.35-0.9c-0.51-0.21-1.04-0.32-1.59-0.32
	c-0.56,0-1.09,0.11-1.6,0.32c-0.51,0.21-0.96,0.51-1.35,0.9c0.38-0.39,0.67-0.84,0.88-1.35c0.2-0.51,0.3-1.04,0.3-1.58
	c-0.01-0.55-0.11-1.07-0.32-1.58c-0.21-0.5-0.51-0.95-0.9-1.33c-0.39-0.39-0.83-0.69-1.34-0.9c-0.51-0.21-1.03-0.32-1.58-0.32
	c-0.55-0.01-1.07,0.09-1.58,0.3c-0.51,0.2-0.96,0.49-1.35,0.88l-2.59,2.59c-0.39,0.39-0.69,0.84-0.91,1.35
	c-0.21,0.51-0.32,1.05-0.32,1.6c0,0.55,0.11,1.08,0.32,1.59c0.21,0.51,0.51,0.96,0.9,1.35c0.39,0.39,0.84,0.69,1.35,0.9
	c0.51,0.21,1.04,0.32,1.59,0.32c0.55,0,1.08-0.1,1.59-0.32c0.51-0.21,0.96-0.51,1.35-0.9c-0.41,0.39-0.73,0.84-0.96,1.35
	c-0.22,0.52-0.34,1.06-0.35,1.62c-0.01,0.56,0.09,1.1,0.31,1.63c0.21,0.52,0.52,0.98,0.91,1.38c0.4,0.4,0.86,0.7,1.39,0.92
	c0.52,0.21,1.06,0.31,1.63,0.3c0.56-0.01,1.1-0.12,1.61-0.35c0.52-0.22,0.97-0.55,1.35-0.95l2.6-2.6c0.39-0.39,0.69-0.84,0.9-1.35
	c0.21-0.51,0.32-1.04,0.32-1.59c0-0.56-0.1-1.09-0.32-1.6C48.2,69.82,47.9,69.38,47.51,68.98z M35.72,63.09
	c0.39-0.39,0.69-0.84,0.91-1.35c0.21-0.51,0.32-1.04,0.32-1.59c0-0.55-0.1-1.08-0.32-1.6c-0.21-0.51-0.52-0.96-0.91-1.35
	s-0.84-0.69-1.35-0.91c-0.52-0.21-1.05-0.32-1.6-0.32c-0.55,0-1.08,0.11-1.59,0.32c-0.51,0.21-0.96,0.52-1.35,0.91
	c0.39-0.39,0.69-0.84,0.91-1.35c0.21-0.51,0.31-1.04,0.31-1.59c0-0.55-0.1-1.08-0.31-1.59c-0.21-0.51-0.52-0.96-0.91-1.35
	s-0.84-0.69-1.35-0.9c-0.51-0.21-1.04-0.32-1.59-0.32c-0.55,0-1.08,0.1-1.59,0.32c-0.51,0.21-0.96,0.51-1.35,0.9l-2.59,2.6
	c-0.38,0.39-0.67,0.84-0.88,1.35c-0.2,0.51-0.3,1.04-0.3,1.58c0.01,0.55,0.11,1.07,0.32,1.57c0.21,0.51,0.51,0.95,0.9,1.34
	c0.39,0.39,0.83,0.69,1.34,0.9c0.51,0.21,1.03,0.32,1.58,0.33c0.55,0,1.07-0.1,1.58-0.3c0.51-0.2,0.96-0.49,1.35-0.88
	c-0.38,0.4-0.67,0.84-0.88,1.35c-0.2,0.51-0.3,1.04-0.3,1.58c0,0.55,0.11,1.07,0.32,1.57c0.21,0.51,0.51,0.95,0.9,1.34
	c0.39,0.39,0.83,0.69,1.34,0.9c0.51,0.21,1.03,0.32,1.58,0.32c0.55,0.01,1.07-0.09,1.58-0.3c0.51-0.2,0.96-0.49,1.35-0.88
	L35.72,63.09z"/>
<path d="M47.73,68.77c-0.32-0.32-0.67-0.58-1.07-0.8c-0.4-0.21-0.82-0.35-1.26-0.44c-0.44-0.08-0.89-0.1-1.33-0.05
	c-0.45,0.05-0.88,0.16-1.29,0.34c0.15-0.34,0.26-0.7,0.31-1.06c0.06-0.36,0.08-0.73,0.04-1.1c-0.03-0.37-0.1-0.73-0.23-1.08
	c-0.12-0.35-0.28-0.68-0.48-0.99c-0.2-0.31-0.44-0.59-0.72-0.84c-0.27-0.25-0.57-0.46-0.9-0.64c-0.33-0.18-0.67-0.31-1.03-0.4
	c-0.36-0.09-0.72-0.14-1.1-0.14c-0.62,0-1.22,0.12-1.79,0.38c0.18-0.41,0.3-0.84,0.35-1.29c0.05-0.45,0.04-0.9-0.04-1.34
	c-0.08-0.44-0.23-0.86-0.44-1.26c-0.21-0.4-0.47-0.76-0.79-1.08c-0.32-0.32-0.67-0.58-1.07-0.8c-0.4-0.21-0.82-0.35-1.26-0.44
	c-0.44-0.08-0.89-0.1-1.33-0.05c-0.45,0.05-0.88,0.16-1.29,0.34c0.21-0.48,0.33-0.98,0.36-1.5c0.03-0.52-0.03-1.03-0.17-1.53
	c-0.15-0.5-0.37-0.96-0.68-1.39s-0.68-0.78-1.1-1.07c-0.43-0.29-0.9-0.51-1.41-0.64c-0.51-0.13-1.02-0.17-1.54-0.12
	c-0.52,0.05-1.02,0.18-1.49,0.41c-0.47,0.22-0.89,0.52-1.26,0.89l-2.59,2.6c-0.38,0.36-0.67,0.79-0.9,1.26
	c-0.22,0.47-0.36,0.97-0.41,1.49c-0.05,0.52-0.02,1.04,0.11,1.54c0.13,0.51,0.34,0.98,0.64,1.41c0.3,0.43,0.66,0.8,1.08,1.11
	c0.43,0.31,0.89,0.53,1.39,0.68c0.51,0.15,1.02,0.2,1.54,0.16c0.52-0.04,1.02-0.16,1.5-0.37c-0.18,0.42-0.29,0.84-0.34,1.29
	c-0.05,0.45-0.03,0.89,0.05,1.33c0.08,0.44,0.23,0.86,0.44,1.26c0.21,0.4,0.47,0.76,0.8,1.07c0.32,0.32,0.68,0.58,1.07,0.79
	c0.4,0.21,0.82,0.35,1.26,0.44c0.44,0.08,0.89,0.1,1.34,0.05c0.45-0.05,0.88-0.17,1.29-0.35c-0.18,0.41-0.3,0.84-0.35,1.29
	c-0.05,0.44-0.04,0.89,0.05,1.33c0.08,0.44,0.23,0.86,0.44,1.26c0.21,0.4,0.47,0.76,0.79,1.08c0.32,0.32,0.68,0.58,1.07,0.8
	c0.4,0.21,0.82,0.36,1.26,0.44c0.44,0.08,0.89,0.1,1.34,0.05c0.45-0.05,0.88-0.17,1.29-0.35c-0.21,0.48-0.33,0.98-0.36,1.5
	c-0.03,0.52,0.03,1.03,0.17,1.53c0.15,0.5,0.38,0.96,0.68,1.38c0.31,0.42,0.68,0.78,1.1,1.07c0.43,0.3,0.9,0.51,1.41,0.64
	C41.36,79,41.88,79.04,42.4,79c0.52-0.05,1.01-0.18,1.48-0.41c0.47-0.22,0.89-0.52,1.26-0.89l2.59-2.59
	c0.42-0.42,0.74-0.91,0.97-1.46c0.23-0.55,0.34-1.12,0.34-1.71c0-0.6-0.11-1.17-0.34-1.72C48.48,69.67,48.15,69.18,47.73,68.77z
	 M27.45,65.46c-0.36-0.36-0.64-0.78-0.83-1.25c-0.19-0.47-0.29-0.97-0.29-1.48c0-0.51,0.1-1.01,0.29-1.47
	c0.2-0.47,0.47-0.89,0.83-1.26c0.07-0.06,0.1-0.13,0.11-0.22c0-0.09-0.03-0.17-0.09-0.23s-0.14-0.09-0.23-0.09
	c-0.09,0-0.17,0.04-0.22,0.1c-0.36,0.36-0.78,0.64-1.25,0.84c-0.47,0.19-0.96,0.29-1.48,0.29c-0.51,0-1-0.1-1.47-0.29
	c-0.47-0.2-0.89-0.47-1.25-0.84c-0.36-0.36-0.64-0.78-0.84-1.25c-0.19-0.47-0.29-0.96-0.29-1.47c0-0.52,0.09-1.01,0.29-1.48
	c0.2-0.47,0.47-0.89,0.84-1.25l2.59-2.59c0.36-0.35,0.78-0.62,1.25-0.81s0.96-0.28,1.46-0.28c0.51,0.01,0.99,0.1,1.45,0.3
	c0.47,0.19,0.88,0.47,1.24,0.83c0.35,0.36,0.63,0.77,0.83,1.23c0.19,0.47,0.3,0.95,0.3,1.46c0,0.51-0.09,0.99-0.28,1.46
	s-0.46,0.89-0.81,1.25c-0.15,0.15-0.15,0.29,0,0.44s0.29,0.15,0.44,0c0.36-0.37,0.78-0.66,1.25-0.86c0.47-0.2,0.97-0.31,1.49-0.31
	c0.52-0.01,1.02,0.09,1.49,0.29c0.48,0.2,0.9,0.48,1.27,0.84c0.37,0.36,0.65,0.79,0.84,1.27s0.29,0.98,0.29,1.49
	c-0.01,0.52-0.11,1.02-0.31,1.49c-0.2,0.48-0.49,0.9-0.86,1.26l-2.6,2.59c-0.36,0.36-0.78,0.64-1.25,0.83
	c-0.47,0.19-0.96,0.29-1.47,0.29c-0.51,0-1-0.1-1.47-0.29C28.23,66.1,27.82,65.82,27.45,65.46L27.45,65.46z M47.29,74.66l-2.59,2.59
	c-0.36,0.36-0.78,0.64-1.26,0.84c-0.47,0.19-0.96,0.29-1.47,0.29s-1.01-0.09-1.47-0.29c-0.47-0.2-0.89-0.47-1.26-0.84
	c-0.36-0.36-0.64-0.78-0.83-1.25c-0.2-0.47-0.3-0.96-0.3-1.47c0-0.51,0.1-1.01,0.3-1.48c0.19-0.47,0.47-0.89,0.83-1.25
	c0.13-0.15,0.12-0.29-0.01-0.43c-0.14-0.14-0.28-0.14-0.43-0.01c-0.36,0.36-0.78,0.64-1.26,0.83c-0.47,0.2-0.96,0.29-1.47,0.29
	c-0.51,0-1.01-0.1-1.47-0.29c-0.47-0.2-0.89-0.48-1.25-0.84c-0.36-0.36-0.64-0.78-0.84-1.25c-0.19-0.47-0.29-0.96-0.29-1.48
	c0-0.51,0.1-1,0.29-1.47c0.2-0.47,0.48-0.89,0.84-1.25l2.59-2.59c0.36-0.36,0.78-0.64,1.26-0.84c0.47-0.2,0.96-0.29,1.47-0.29
	s1.01,0.09,1.47,0.29c0.47,0.19,0.89,0.47,1.26,0.83c0.36,0.36,0.64,0.78,0.83,1.26c0.2,0.47,0.3,0.96,0.3,1.47s-0.1,1.01-0.3,1.47
	c-0.19,0.47-0.47,0.89-0.83,1.26c-0.15,0.15-0.15,0.29,0,0.44c0.15,0.15,0.29,0.15,0.44,0c0.36-0.35,0.78-0.62,1.25-0.81
	c0.47-0.19,0.95-0.28,1.46-0.27c0.51,0.01,0.99,0.1,1.46,0.3c0.47,0.2,0.88,0.47,1.23,0.83c0.36,0.35,0.64,0.77,0.83,1.23
	c0.19,0.47,0.29,0.95,0.3,1.46c0.01,0.51-0.09,0.99-0.28,1.46S47.65,74.29,47.29,74.66L47.29,74.66z"/>
<path d="M77.26,58.66c-0.16,0-0.26-0.08-0.3-0.22l-0.69-2.29L57.48,37.88c-0.28,0.03-0.56,0.04-0.84,0.04h-5.81l-4.45,4.45
	c-0.24,0.24-0.51,0.46-0.8,0.66c-0.29,0.19-0.59,0.35-0.91,0.49c-0.32,0.13-0.65,0.23-0.99,0.3c-0.34,0.07-0.68,0.1-1.03,0.1
	c-0.34,0-0.69-0.04-1.03-0.1c-0.34-0.07-0.67-0.17-0.99-0.3c-0.32-0.14-0.62-0.3-0.92-0.49c-0.29-0.19-0.55-0.41-0.8-0.66
	c-0.24-0.24-0.46-0.51-0.66-0.8c-0.19-0.29-0.35-0.59-0.49-0.92c-0.13-0.32-0.23-0.65-0.3-0.99c-0.07-0.34-0.1-0.68-0.1-1.03
	c0-0.35,0.04-0.69,0.1-1.03s0.17-0.67,0.3-0.99c0.14-0.32,0.3-0.62,0.49-0.91c0.19-0.29,0.41-0.55,0.66-0.8l10.36-10.36
	c0.51-0.51,1.05-0.99,1.6-1.45c0.55-0.45,1.13-0.89,1.73-1.29c0.6-0.4,1.22-0.77,1.85-1.11c0.64-0.34,1.29-0.65,1.95-0.92
	c0.66-0.28,1.34-0.52,2.03-0.73c0.69-0.21,1.39-0.38,2.09-0.52c0.71-0.14,1.42-0.25,2.14-0.32c0.72-0.07,1.44-0.1,2.16-0.1
	s1.44,0.03,2.16,0.1c0.72,0.07,1.43,0.18,2.14,0.32s1.41,0.31,2.09,0.52c0.69,0.21,1.36,0.45,2.03,0.73s1.32,0.58,1.95,0.92
	c0.64,0.34,1.25,0.71,1.85,1.11c0.6,0.4,1.18,0.83,1.73,1.29c0.56,0.46,1.09,0.94,1.6,1.45c0.51,0.51,0.99,1.04,1.45,1.6
	c0.46,0.56,0.89,1.14,1.29,1.73c0.4,0.6,0.77,1.21,1.11,1.85c0.34,0.64,0.65,1.29,0.92,1.95s0.52,1.34,0.73,2.03
	c0.21,0.69,0.38,1.39,0.52,2.09c0.14,0.71,0.25,1.42,0.32,2.14c0.07,0.72,0.11,1.44,0.11,2.16c0,0.72-0.04,1.44-0.11,2.16
	c-0.07,0.72-0.18,1.43-0.32,2.14c-0.14,0.71-0.31,1.41-0.52,2.09c-0.21,0.69-0.45,1.37-0.73,2.03c-0.28,0.67-0.58,1.32-0.92,1.95
	c-0.34,0.64-0.71,1.26-1.11,1.85s-0.83,1.18-1.29,1.73c-0.46,0.56-0.94,1.09-1.45,1.6l-2.93,2.91
	C77.42,58.62,77.34,58.66,77.26,58.66z M58.26,37.77l18.5,17.98c0.04,0.04,0.07,0.08,0.08,0.14l0.56,1.87l2.56-2.56
	c0.49-0.49,0.96-1.01,1.41-1.55c0.44-0.54,0.86-1.1,1.25-1.69c0.39-0.58,0.74-1.18,1.08-1.8c0.33-0.62,0.62-1.25,0.9-1.9
	c0.27-0.65,0.5-1.31,0.7-1.97c0.2-0.67,0.38-1.35,0.51-2.04s0.24-1.38,0.31-2.07c0.07-0.7,0.1-1.4,0.1-2.1c0-0.7-0.04-1.4-0.1-2.09
	c-0.07-0.7-0.17-1.39-0.31-2.07s-0.31-1.36-0.51-2.04c-0.2-0.67-0.44-1.33-0.71-1.97c-0.27-0.65-0.57-1.28-0.9-1.9
	c-0.33-0.62-0.69-1.22-1.08-1.8c-0.39-0.58-0.81-1.15-1.25-1.69c-0.44-0.54-0.92-1.06-1.41-1.55c-0.49-0.49-1.01-0.96-1.55-1.41
	c-0.54-0.44-1.1-0.86-1.69-1.24c-0.58-0.39-1.18-0.75-1.8-1.08c-0.62-0.33-1.25-0.63-1.9-0.9c-0.65-0.27-1.31-0.51-1.97-0.71
	c-0.67-0.2-1.35-0.38-2.04-0.51s-1.38-0.24-2.08-0.31c-0.69-0.07-1.39-0.1-2.09-0.1c-0.7,0-1.4,0.03-2.09,0.1
	c-0.7,0.07-1.39,0.17-2.07,0.31c-0.69,0.14-1.36,0.3-2.04,0.51c-0.67,0.2-1.33,0.44-1.97,0.7c-0.65,0.27-1.28,0.57-1.9,0.9
	c-0.62,0.33-1.22,0.69-1.8,1.08c-0.58,0.39-1.14,0.8-1.68,1.25c-0.54,0.44-1.06,0.91-1.55,1.41L39.37,35.34
	c-0.43,0.44-0.76,0.94-0.98,1.51c-0.23,0.57-0.34,1.16-0.34,1.77c0.01,0.61,0.12,1.2,0.36,1.77c0.24,0.56,0.57,1.06,1.01,1.49
	c0.43,0.43,0.93,0.77,1.49,1.01c0.56,0.23,1.15,0.35,1.76,0.36c0.61,0.01,1.2-0.11,1.77-0.34s1.07-0.55,1.51-0.98l4.54-4.54
	c0.06-0.06,0.13-0.09,0.22-0.09h5.93c0.29,0,0.59-0.01,0.89-0.04c0.02-0.01,0.04-0.01,0.06,0c1.99-0.22,3.7-1.04,5.12-2.46
	l1.23-1.23c0.15-0.12,0.29-0.12,0.43,0.02c0.14,0.14,0.14,0.28,0.02,0.43l-1.24,1.23C61.78,36.59,60.16,37.43,58.26,37.77z"/>
<g>
	<defs>
		<rect id="SVGID_3_" x="6.99" y="13.33" width="84" height="73.23"/>
	</defs>
	<clipPath id="SVGID_4_">
		<use xlink:href="#SVGID_3_"  style="overflow:visible;"/>
	</clipPath>
	<g class="st4">
		<path class="st5" d="M54.66,83.18c-0.37,0.37-0.77,0.7-1.2,0.99c-0.44,0.3-0.89,0.55-1.37,0.76c-0.48,0.21-0.97,0.38-1.48,0.49
			c-0.51,0.11-1.03,0.19-1.55,0.21c-0.52,0.02-1.04-0.01-1.56-0.08c-0.52-0.07-1.02-0.19-1.52-0.36c-0.5-0.17-0.97-0.38-1.43-0.64
			c-0.46-0.26-0.89-0.55-1.29-0.89C32.62,74.79,12,56.85,9.17,49.05c-3.62-9.97-2.08-21.34,6.11-28.78
			c9.81-8.91,23.46-8.77,33.23-1.74l-0.01,0.02c9.78-7.05,23.44-7.2,33.26,1.72c2.19,1.99,3.82,4.31,5.18,6.72
			c5.46,9.66,2.17,21.25-3.71,27.81L54.66,83.18z"/>
	</g>
</g>
<g>
	<defs>
		<rect id="SVGID_5_" x="6.99" y="12" width="84" height="74.57"/>
	</defs>
	<clipPath id="SVGID_6_">
		<use xlink:href="#SVGID_5_"  style="overflow:visible;"/>
	</clipPath>
	<g class="st6">
		<path d="M48.69,85.94c-2.12,0-3.99-0.68-5.62-2.05C16.15,61.41,10.1,52.47,8.9,49.15c-1.86-5.12-2.34-10.48-1.39-15.49
			c0.48-2.62,1.38-5.09,2.67-7.42c1.3-2.33,2.93-4.39,4.9-6.18c4.76-4.32,10.57-6.71,16.81-6.93c2.97-0.09,5.88,0.3,8.72,1.17
			c2.84,0.86,5.48,2.15,7.9,3.88c2.42-1.72,5.05-3.01,7.89-3.88c2.84-0.86,5.74-1.26,8.71-1.17c6.25,0.21,12.07,2.61,16.83,6.93
			c1.96,1.78,3.62,3.94,5.23,6.79c2.56,4.53,3.4,9.8,2.43,15.26c-0.84,4.75-3.1,9.45-6.18,12.89l-0.01,0.01L54.86,83.39
			c-0.82,0.82-1.76,1.45-2.83,1.89C50.96,85.72,49.85,85.94,48.69,85.94z M32.79,13.7c-0.29,0-0.58,0-0.87,0.02
			c-6.11,0.21-11.8,2.55-16.45,6.78c-7.59,6.89-9.9,17.8-6.03,28.47c2.87,7.9,24.73,26.76,34,34.49c0.39,0.33,0.8,0.61,1.24,0.86
			c0.44,0.24,0.9,0.45,1.38,0.61c0.48,0.16,0.97,0.28,1.47,0.35c0.5,0.07,1.01,0.09,1.51,0.07c0.51-0.02,1.01-0.09,1.49-0.2
			c0.49-0.11,0.97-0.28,1.44-0.48c0.46-0.2,0.9-0.45,1.32-0.73c0.42-0.29,0.81-0.6,1.16-0.96l28.58-28.37
			c3.01-3.36,5.21-7.95,6.04-12.59c0.94-5.32,0.12-10.47-2.36-14.87c-1.59-2.81-3.21-4.92-5.12-6.65
			c-4.65-4.23-10.34-6.57-16.46-6.78c-2.94-0.08-5.82,0.31-8.64,1.18c-2.82,0.87-5.42,2.17-7.8,3.9c-0.13,0.1-0.26,0.09-0.37-0.03
			c-0.02-0.02-0.03-0.04-0.04-0.06c-2.26-1.61-4.71-2.85-7.35-3.7C38.28,14.14,35.57,13.71,32.79,13.7z"/>
	</g>
</g>
<path class="st7" d="M77.89,24.38c-0.98-0.98-2.04-1.85-3.19-2.62c-1.15-0.77-2.37-1.42-3.65-1.95c-1.28-0.53-2.6-0.93-3.96-1.2
	c-1.35-0.27-2.72-0.41-4.11-0.41s-2.76,0.14-4.11,0.41c-1.36,0.27-2.68,0.67-3.95,1.2c-1.28,0.53-2.49,1.18-3.65,1.95
	s-2.21,1.64-3.19,2.62l-0.02,0.02l-0.03-0.03c-0.98-0.97-2.05-1.83-3.2-2.59c-1.15-0.76-2.36-1.4-3.64-1.93
	c-1.28-0.52-2.59-0.92-3.94-1.18c-1.35-0.27-2.72-0.4-4.1-0.39c-1.38,0-2.74,0.14-4.1,0.41c-1.35,0.27-2.67,0.67-3.94,1.2
	c-1.28,0.53-2.48,1.18-3.63,1.94c-1.15,0.77-2.21,1.64-3.18,2.61c-0.98,0.97-1.85,2.04-2.61,3.18c-0.77,1.15-1.42,2.36-1.94,3.63
	c-0.53,1.28-0.93,2.59-1.2,3.94c-0.27,1.35-0.41,2.71-0.42,4.09c0,1.38,0.13,2.74,0.39,4.1c0.27,1.35,0.66,2.67,1.18,3.95
	c0.52,1.28,1.17,2.49,1.93,3.64c0.76,1.15,1.62,2.21,2.59,3.2l0.55,0.55l0.74,0.47c-0.07,0.75,0.06,1.47,0.4,2.15
	c0.33,0.68,0.81,1.22,1.45,1.63c0.64,0.41,1.33,0.62,2.08,0.64c0.76,0.02,1.46-0.16,2.11-0.53l0.24,0.16
	c-0.25,0.43-0.42,0.88-0.51,1.36c-0.09,0.49-0.08,0.97,0.01,1.46c0.09,0.48,0.27,0.94,0.53,1.36c0.26,0.42,0.58,0.78,0.97,1.09
	c0.39,0.3,0.82,0.53,1.29,0.67c0.47,0.14,0.95,0.2,1.45,0.17c0.49-0.03,0.96-0.15,1.41-0.35c0.45-0.2,0.85-0.48,1.2-0.83l0.52-0.52
	l-0.52,0.51c-0.38,0.38-0.67,0.82-0.88,1.32c-0.2,0.49-0.31,1.01-0.31,1.55c0,0.54,0.1,1.06,0.31,1.55c0.21,0.5,0.5,0.94,0.88,1.32
	c0.38,0.38,0.82,0.67,1.31,0.88c0.49,0.21,1.02,0.31,1.55,0.31c0.54,0,1.05-0.1,1.55-0.31c0.49-0.21,0.93-0.5,1.31-0.88
	c-0.41,0.37-0.74,0.81-0.97,1.32c-0.23,0.51-0.36,1.03-0.38,1.59c-0.02,0.56,0.08,1.09,0.29,1.61c0.21,0.52,0.51,0.97,0.9,1.36
	c0.39,0.4,0.85,0.69,1.36,0.9c0.52,0.21,1.05,0.3,1.61,0.29c0.56-0.02,1.09-0.14,1.59-0.38c0.51-0.23,0.94-0.56,1.31-0.97l2.52-2.53
	c0.16-0.16,0.31-0.33,0.44-0.52l0.46,0.3l3.47,3.46c0.38,0.38,0.82,0.67,1.32,0.88c0.49,0.2,1.01,0.31,1.55,0.31
	c0.54,0,1.06-0.1,1.55-0.31c0.49-0.21,0.93-0.5,1.31-0.88c0.38-0.38,0.67-0.82,0.88-1.31c0.2-0.5,0.31-1.02,0.31-1.55
	s-0.1-1.05-0.31-1.55c-0.21-0.49-0.5-0.93-0.88-1.31l-6.09-6.09l0.05-0.05l6.09,6.09c0.38,0.38,0.82,0.67,1.32,0.88
	c0.49,0.2,1.01,0.31,1.55,0.31c0.54,0,1.06-0.1,1.55-0.31c0.49-0.21,0.94-0.5,1.32-0.88c0.38-0.38,0.67-0.82,0.88-1.31
	c0.21-0.5,0.31-1.02,0.31-1.55s-0.1-1.05-0.31-1.55c-0.2-0.49-0.5-0.93-0.88-1.31l-6.09-6.09l6.09,6.09
	c0.39,0.35,0.82,0.61,1.31,0.79c0.49,0.18,0.99,0.26,1.51,0.24c0.52-0.01,1.02-0.12,1.49-0.33c0.48-0.2,0.9-0.49,1.27-0.86
	c0.37-0.37,0.65-0.79,0.86-1.27c0.2-0.48,0.31-0.98,0.32-1.5c0.01-0.52-0.07-1.02-0.25-1.51c-0.18-0.49-0.45-0.93-0.8-1.31
	c0.31,0.31,0.66,0.56,1.05,0.76s0.8,0.32,1.23,0.39c0.43,0.06,0.86,0.06,1.3-0.02c0.43-0.08,0.84-0.22,1.22-0.43
	c0.38-0.21,0.72-0.47,1.02-0.8c0.3-0.32,0.54-0.68,0.72-1.07c0.18-0.4,0.3-0.82,0.34-1.25c0.05-0.44,0.03-0.87-0.07-1.3l0.5,1.66
	l2.84-2.84c0.98-0.98,1.85-2.05,2.62-3.2c0.77-1.15,1.42-2.36,1.95-3.64c0.53-1.28,0.93-2.6,1.2-3.96c0.27-1.35,0.41-2.73,0.41-4.11
	c0-1.39-0.14-2.76-0.41-4.11c-0.27-1.36-0.67-2.68-1.2-3.95c-0.53-1.28-1.18-2.49-1.95-3.65C79.74,26.43,78.86,25.36,77.89,24.38z"
	/>
<path d="M53.35,77.84c-1.2,0-2.23-0.42-3.08-1.28l-3.45-3.43L18.61,54.99c-0.02-0.01-0.04-0.02-0.05-0.04l-0.55-0.55
	c-0.49-0.49-0.96-1.02-1.41-1.56c-0.45-0.54-0.86-1.1-1.26-1.68c-0.39-0.58-0.74-1.18-1.08-1.8c-0.33-0.62-0.63-1.25-0.9-1.9
	c-0.27-0.65-0.51-1.31-0.71-1.98c-0.2-0.67-0.37-1.35-0.51-2.04c-0.14-0.68-0.24-1.38-0.31-2.07c-0.07-0.7-0.1-1.4-0.1-2.1
	c0-0.7,0.04-1.4,0.1-2.09c0.07-0.7,0.17-1.39,0.31-2.08c0.14-0.69,0.31-1.36,0.51-2.04c0.2-0.67,0.44-1.33,0.71-1.97
	s0.57-1.28,0.9-1.9c0.33-0.62,0.69-1.22,1.08-1.8c0.39-0.58,0.81-1.15,1.26-1.69c0.44-0.54,0.91-1.06,1.41-1.55
	c0.49-0.49,1.02-0.96,1.56-1.41c0.54-0.44,1.1-0.86,1.68-1.25c0.58-0.39,1.18-0.75,1.8-1.08c0.62-0.33,1.25-0.63,1.9-0.9
	c0.65-0.27,1.31-0.51,1.98-0.71c0.67-0.2,1.35-0.38,2.04-0.51c0.68-0.14,1.38-0.24,2.07-0.31c0.7-0.07,1.4-0.1,2.1-0.1
	c0.7,0,1.4,0.04,2.09,0.1c0.7,0.07,1.39,0.17,2.08,0.31c0.69,0.14,1.36,0.31,2.04,0.51c0.67,0.2,1.33,0.44,1.97,0.71
	c0.65,0.27,1.28,0.57,1.9,0.9c0.62,0.33,1.22,0.69,1.8,1.08c0.58,0.39,1.15,0.81,1.69,1.25c0.54,0.45,1.06,0.92,1.55,1.41l0.05,0.05
	c0.02,0.01,0.03,0.03,0.04,0.04l8.85,12.44l16.48,16.48c0.36,0.35,0.65,0.77,0.87,1.22c0.22,0.46,0.35,0.94,0.4,1.45
	c0.05,0.51,0.01,1.01-0.11,1.5c-0.12,0.49-0.33,0.95-0.61,1.36c-0.29,0.42-0.64,0.78-1.05,1.08c-0.41,0.3-0.86,0.52-1.35,0.66
	c-0.49,0.14-0.99,0.19-1.49,0.16c-0.51-0.04-0.99-0.15-1.46-0.36c0.35,0.82,0.44,1.67,0.28,2.55c-0.17,0.88-0.57,1.63-1.2,2.26
	c-0.63,0.63-1.39,1.03-2.27,1.2c-0.88,0.17-1.72,0.07-2.54-0.29c0.18,0.41,0.29,0.83,0.33,1.27c0.05,0.44,0.03,0.88-0.06,1.31
	c-0.08,0.44-0.23,0.84-0.44,1.23c-0.21,0.39-0.47,0.73-0.79,1.05c-0.32,0.31-0.67,0.56-1.06,0.76c-0.4,0.2-0.81,0.34-1.24,0.42
	c-0.43,0.07-0.87,0.08-1.31,0.03c-0.44-0.06-0.86-0.18-1.26-0.36c0.16,0.33,0.27,0.68,0.33,1.04c0.07,0.36,0.09,0.72,0.06,1.08
	c-0.02,0.36-0.09,0.72-0.21,1.07c-0.11,0.35-0.27,0.68-0.46,0.98c-0.2,0.31-0.43,0.59-0.7,0.84s-0.56,0.46-0.88,0.64
	c-0.32,0.18-0.66,0.31-1.02,0.4C54.07,77.79,53.71,77.84,53.35,77.84z M18.96,54.5l28.22,18.14c0.02,0.02,0.03,0.03,0.05,0.04
	l3.46,3.46c0.35,0.35,0.76,0.62,1.22,0.81c0.46,0.19,0.94,0.29,1.44,0.29c0.49,0,0.97-0.09,1.43-0.29c0.46-0.19,0.86-0.46,1.22-0.81
	c0.35-0.35,0.62-0.76,0.81-1.21c0.19-0.46,0.29-0.94,0.29-1.44c0-0.49-0.09-0.97-0.29-1.43c-0.19-0.46-0.46-0.87-0.81-1.22
	l-6.08-6.09c-0.14-0.14-0.14-0.29,0-0.43l0.05-0.05c0.14-0.14,0.28-0.14,0.43,0l6.08,6.1c0.35,0.36,0.76,0.64,1.22,0.84
	c0.46,0.2,0.94,0.3,1.45,0.31c0.5,0.01,0.98-0.09,1.45-0.28c0.47-0.19,0.88-0.46,1.23-0.82s0.63-0.77,0.82-1.23
	c0.19-0.46,0.29-0.95,0.28-1.45c-0.01-0.5-0.1-0.98-0.31-1.45c-0.2-0.46-0.48-0.86-0.84-1.21l-6.09-6.09
	c-0.06-0.06-0.1-0.13-0.1-0.22c-0.01-0.09,0.03-0.16,0.09-0.22s0.14-0.09,0.22-0.09c0.08,0.01,0.16,0.04,0.21,0.1l6.09,6.08
	c0.35,0.35,0.76,0.62,1.21,0.81c0.46,0.19,0.94,0.29,1.44,0.29c0.49,0,0.97-0.09,1.43-0.29c0.46-0.19,0.87-0.46,1.22-0.81
	c0.35-0.35,0.62-0.76,0.81-1.21c0.19-0.46,0.29-0.94,0.29-1.44c0-0.49-0.09-0.97-0.29-1.43c-0.19-0.46-0.46-0.86-0.81-1.22
	l-6.09-6.09c-0.06-0.06-0.1-0.13-0.1-0.22c-0.01-0.08,0.03-0.16,0.09-0.22c0.06-0.06,0.14-0.09,0.22-0.09c0.08,0,0.16,0.04,0.21,0.1
	l6.09,6.09c0.35,0.35,0.76,0.62,1.22,0.81c0.46,0.19,0.94,0.28,1.43,0.28c0.5,0,0.97-0.09,1.44-0.29c0.46-0.19,0.86-0.46,1.21-0.81
	c0.35-0.35,0.62-0.76,0.81-1.21c0.19-0.46,0.29-0.94,0.29-1.43c0-0.5-0.09-0.98-0.29-1.44c-0.19-0.46-0.46-0.86-0.81-1.21
	l-16.49-16.5c-0.01-0.01-0.02-0.02-0.03-0.04l-8.86-12.44l-0.03-0.03c-0.96-0.97-2.01-1.83-3.15-2.59c-1.14-0.76-2.33-1.4-3.59-1.92
	c-1.26-0.53-2.56-0.92-3.9-1.18c-1.34-0.27-2.69-0.4-4.06-0.4c-1.36,0-2.71,0.13-4.05,0.4c-1.34,0.27-2.64,0.66-3.9,1.18
	c-1.26,0.52-2.46,1.16-3.59,1.92c-1.14,0.76-2.18,1.62-3.15,2.58c-0.96,0.97-1.82,2.02-2.58,3.15c-0.76,1.14-1.4,2.33-1.92,3.59
	c-0.52,1.26-0.92,2.56-1.18,3.9c-0.27,1.34-0.4,2.69-0.4,4.05c0,1.36,0.13,2.72,0.4,4.06c0.27,1.34,0.66,2.64,1.18,3.9
	c0.53,1.26,1.16,2.46,1.92,3.59c0.76,1.14,1.62,2.18,2.58,3.15L18.96,54.5z"/>
<path class="st8" d="M62.3,33.15l-1.19,1.19c-0.81,0.81-1.74,1.44-2.81,1.88c-1.06,0.44-2.16,0.66-3.3,0.66h-5.77l-4.42,4.42
	c-0.45,0.45-0.97,0.8-1.56,1.04c-0.59,0.24-1.21,0.37-1.85,0.37s-1.26-0.12-1.84-0.37c-0.59-0.24-1.11-0.59-1.57-1.04
	c-0.45-0.45-0.8-0.97-1.05-1.57c-0.24-0.59-0.37-1.21-0.37-1.84c0-0.64,0.12-1.26,0.37-1.85c0.24-0.59,0.59-1.11,1.05-1.57
	l10.08-10.08c0.98-0.98,2.04-1.85,3.19-2.62s2.36-1.42,3.65-1.95c1.28-0.53,2.59-0.93,3.95-1.2c1.36-0.27,2.73-0.41,4.11-0.41
	s2.76,0.14,4.11,0.41c1.36,0.27,2.68,0.67,3.96,1.2c1.28,0.53,2.49,1.18,3.65,1.95c1.15,0.77,2.21,1.64,3.19,2.62
	c0.98,0.98,1.85,2.05,2.62,3.2c0.77,1.15,1.42,2.36,1.95,3.64c0.53,1.28,0.93,2.6,1.2,3.96c0.27,1.35,0.41,2.73,0.41,4.11
	c0,1.39-0.14,2.76-0.41,4.11s-0.67,2.68-1.2,3.95c-0.53,1.28-1.18,2.49-1.95,3.65c-0.77,1.15-1.64,2.22-2.62,3.2l-2.84,2.84
	l-0.7-2.3L55.92,36.82 M46.12,67.38c-0.38-0.38-0.82-0.67-1.31-0.88c-0.49-0.2-1.02-0.31-1.55-0.31c-0.54,0-1.05,0.1-1.55,0.31
	c-0.5,0.21-0.94,0.5-1.32,0.88c0.37-0.39,0.66-0.82,0.85-1.31c0.19-0.49,0.29-1.01,0.29-1.54C41.53,64,41.43,63.49,41.22,63
	c-0.21-0.49-0.5-0.92-0.88-1.3c-0.38-0.38-0.81-0.67-1.3-0.87c-0.49-0.2-1.01-0.31-1.54-0.31c-0.53-0.01-1.04,0.09-1.54,0.29
	c-0.49,0.2-0.93,0.48-1.31,0.85l-2.53,2.52c-0.38,0.38-0.67,0.82-0.88,1.31c-0.21,0.5-0.31,1.02-0.31,1.55
	c0,0.54,0.1,1.05,0.31,1.55c0.2,0.49,0.49,0.93,0.88,1.31c0.38,0.38,0.82,0.67,1.31,0.88c0.5,0.2,1.02,0.31,1.55,0.31
	c0.54,0,1.06-0.1,1.55-0.31c0.49-0.2,0.93-0.49,1.31-0.88c-0.4,0.38-0.71,0.81-0.93,1.31c-0.22,0.5-0.34,1.03-0.35,1.57
	c-0.01,0.55,0.09,1.08,0.3,1.59c0.21,0.51,0.51,0.95,0.89,1.34c0.39,0.39,0.84,0.69,1.34,0.89c0.51,0.21,1.04,0.31,1.58,0.3
	c0.55-0.01,1.07-0.12,1.57-0.34c0.51-0.22,0.94-0.53,1.32-0.93l2.52-2.53c0.38-0.38,0.68-0.82,0.88-1.31
	c0.21-0.49,0.31-1.02,0.31-1.55c0-0.54-0.1-1.05-0.31-1.55C46.8,68.2,46.51,67.76,46.12,67.38z M34.67,61.65
	c0.38-0.38,0.67-0.82,0.88-1.32c0.2-0.49,0.31-1.01,0.31-1.55c0-0.54-0.1-1.05-0.31-1.55c-0.21-0.5-0.5-0.94-0.88-1.32
	c-0.38-0.38-0.82-0.67-1.31-0.88c-0.5-0.2-1.02-0.31-1.55-0.31c-0.54,0-1.06,0.1-1.55,0.31c-0.5,0.2-0.94,0.49-1.32,0.88
	c0.38-0.38,0.68-0.82,0.88-1.31c0.21-0.49,0.31-1.02,0.31-1.55s-0.1-1.05-0.31-1.55c-0.2-0.49-0.5-0.93-0.88-1.31
	c-0.38-0.38-0.82-0.67-1.31-0.88C27.12,49.11,26.6,49,26.07,49c-0.54,0-1.05,0.1-1.55,0.31c-0.49,0.21-0.93,0.5-1.31,0.88
	l-2.52,2.52c-0.37,0.39-0.66,0.82-0.85,1.32c-0.19,0.49-0.29,1.01-0.29,1.54c0.01,0.53,0.11,1.04,0.31,1.53
	c0.21,0.49,0.49,0.93,0.88,1.3c0.38,0.38,0.81,0.67,1.3,0.87c0.49,0.21,1,0.31,1.53,0.32c0.54,0.01,1.05-0.09,1.54-0.29
	c0.49-0.2,0.93-0.48,1.31-0.85c-0.37,0.38-0.65,0.82-0.85,1.31c-0.2,0.49-0.3,1.01-0.29,1.54c0.01,0.53,0.11,1.05,0.31,1.54
	c0.21,0.49,0.5,0.92,0.88,1.3s0.81,0.67,1.3,0.88c0.49,0.2,1,0.31,1.53,0.31s1.04-0.09,1.54-0.29c0.49-0.2,0.93-0.48,1.31-0.85
	L34.67,61.65z"/>
<path d="M46.34,67.17c-0.63-0.63-1.39-1.03-2.27-1.2c-0.88-0.17-1.73-0.07-2.55,0.28c0.15-0.33,0.24-0.67,0.31-1.03
	c0.06-0.35,0.07-0.71,0.04-1.07c-0.03-0.36-0.1-0.71-0.22-1.05c-0.12-0.34-0.28-0.67-0.47-0.97c-0.2-0.3-0.43-0.57-0.7-0.82
	c-0.27-0.24-0.56-0.45-0.88-0.62c-0.32-0.17-0.65-0.3-1-0.39c-0.35-0.09-0.71-0.13-1.07-0.13c-0.61,0-1.19,0.12-1.74,0.36
	c0.18-0.4,0.29-0.82,0.34-1.26c0.05-0.43,0.04-0.86-0.04-1.3c-0.08-0.43-0.22-0.84-0.43-1.22c-0.2-0.39-0.46-0.74-0.77-1.05
	c-0.31-0.31-0.66-0.57-1.04-0.78c-0.39-0.2-0.8-0.35-1.23-0.43c-0.43-0.08-0.86-0.09-1.3-0.05c-0.43,0.05-0.85,0.16-1.26,0.33
	c0.2-0.46,0.32-0.95,0.35-1.45c0.03-0.51-0.02-1.01-0.16-1.49c-0.14-0.49-0.36-0.94-0.66-1.35c-0.3-0.41-0.66-0.76-1.08-1.04
	c-0.42-0.29-0.88-0.49-1.36-0.62c-0.49-0.12-0.99-0.17-1.49-0.12c-0.51,0.05-0.98,0.18-1.44,0.4c-0.46,0.22-0.87,0.51-1.23,0.86
	l-2.52,2.53c-0.36,0.35-0.65,0.77-0.87,1.22s-0.35,0.94-0.41,1.45c-0.05,0.51-0.01,1.01,0.12,1.5c0.12,0.49,0.33,0.95,0.61,1.37
	c0.29,0.42,0.64,0.78,1.05,1.08c0.42,0.3,0.86,0.52,1.35,0.66c0.49,0.14,0.99,0.19,1.49,0.16c0.51-0.03,0.99-0.15,1.46-0.35
	c-0.35,0.82-0.45,1.67-0.28,2.55c0.17,0.88,0.57,1.64,1.2,2.27c0.64,0.63,1.39,1.03,2.27,1.19c0.88,0.17,1.73,0.07,2.55-0.29
	c-0.18,0.4-0.29,0.82-0.34,1.25c-0.05,0.44-0.04,0.87,0.04,1.3c0.08,0.43,0.22,0.84,0.43,1.23c0.2,0.39,0.46,0.73,0.77,1.05
	c0.31,0.31,0.66,0.57,1.04,0.77c0.39,0.2,0.8,0.35,1.23,0.43c0.43,0.08,0.86,0.09,1.3,0.05s0.85-0.16,1.26-0.34
	c-0.2,0.47-0.32,0.95-0.35,1.46c-0.04,0.51,0.02,1,0.16,1.49c0.14,0.48,0.36,0.93,0.66,1.34c0.3,0.41,0.66,0.76,1.07,1.04
	c0.42,0.29,0.88,0.49,1.36,0.62s0.99,0.17,1.49,0.12c0.51-0.05,0.98-0.18,1.44-0.4s0.87-0.5,1.23-0.86l2.52-2.52
	c0.41-0.41,0.72-0.89,0.94-1.42c0.22-0.54,0.33-1.09,0.33-1.67s-0.11-1.14-0.33-1.67C47.06,68.05,46.75,67.57,46.34,67.17z
	 M26.62,63.96c-0.35-0.35-0.62-0.76-0.81-1.22c-0.19-0.46-0.29-0.94-0.29-1.43c0-0.5,0.09-0.97,0.29-1.44
	c0.19-0.46,0.46-0.86,0.81-1.21c0.07-0.06,0.1-0.13,0.1-0.22c0.01-0.09-0.03-0.16-0.09-0.22s-0.14-0.09-0.22-0.09
	c-0.09,0.01-0.16,0.04-0.22,0.1c-0.35,0.35-0.76,0.62-1.21,0.81c-0.46,0.19-0.94,0.29-1.44,0.29c-0.49,0-0.97-0.1-1.43-0.29
	c-0.46-0.19-0.86-0.46-1.22-0.81c-0.35-0.35-0.62-0.76-0.81-1.22c-0.19-0.46-0.29-0.94-0.29-1.43c0-0.5,0.09-0.98,0.29-1.44
	c0.19-0.46,0.46-0.86,0.81-1.21l2.52-2.53c0.35-0.34,0.76-0.6,1.22-0.78c0.45-0.18,0.93-0.27,1.42-0.27
	c0.49,0.01,0.96,0.1,1.42,0.29c0.45,0.19,0.85,0.46,1.2,0.81c0.35,0.35,0.62,0.75,0.81,1.2c0.19,0.45,0.29,0.93,0.29,1.42
	c0.01,0.49-0.08,0.96-0.27,1.42c-0.18,0.46-0.44,0.86-0.79,1.21c-0.14,0.15-0.14,0.29,0,0.43c0.15,0.14,0.29,0.14,0.43,0
	c0.35-0.36,0.76-0.65,1.22-0.84c0.46-0.2,0.94-0.3,1.45-0.3c0.5-0.01,0.98,0.09,1.45,0.28c0.46,0.19,0.88,0.46,1.23,0.82
	c0.35,0.36,0.63,0.77,0.82,1.23c0.19,0.46,0.29,0.95,0.28,1.45s-0.1,0.98-0.31,1.45c-0.2,0.46-0.48,0.87-0.84,1.22l-2.53,2.52
	c-0.35,0.35-0.76,0.62-1.21,0.81c-0.46,0.19-0.94,0.29-1.43,0.29c-0.5,0-0.97-0.09-1.43-0.29C27.38,64.58,26.98,64.31,26.62,63.96
	L26.62,63.96z M45.91,72.9l-2.52,2.52c-0.35,0.35-0.76,0.62-1.22,0.82c-0.46,0.19-0.94,0.28-1.43,0.28c-0.5,0-0.98-0.09-1.44-0.28
	c-0.46-0.19-0.86-0.46-1.22-0.81c-0.35-0.35-0.62-0.76-0.81-1.22c-0.19-0.46-0.29-0.94-0.29-1.43c0-0.5,0.1-0.98,0.29-1.44
	c0.19-0.46,0.46-0.86,0.81-1.22c0.12-0.14,0.12-0.28-0.01-0.41c-0.14-0.14-0.28-0.14-0.42-0.02c-0.35,0.35-0.76,0.62-1.21,0.81
	c-0.46,0.19-0.94,0.29-1.44,0.29c-0.49,0-0.97-0.1-1.43-0.29c-0.46-0.19-0.86-0.46-1.22-0.81c-0.35-0.35-0.62-0.76-0.81-1.22
	c-0.19-0.46-0.28-0.94-0.28-1.43c0-0.5,0.09-0.98,0.28-1.44c0.19-0.46,0.46-0.86,0.82-1.21l2.52-2.53c0.35-0.35,0.76-0.62,1.21-0.81
	c0.46-0.19,0.94-0.29,1.44-0.29c0.5,0,0.97,0.1,1.44,0.29c0.46,0.19,0.86,0.46,1.21,0.81c0.35,0.35,0.62,0.76,0.81,1.22
	c0.19,0.46,0.29,0.94,0.29,1.43c0,0.5-0.09,0.97-0.29,1.44c-0.19,0.46-0.46,0.86-0.81,1.21c-0.14,0.15-0.14,0.29,0,0.43
	c0.15,0.14,0.29,0.14,0.43-0.01c0.35-0.34,0.76-0.6,1.21-0.78c0.46-0.18,0.93-0.27,1.42-0.27c0.49,0.01,0.96,0.1,1.42,0.29
	c0.45,0.19,0.85,0.46,1.2,0.81c0.34,0.34,0.61,0.74,0.8,1.2c0.19,0.45,0.29,0.93,0.29,1.42c0.01,0.49-0.08,0.97-0.27,1.42
	C46.52,72.14,46.26,72.54,45.91,72.9L45.91,72.9z"/>
<path d="M75.05,57.34c-0.15-0.01-0.24-0.08-0.29-0.22l-0.67-2.22L55.82,37.14c-0.27,0.02-0.55,0.04-0.82,0.04h-5.64l-4.33,4.33
	c-0.48,0.48-1.03,0.85-1.66,1.11c-0.63,0.26-1.28,0.39-1.96,0.39s-1.33-0.13-1.96-0.39c-0.62-0.26-1.18-0.63-1.66-1.11
	c-0.48-0.48-0.85-1.04-1.11-1.67c-0.26-0.63-0.39-1.28-0.39-1.96c0-0.68,0.13-1.33,0.39-1.96c0.26-0.62,0.63-1.18,1.11-1.66
	l10.08-10.08c0.49-0.49,1.01-0.96,1.55-1.41c0.54-0.45,1.1-0.86,1.69-1.25c0.58-0.39,1.18-0.75,1.8-1.08
	c0.61-0.33,1.25-0.62,1.9-0.9c0.65-0.27,1.31-0.51,1.97-0.71c0.67-0.2,1.35-0.37,2.04-0.51c0.69-0.14,1.38-0.23,2.08-0.31
	c0.7-0.07,1.4-0.1,2.09-0.1c0.7,0,1.4,0.03,2.1,0.1c0.7,0.07,1.39,0.17,2.07,0.31c0.69,0.14,1.37,0.31,2.04,0.51
	c0.67,0.2,1.33,0.44,1.98,0.71c0.65,0.27,1.28,0.57,1.9,0.9c0.62,0.33,1.22,0.69,1.8,1.08c0.58,0.39,1.14,0.8,1.68,1.25
	c0.54,0.44,1.06,0.91,1.56,1.41c0.49,0.49,0.96,1.02,1.41,1.56c0.45,0.54,0.86,1.1,1.25,1.68c0.39,0.58,0.75,1.19,1.08,1.8
	c0.33,0.62,0.62,1.25,0.9,1.9c0.27,0.65,0.51,1.31,0.71,1.98c0.2,0.67,0.37,1.35,0.51,2.04c0.14,0.69,0.24,1.38,0.31,2.07
	s0.1,1.4,0.1,2.1c0,0.7-0.04,1.4-0.1,2.09c-0.07,0.7-0.17,1.39-0.31,2.08c-0.14,0.69-0.31,1.36-0.51,2.04
	c-0.2,0.67-0.44,1.33-0.71,1.97c-0.27,0.65-0.57,1.28-0.9,1.9c-0.33,0.62-0.69,1.22-1.08,1.8c-0.39,0.58-0.8,1.15-1.25,1.69
	c-0.44,0.54-0.91,1.06-1.41,1.55l-2.84,2.83C75.2,57.31,75.13,57.34,75.05,57.34z M56.58,37.04l17.98,17.48
	c0.04,0.04,0.06,0.08,0.08,0.13l0.55,1.82l2.49-2.49c0.96-0.96,1.83-2.01,2.58-3.15c0.76-1.14,1.4-2.33,1.92-3.59
	c0.52-1.26,0.92-2.56,1.18-3.9s0.4-2.69,0.4-4.05c0-1.36-0.14-2.71-0.4-4.05s-0.66-2.64-1.18-3.9c-0.52-1.26-1.16-2.46-1.92-3.59
	c-0.76-1.14-1.62-2.19-2.58-3.15s-2.02-1.82-3.15-2.58c-1.14-0.76-2.33-1.4-3.59-1.92c-1.26-0.53-2.56-0.92-3.9-1.18
	c-1.34-0.27-2.69-0.4-4.05-0.4c-1.36,0-2.72,0.14-4.06,0.4c-1.34,0.27-2.64,0.66-3.9,1.18c-1.26,0.53-2.46,1.17-3.59,1.92
	c-1.14,0.76-2.18,1.62-3.15,2.58L38.21,34.67c-0.42,0.43-0.73,0.92-0.95,1.47c-0.22,0.55-0.33,1.12-0.33,1.72
	c0,0.59,0.12,1.17,0.35,1.71c0.23,0.55,0.55,1.04,0.97,1.45c0.42,0.42,0.91,0.74,1.45,0.98c0.55,0.23,1.12,0.34,1.71,0.35
	s1.17-0.1,1.72-0.33c0.55-0.22,1.04-0.54,1.47-0.96l4.42-4.41c0.06-0.06,0.13-0.09,0.21-0.09H55c0.29,0,0.57-0.02,0.86-0.04
	c0.02-0.01,0.04-0.01,0.06,0c1.94-0.21,3.6-1.01,4.98-2.39l1.2-1.2c0.14-0.12,0.28-0.12,0.41,0.01c0.14,0.14,0.14,0.28,0.01,0.42
	l-1.2,1.2C60,35.89,58.42,36.71,56.58,37.04z"/>
</svg>
