<?xml version="1.0" encoding="utf-8"?>
<!-- Generator: Adobe Illustrator 24.3.0, SVG Export Plug-In . SVG Version: 6.00 Build 0)  -->
<svg version="1.1" id="Layer_1" xmlns="http://www.w3.org/2000/svg" xmlns:xlink="http://www.w3.org/1999/xlink" x="0px" y="0px"
	 viewBox="0 0 250 100" style="enable-background:new 0 0 250 100;" xml:space="preserve">
<style type="text/css">
	.st0{fill:#8A252C;}
	.st1{fill:#E397C1;}
	.st2{fill:#435BD8;}
	.st3{fill:#F9DA4A;}
	.st4{fill:#4B8522;}
	.st5{fill:#B5E61D;}
	.st6{fill:none;stroke:#000000;stroke-width:0.75;stroke-miterlimit:5.4746;}
</style>
<path class="st0" d="M48.63,84.59c-0.18,0.18-0.37,0.35-0.56,0.51c-0.19,0.16-0.4,0.31-0.6,0.45c-0.21,0.14-0.42,0.27-0.64,0.4
	c-0.22,0.12-0.45,0.23-0.68,0.33c-0.23,0.1-0.47,0.19-0.7,0.27c-0.24,0.08-0.48,0.15-0.73,0.2c-0.24,0.06-0.49,0.1-0.74,0.14
	c-0.25,0.03-0.5,0.06-0.75,0.07c-0.25,0.01-0.5,0.01-0.76,0c-0.25-0.01-0.5-0.04-0.75-0.07c-0.25-0.04-0.5-0.08-0.74-0.14
	c-0.24-0.06-0.49-0.13-0.73-0.21c-0.24-0.08-0.47-0.17-0.7-0.28s-0.45-0.22-0.68-0.34c-0.22-0.12-0.43-0.26-0.64-0.4
	c-0.21-0.14-0.41-0.29-0.6-0.46C27.38,76.5,7.47,59.19,4.74,51.66c-3.49-9.62-2.01-20.59,5.9-27.77c9.47-8.6,22.63-8.46,32.07-1.68
	l-0.01,0.02c9.44-6.8,22.62-6.94,32.1,1.66c2.12,1.92,3.68,4.16,5,6.48c5.27,9.32,2.09,20.5-3.58,26.84L48.63,84.59z"/>
<path d="M42.88,87.26c-0.49,0-0.98-0.04-1.46-0.13c-0.48-0.09-0.96-0.21-1.42-0.38c-0.46-0.17-0.91-0.38-1.33-0.62
	c-0.43-0.25-0.83-0.53-1.2-0.84C11.48,63.58,5.64,54.96,4.48,51.76c-1.8-4.95-2.26-10.12-1.34-14.95c0.23-1.26,0.57-2.48,1-3.68
	c0.43-1.2,0.96-2.36,1.58-3.47s1.33-2.17,2.12-3.17c0.79-1,1.66-1.93,2.61-2.79c4.59-4.17,10.2-6.48,16.22-6.69
	c1.42-0.04,2.84,0.03,4.25,0.22c1.41,0.19,2.8,0.49,4.16,0.9c1.36,0.41,2.68,0.93,3.96,1.56c1.28,0.63,2.5,1.35,3.66,2.18
	c1.16-0.82,2.38-1.55,3.66-2.18c1.28-0.63,2.6-1.15,3.96-1.56c1.36-0.41,2.75-0.72,4.16-0.9c1.41-0.19,2.83-0.26,4.25-0.22
	c6.03,0.2,11.65,2.51,16.24,6.68c1.89,1.72,3.49,3.8,5.05,6.55c2.47,4.37,3.28,9.46,2.34,14.72c-0.82,4.58-2.99,9.11-5.96,12.43
	l-0.01,0.01L48.83,84.79c-0.39,0.39-0.82,0.74-1.27,1.05c-0.46,0.31-0.94,0.57-1.45,0.78s-1.04,0.37-1.58,0.48
	S43.43,87.26,42.88,87.26z M27.53,17.54c-0.28,0-0.55,0-0.84,0.01c-5.9,0.2-11.38,2.46-15.87,6.54C3.5,30.75,1.27,41.28,5,51.57
	c2.77,7.62,23.86,25.82,32.81,33.29c0.19,0.16,0.38,0.3,0.58,0.44s0.41,0.27,0.62,0.39c0.21,0.12,0.43,0.23,0.65,0.33
	c0.22,0.1,0.45,0.19,0.68,0.27c0.23,0.08,0.46,0.15,0.7,0.2c0.24,0.06,0.48,0.1,0.72,0.14s0.48,0.06,0.73,0.07
	c0.24,0.01,0.49,0.01,0.73,0c0.24-0.01,0.48-0.03,0.73-0.07c0.24-0.03,0.48-0.08,0.72-0.13c0.24-0.05,0.47-0.12,0.7-0.2
	c0.23-0.08,0.46-0.16,0.68-0.26c0.22-0.1,0.44-0.21,0.65-0.33c0.21-0.12,0.42-0.25,0.62-0.38c0.2-0.14,0.39-0.28,0.58-0.44
	c0.19-0.16,0.37-0.32,0.54-0.49l27.57-27.37c2.9-3.24,5.02-7.67,5.82-12.15c0.91-5.14,0.12-10.1-2.28-14.35
	c-1.53-2.7-3.1-4.74-4.94-6.42c-4.49-4.08-9.98-6.34-15.88-6.54c-1.41-0.04-2.82,0.04-4.21,0.23c-1.4,0.19-2.77,0.49-4.12,0.91
	c-1.35,0.42-2.65,0.94-3.92,1.57c-1.26,0.63-2.47,1.36-3.61,2.19c-0.05,0.04-0.12,0.06-0.18,0.05c-0.07,0-0.13-0.03-0.17-0.08
	c-0.02-0.02-0.03-0.03-0.04-0.05c-1.08-0.77-2.22-1.46-3.41-2.06c-1.19-0.6-2.42-1.1-3.68-1.51c-1.27-0.41-2.56-0.72-3.87-0.93
	C30.19,17.66,28.86,17.55,27.53,17.54z"/>
<path class="st1" d="M71.05,27.85c-0.24-0.24-0.48-0.47-0.72-0.69s-0.5-0.44-0.76-0.65c-0.26-0.21-0.52-0.42-0.79-0.61
	c-0.27-0.2-0.54-0.39-0.82-0.58c-0.28-0.18-0.56-0.36-0.84-0.53c-0.29-0.17-0.58-0.34-0.87-0.49c-0.29-0.16-0.59-0.31-0.89-0.45
	c-0.3-0.14-0.61-0.28-0.91-0.4s-0.62-0.25-0.93-0.36c-0.31-0.11-0.63-0.22-0.95-0.31c-0.32-0.1-0.64-0.19-0.96-0.27
	c-0.32-0.08-0.65-0.15-0.97-0.22s-0.65-0.12-0.98-0.17c-0.33-0.05-0.66-0.09-0.99-0.12s-0.66-0.06-1-0.07
	c-0.33-0.02-0.66-0.02-1-0.02c-0.33,0-0.67,0.01-1,0.02c-0.33,0.02-0.66,0.04-1,0.07s-0.66,0.07-0.99,0.12
	c-0.33,0.05-0.66,0.11-0.98,0.17c-0.33,0.06-0.65,0.14-0.97,0.22c-0.32,0.08-0.64,0.17-0.96,0.27c-0.32,0.1-0.63,0.2-0.95,0.31
	c-0.31,0.11-0.62,0.23-0.93,0.36c-0.31,0.13-0.61,0.26-0.91,0.4c-0.3,0.14-0.6,0.29-0.89,0.45c-0.29,0.16-0.58,0.32-0.87,0.49
	c-0.29,0.17-0.57,0.35-0.84,0.53c-0.28,0.19-0.55,0.38-0.82,0.58c-0.27,0.2-0.53,0.4-0.79,0.61c-0.26,0.21-0.51,0.43-0.76,0.65
	c-0.25,0.22-0.49,0.45-0.72,0.69l-0.01,0.01l-0.03-0.03c-0.24-0.23-0.48-0.46-0.73-0.68c-0.25-0.22-0.5-0.44-0.76-0.65
	c-0.26-0.21-0.52-0.41-0.79-0.61c-0.27-0.2-0.54-0.39-0.82-0.57c-0.28-0.18-0.56-0.36-0.84-0.53c-0.29-0.17-0.58-0.33-0.87-0.49
	c-0.29-0.15-0.59-0.3-0.89-0.44c-0.3-0.14-0.6-0.27-0.91-0.4c-0.31-0.13-0.62-0.24-0.93-0.35c-0.31-0.11-0.63-0.21-0.95-0.31
	c-0.32-0.1-0.64-0.18-0.96-0.26c-0.32-0.08-0.65-0.15-0.97-0.21c-0.33-0.06-0.65-0.12-0.98-0.17c-0.33-0.05-0.66-0.09-0.99-0.12
	c-0.33-0.03-0.66-0.05-0.99-0.07c-0.33-0.01-0.66-0.02-0.99-0.02c-0.33,0-0.66,0.01-0.99,0.03c-0.33,0.02-0.66,0.04-0.99,0.08
	c-0.33,0.03-0.66,0.08-0.99,0.12c-0.33,0.05-0.66,0.11-0.98,0.17c-0.33,0.06-0.65,0.14-0.97,0.22c-0.32,0.08-0.64,0.17-0.96,0.27
	s-0.63,0.2-0.94,0.31c-0.31,0.11-0.62,0.23-0.93,0.36c-0.31,0.13-0.61,0.26-0.91,0.4c-0.3,0.14-0.6,0.29-0.89,0.45
	c-0.29,0.16-0.58,0.32-0.87,0.49c-0.29,0.17-0.56,0.35-0.84,0.53c-0.28,0.18-0.55,0.38-0.81,0.57c-0.27,0.2-0.53,0.4-0.78,0.61
	c-0.26,0.21-0.51,0.43-0.75,0.65c-0.25,0.22-0.49,0.45-0.72,0.69c-0.24,0.23-0.46,0.48-0.69,0.72c-0.22,0.25-0.44,0.5-0.65,0.75
	c-0.21,0.26-0.41,0.52-0.61,0.78c-0.2,0.27-0.39,0.54-0.57,0.81c-0.18,0.28-0.36,0.56-0.53,0.84c-0.17,0.28-0.34,0.57-0.49,0.87
	c-0.16,0.29-0.31,0.59-0.45,0.89c-0.14,0.3-0.28,0.6-0.4,0.91c-0.13,0.31-0.25,0.62-0.36,0.93c-0.11,0.31-0.22,0.63-0.31,0.94
	c-0.1,0.32-0.19,0.64-0.27,0.96c-0.08,0.32-0.15,0.64-0.22,0.97c-0.06,0.33-0.12,0.65-0.17,0.98c-0.05,0.33-0.09,0.66-0.12,0.99
	c-0.03,0.33-0.06,0.66-0.08,0.99c-0.02,0.33-0.03,0.66-0.03,0.99c0,0.33,0.01,0.66,0.02,1c0.02,0.33,0.04,0.66,0.07,0.99
	s0.07,0.66,0.12,0.99c0.05,0.33,0.1,0.66,0.17,0.98c0.06,0.33,0.13,0.65,0.21,0.97c0.08,0.32,0.17,0.64,0.26,0.96
	c0.1,0.32,0.2,0.63,0.31,0.95c0.11,0.31,0.23,0.62,0.35,0.93c0.13,0.31,0.26,0.61,0.4,0.91c0.14,0.3,0.29,0.6,0.44,0.89
	c0.15,0.29,0.32,0.58,0.49,0.87c0.17,0.29,0.35,0.57,0.53,0.84c0.18,0.28,0.37,0.55,0.57,0.82c0.2,0.27,0.4,0.53,0.61,0.79
	s0.42,0.51,0.65,0.76s0.45,0.49,0.68,0.73l0.53,0.53l0.71,0.46c-0.03,0.36-0.02,0.71,0.05,1.06s0.18,0.69,0.33,1.01
	c0.16,0.32,0.35,0.62,0.59,0.88c0.24,0.27,0.51,0.5,0.81,0.69c0.3,0.19,0.62,0.34,0.96,0.45c0.34,0.1,0.69,0.16,1.05,0.17
	c0.36,0.01,0.71-0.03,1.06-0.12c0.35-0.09,0.67-0.22,0.98-0.4l0.23,0.16c-0.12,0.2-0.22,0.42-0.3,0.64
	c-0.08,0.22-0.14,0.45-0.19,0.68c-0.04,0.23-0.06,0.47-0.06,0.7c0,0.24,0.02,0.47,0.07,0.7c0.04,0.23,0.11,0.46,0.19,0.68
	s0.19,0.43,0.31,0.63s0.26,0.39,0.42,0.57c0.16,0.18,0.33,0.34,0.52,0.48c0.19,0.15,0.39,0.27,0.59,0.38
	c0.21,0.11,0.43,0.2,0.65,0.27c0.23,0.07,0.46,0.12,0.69,0.15c0.24,0.03,0.47,0.03,0.71,0.02c0.24-0.02,0.47-0.05,0.7-0.11
	c0.23-0.06,0.45-0.14,0.67-0.23c0.22-0.1,0.42-0.21,0.61-0.35c0.19-0.14,0.37-0.29,0.54-0.45l0.5-0.5l-0.5,0.49
	c-0.18,0.18-0.34,0.38-0.49,0.59c-0.14,0.21-0.26,0.44-0.36,0.68c-0.1,0.24-0.17,0.48-0.22,0.73s-0.08,0.51-0.08,0.76
	s0.02,0.51,0.07,0.76s0.12,0.5,0.22,0.73s0.22,0.46,0.36,0.68c0.14,0.21,0.3,0.41,0.49,0.59c0.18,0.18,0.38,0.34,0.59,0.49
	c0.21,0.14,0.44,0.26,0.68,0.36c0.24,0.1,0.48,0.17,0.73,0.22c0.25,0.05,0.51,0.08,0.76,0.08s0.51-0.03,0.76-0.08
	c0.25-0.05,0.5-0.12,0.73-0.22c0.24-0.1,0.46-0.22,0.68-0.36c0.21-0.14,0.41-0.3,0.59-0.49c-0.1,0.09-0.19,0.18-0.28,0.28
	s-0.17,0.2-0.25,0.31c-0.08,0.11-0.15,0.22-0.22,0.33c-0.07,0.11-0.13,0.23-0.18,0.35c-0.06,0.12-0.11,0.24-0.15,0.37
	c-0.04,0.13-0.08,0.25-0.11,0.38c-0.03,0.13-0.05,0.26-0.07,0.39c-0.02,0.13-0.03,0.26-0.03,0.4c0,0.13,0,0.26,0.01,0.4
	c0.01,0.13,0.03,0.26,0.05,0.39c0.02,0.13,0.05,0.26,0.09,0.39c0.04,0.13,0.08,0.25,0.13,0.38c0.05,0.12,0.1,0.24,0.17,0.36
	c0.06,0.12,0.13,0.23,0.2,0.34s0.15,0.22,0.24,0.32c0.08,0.1,0.17,0.2,0.27,0.29c0.09,0.09,0.19,0.18,0.29,0.27
	c0.1,0.08,0.21,0.16,0.32,0.24c0.11,0.07,0.22,0.14,0.34,0.2c0.12,0.06,0.24,0.12,0.36,0.17c0.12,0.05,0.25,0.09,0.38,0.13
	c0.13,0.04,0.26,0.07,0.39,0.09c0.13,0.02,0.26,0.04,0.39,0.05c0.13,0.01,0.26,0.01,0.4,0.01c0.13,0,0.26-0.01,0.4-0.03
	s0.26-0.04,0.39-0.07c0.13-0.03,0.26-0.07,0.38-0.11c0.13-0.04,0.25-0.09,0.37-0.15c0.12-0.06,0.24-0.12,0.35-0.19
	c0.11-0.07,0.22-0.14,0.33-0.22c0.11-0.08,0.21-0.16,0.31-0.25c0.1-0.09,0.19-0.18,0.28-0.28l2.43-2.43
	c0.15-0.16,0.29-0.32,0.42-0.5l0.45,0.29L44.61,78c0.18,0.18,0.38,0.34,0.59,0.49s0.44,0.26,0.68,0.36c0.24,0.1,0.48,0.17,0.73,0.22
	c0.25,0.05,0.51,0.07,0.76,0.07c0.26,0,0.51-0.02,0.76-0.07c0.25-0.05,0.5-0.12,0.73-0.22c0.24-0.1,0.46-0.22,0.68-0.36
	c0.21-0.14,0.41-0.3,0.59-0.49c0.18-0.18,0.34-0.38,0.49-0.59c0.14-0.21,0.26-0.44,0.36-0.68c0.1-0.24,0.17-0.48,0.22-0.73
	c0.05-0.25,0.07-0.51,0.07-0.76s-0.02-0.51-0.07-0.76c-0.05-0.25-0.12-0.5-0.22-0.73c-0.1-0.24-0.22-0.46-0.36-0.68
	c-0.14-0.21-0.3-0.41-0.49-0.59l-5.88-5.88l0.05-0.05l5.88,5.88c0.18,0.18,0.38,0.34,0.59,0.49c0.21,0.14,0.44,0.26,0.68,0.36
	c0.24,0.1,0.48,0.17,0.73,0.22c0.25,0.05,0.51,0.07,0.76,0.07c0.26,0,0.51-0.02,0.76-0.07c0.25-0.05,0.5-0.12,0.73-0.22
	c0.24-0.1,0.46-0.22,0.68-0.36c0.21-0.14,0.41-0.3,0.59-0.49c0.18-0.18,0.34-0.38,0.49-0.59c0.14-0.21,0.26-0.44,0.36-0.68
	c0.1-0.24,0.17-0.48,0.22-0.73c0.05-0.25,0.07-0.51,0.07-0.76s-0.02-0.51-0.07-0.76c-0.05-0.25-0.12-0.5-0.22-0.73
	c-0.1-0.24-0.22-0.46-0.36-0.68c-0.14-0.21-0.3-0.41-0.49-0.59l-5.88-5.88l5.88,5.88c0.19,0.17,0.38,0.31,0.6,0.44
	c0.21,0.13,0.44,0.24,0.67,0.32c0.23,0.09,0.47,0.15,0.72,0.19c0.24,0.04,0.49,0.06,0.74,0.05c0.25-0.01,0.49-0.04,0.74-0.09
	c0.24-0.05,0.48-0.13,0.71-0.23c0.23-0.1,0.44-0.22,0.65-0.36c0.21-0.14,0.4-0.3,0.57-0.47c0.18-0.18,0.33-0.37,0.47-0.57
	c0.14-0.21,0.26-0.42,0.36-0.65c0.1-0.23,0.17-0.46,0.23-0.71c0.05-0.24,0.08-0.49,0.09-0.74c0.01-0.25-0.01-0.49-0.05-0.74
	c-0.04-0.24-0.1-0.48-0.19-0.72c-0.09-0.23-0.19-0.46-0.32-0.67c-0.13-0.21-0.28-0.41-0.44-0.59c0.15,0.15,0.31,0.28,0.48,0.41
	c0.17,0.12,0.35,0.23,0.54,0.33c0.19,0.09,0.38,0.17,0.58,0.24c0.2,0.06,0.4,0.11,0.61,0.14c0.21,0.03,0.42,0.04,0.63,0.04
	c0.21,0,0.42-0.02,0.62-0.06c0.21-0.04,0.41-0.09,0.61-0.16c0.2-0.07,0.39-0.15,0.57-0.26c0.18-0.1,0.36-0.21,0.53-0.34
	c0.17-0.13,0.32-0.27,0.46-0.42c0.14-0.15,0.27-0.32,0.39-0.49c0.12-0.17,0.22-0.36,0.3-0.55c0.09-0.19,0.16-0.39,0.21-0.59
	c0.05-0.2,0.09-0.41,0.12-0.62c0.02-0.21,0.03-0.42,0.02-0.63c-0.01-0.21-0.04-0.42-0.08-0.62l0.48,1.6l2.74-2.74
	c0.24-0.24,0.46-0.48,0.69-0.72c0.22-0.25,0.44-0.5,0.65-0.76c0.21-0.26,0.42-0.52,0.61-0.79c0.2-0.27,0.39-0.54,0.58-0.82
	c0.19-0.28,0.36-0.56,0.53-0.84c0.17-0.29,0.34-0.58,0.49-0.87c0.16-0.29,0.31-0.59,0.45-0.89c0.14-0.3,0.28-0.6,0.4-0.91
	c0.13-0.31,0.25-0.62,0.36-0.93c0.11-0.31,0.22-0.63,0.31-0.95c0.1-0.32,0.19-0.64,0.27-0.96c0.08-0.32,0.15-0.65,0.22-0.97
	c0.06-0.33,0.12-0.65,0.17-0.98c0.05-0.33,0.09-0.66,0.12-0.99c0.03-0.33,0.06-0.66,0.07-1c0.02-0.33,0.02-0.67,0.02-1
	c0-0.33-0.01-0.67-0.02-1c-0.02-0.33-0.04-0.67-0.07-1c-0.03-0.33-0.07-0.66-0.12-0.99c-0.05-0.33-0.11-0.66-0.17-0.98
	c-0.07-0.33-0.14-0.65-0.22-0.97c-0.08-0.32-0.17-0.64-0.27-0.96c-0.1-0.32-0.2-0.63-0.31-0.95c-0.11-0.31-0.23-0.62-0.36-0.93
	c-0.13-0.31-0.26-0.61-0.4-0.91c-0.14-0.3-0.29-0.6-0.45-0.89c-0.16-0.29-0.32-0.58-0.49-0.87c-0.17-0.29-0.35-0.57-0.53-0.84
	c-0.19-0.28-0.38-0.55-0.58-0.82c-0.2-0.27-0.4-0.53-0.61-0.79c-0.21-0.26-0.43-0.51-0.65-0.76C71.51,28.33,71.28,28.09,71.05,27.85
	z"/>
<path d="M47.37,79.43c-0.56,0-1.09-0.11-1.61-0.32c-0.51-0.21-0.97-0.52-1.36-0.91l-3.33-3.32L13.85,57.39
	c-0.02-0.01-0.03-0.02-0.05-0.04l-0.53-0.53c-0.24-0.24-0.47-0.48-0.7-0.73c-0.23-0.25-0.45-0.51-0.66-0.77
	c-0.21-0.26-0.42-0.53-0.62-0.8c-0.2-0.27-0.39-0.55-0.58-0.83c-0.19-0.28-0.37-0.57-0.54-0.86c-0.17-0.29-0.34-0.58-0.5-0.88
	c-0.16-0.3-0.31-0.6-0.45-0.9c-0.15-0.31-0.28-0.61-0.41-0.93c-0.13-0.31-0.25-0.63-0.36-0.95c-0.11-0.32-0.22-0.64-0.32-0.96
	c-0.1-0.32-0.19-0.65-0.27-0.98c-0.08-0.33-0.16-0.66-0.22-0.99c-0.07-0.33-0.12-0.66-0.17-1c-0.05-0.33-0.09-0.67-0.12-1.01
	c-0.03-0.34-0.06-0.67-0.07-1.01c-0.02-0.34-0.03-0.68-0.03-1.01c0-0.34,0.01-0.68,0.03-1.01c0.02-0.34,0.04-0.67,0.07-1.01
	s0.07-0.67,0.12-1.01c0.05-0.33,0.11-0.67,0.17-1c0.07-0.33,0.14-0.66,0.22-0.99c0.08-0.33,0.17-0.65,0.27-0.98
	c0.1-0.32,0.2-0.64,0.32-0.96c0.11-0.32,0.24-0.63,0.36-0.94c0.13-0.31,0.27-0.62,0.41-0.93c0.14-0.31,0.3-0.61,0.45-0.91
	c0.16-0.3,0.33-0.59,0.5-0.88c0.17-0.29,0.35-0.58,0.54-0.86c0.19-0.28,0.38-0.56,0.58-0.83c0.2-0.27,0.41-0.54,0.62-0.8
	c0.21-0.26,0.44-0.52,0.66-0.77c0.23-0.25,0.46-0.49,0.7-0.73c0.24-0.24,0.48-0.47,0.73-0.7c0.25-0.23,0.51-0.45,0.77-0.66
	c0.26-0.21,0.53-0.42,0.8-0.62c0.27-0.2,0.55-0.4,0.83-0.58c0.28-0.19,0.57-0.37,0.86-0.54c0.29-0.17,0.58-0.34,0.88-0.5
	c0.3-0.16,0.6-0.31,0.91-0.46c0.3-0.15,0.61-0.28,0.93-0.41c0.31-0.13,0.63-0.25,0.94-0.36c0.32-0.11,0.64-0.22,0.96-0.32
	c0.32-0.1,0.65-0.19,0.98-0.27c0.33-0.08,0.66-0.16,0.99-0.22c0.33-0.07,0.66-0.12,1-0.17c0.33-0.05,0.67-0.09,1.01-0.12
	c0.34-0.03,0.67-0.06,1.01-0.07c0.34-0.02,0.68-0.02,1.01-0.02s0.68,0.01,1.01,0.02c0.34,0.02,0.67,0.04,1.01,0.07
	c0.34,0.03,0.67,0.07,1.01,0.12c0.33,0.05,0.67,0.11,1,0.17c0.33,0.07,0.66,0.14,0.99,0.22c0.33,0.08,0.65,0.17,0.98,0.27
	c0.32,0.1,0.64,0.2,0.96,0.32c0.32,0.11,0.63,0.24,0.94,0.36c0.31,0.13,0.62,0.27,0.93,0.41c0.31,0.14,0.61,0.3,0.91,0.46
	c0.3,0.16,0.59,0.33,0.88,0.5c0.29,0.17,0.58,0.35,0.86,0.54c0.28,0.19,0.56,0.38,0.83,0.58c0.27,0.2,0.54,0.41,0.8,0.62
	c0.26,0.21,0.52,0.43,0.77,0.66c0.25,0.23,0.49,0.46,0.73,0.7l0.05,0.05c0.01,0.01,0.02,0.02,0.03,0.04l8.55,12.01l15.9,15.9
	c0.17,0.17,0.33,0.36,0.47,0.55c0.14,0.2,0.26,0.41,0.37,0.63c0.1,0.22,0.19,0.45,0.25,0.68c0.06,0.24,0.11,0.47,0.13,0.72
	c0.02,0.24,0.03,0.48,0.01,0.73c-0.02,0.24-0.06,0.48-0.12,0.72c-0.06,0.24-0.14,0.46-0.24,0.69c-0.1,0.22-0.22,0.43-0.36,0.63
	c-0.14,0.2-0.29,0.39-0.46,0.56c-0.17,0.17-0.35,0.33-0.55,0.48c-0.2,0.14-0.41,0.27-0.62,0.37c-0.22,0.11-0.44,0.19-0.68,0.26
	c-0.23,0.07-0.47,0.11-0.71,0.14c-0.24,0.03-0.48,0.03-0.73,0.01c-0.24-0.02-0.48-0.05-0.72-0.11c-0.24-0.06-0.47-0.14-0.69-0.23
	c0.08,0.19,0.15,0.39,0.2,0.59c0.05,0.2,0.09,0.41,0.11,0.62c0.02,0.21,0.03,0.42,0.02,0.63c-0.01,0.21-0.03,0.42-0.07,0.62
	c-0.04,0.21-0.09,0.41-0.16,0.6c-0.07,0.2-0.15,0.39-0.25,0.57c-0.1,0.19-0.21,0.36-0.33,0.53c-0.12,0.17-0.26,0.33-0.41,0.47
	c-0.15,0.15-0.31,0.28-0.48,0.41c-0.17,0.12-0.35,0.24-0.53,0.33c-0.19,0.1-0.38,0.18-0.57,0.25c-0.2,0.07-0.4,0.12-0.6,0.16
	c-0.21,0.04-0.41,0.06-0.62,0.07c-0.21,0.01-0.42,0-0.63-0.02c-0.21-0.02-0.41-0.06-0.62-0.12c-0.2-0.05-0.4-0.12-0.59-0.21
	c0.08,0.19,0.15,0.39,0.21,0.6s0.09,0.41,0.12,0.62c0.02,0.21,0.03,0.42,0.02,0.63c-0.01,0.21-0.03,0.42-0.08,0.63
	c-0.04,0.21-0.1,0.41-0.17,0.61c-0.07,0.2-0.16,0.39-0.26,0.58c-0.1,0.19-0.22,0.36-0.34,0.53c-0.13,0.17-0.27,0.33-0.42,0.48
	s-0.31,0.28-0.48,0.41c-0.17,0.12-0.35,0.23-0.54,0.33c-0.19,0.1-0.38,0.18-0.58,0.24c-0.2,0.07-0.41,0.12-0.61,0.15
	c-0.21,0.04-0.42,0.06-0.63,0.06c-0.21,0-0.42-0.01-0.63-0.04c-0.21-0.03-0.42-0.07-0.62-0.13c-0.2-0.06-0.4-0.13-0.59-0.22
	c0.07,0.16,0.14,0.32,0.19,0.49c0.05,0.17,0.1,0.34,0.13,0.51c0.03,0.17,0.05,0.35,0.06,0.52c0.01,0.18,0.01,0.35,0,0.53
	c-0.01,0.18-0.03,0.35-0.07,0.52c-0.03,0.17-0.08,0.34-0.13,0.51c-0.05,0.17-0.12,0.33-0.2,0.49c-0.07,0.16-0.16,0.31-0.25,0.46
	c-0.09,0.15-0.2,0.29-0.31,0.42c-0.11,0.14-0.23,0.26-0.36,0.38c-0.13,0.12-0.26,0.23-0.41,0.33s-0.29,0.2-0.44,0.28
	c-0.15,0.08-0.31,0.16-0.48,0.22c-0.16,0.06-0.33,0.12-0.5,0.16c-0.17,0.04-0.34,0.08-0.52,0.1C47.72,79.42,47.54,79.43,47.37,79.43
	L47.37,79.43z M14.19,56.91l27.23,17.5c0.02,0.01,0.03,0.03,0.05,0.04l3.34,3.34c0.17,0.17,0.35,0.32,0.55,0.45
	c0.2,0.13,0.41,0.24,0.63,0.33c0.22,0.09,0.45,0.16,0.68,0.21c0.23,0.05,0.47,0.07,0.71,0.07c0.24,0,0.47-0.02,0.71-0.07
	c0.23-0.05,0.46-0.12,0.68-0.21c0.22-0.09,0.43-0.2,0.63-0.33c0.2-0.13,0.38-0.28,0.55-0.45c0.17-0.17,0.32-0.35,0.45-0.55
	c0.13-0.2,0.24-0.41,0.34-0.63c0.09-0.22,0.16-0.45,0.21-0.68s0.07-0.47,0.07-0.71c0-0.24-0.02-0.47-0.07-0.71s-0.11-0.46-0.21-0.68
	c-0.09-0.22-0.2-0.43-0.34-0.63c-0.13-0.2-0.28-0.38-0.45-0.55l-5.87-5.88c-0.03-0.03-0.05-0.06-0.06-0.1
	c-0.01-0.04-0.02-0.07-0.02-0.11c0-0.04,0.01-0.08,0.02-0.11c0.01-0.04,0.04-0.07,0.06-0.1l0.05-0.05c0.03-0.03,0.06-0.05,0.09-0.06
	c0.04-0.01,0.07-0.02,0.11-0.02c0.04,0,0.08,0.01,0.11,0.02c0.04,0.01,0.07,0.04,0.1,0.06l5.87,5.88c0.17,0.17,0.35,0.33,0.55,0.46
	c0.2,0.14,0.41,0.25,0.63,0.35c0.22,0.1,0.45,0.17,0.68,0.22c0.24,0.05,0.47,0.08,0.71,0.08c0.24,0,0.48-0.02,0.71-0.06
	c0.24-0.05,0.47-0.11,0.69-0.2s0.43-0.2,0.63-0.34s0.39-0.29,0.56-0.45c0.17-0.17,0.32-0.35,0.45-0.56c0.13-0.2,0.25-0.41,0.34-0.63
	c0.09-0.22,0.16-0.45,0.2-0.69c0.05-0.24,0.07-0.47,0.06-0.71c0-0.24-0.03-0.48-0.08-0.71c-0.05-0.24-0.12-0.46-0.22-0.68
	c-0.1-0.22-0.21-0.43-0.35-0.63c-0.14-0.2-0.29-0.38-0.46-0.55l-5.88-5.88c-0.03-0.03-0.05-0.06-0.07-0.1
	c-0.02-0.04-0.03-0.07-0.03-0.11s0-0.08,0.02-0.12c0.01-0.04,0.04-0.07,0.06-0.1c0.03-0.03,0.06-0.05,0.1-0.06
	c0.04-0.02,0.08-0.02,0.12-0.02c0.04,0,0.08,0.01,0.11,0.03c0.04,0.02,0.07,0.04,0.1,0.07l5.88,5.87c0.17,0.17,0.35,0.32,0.55,0.45
	c0.2,0.13,0.41,0.24,0.63,0.33c0.22,0.09,0.45,0.16,0.68,0.21c0.23,0.05,0.47,0.07,0.71,0.07c0.24,0,0.47-0.02,0.71-0.07
	c0.23-0.05,0.46-0.12,0.68-0.21c0.22-0.09,0.43-0.2,0.63-0.34c0.2-0.13,0.38-0.28,0.55-0.45c0.17-0.17,0.32-0.35,0.45-0.55
	c0.13-0.2,0.24-0.41,0.34-0.63c0.09-0.22,0.16-0.45,0.21-0.68c0.05-0.23,0.07-0.47,0.07-0.71c0-0.24-0.02-0.47-0.07-0.71
	c-0.05-0.23-0.11-0.46-0.21-0.68c-0.09-0.22-0.2-0.43-0.33-0.63c-0.13-0.2-0.28-0.38-0.45-0.55l-5.88-5.88
	c-0.03-0.03-0.05-0.06-0.07-0.09c-0.02-0.04-0.03-0.08-0.03-0.12c0-0.04,0.01-0.08,0.02-0.12c0.01-0.04,0.04-0.07,0.07-0.1
	c0.03-0.03,0.06-0.05,0.1-0.06c0.04-0.01,0.08-0.02,0.12-0.02c0.04,0,0.08,0.01,0.11,0.03c0.04,0.02,0.07,0.04,0.1,0.07l5.88,5.88
	c0.17,0.17,0.35,0.32,0.55,0.45c0.2,0.13,0.41,0.24,0.63,0.33c0.22,0.09,0.45,0.16,0.68,0.21c0.23,0.05,0.47,0.07,0.71,0.07
	c0.24,0,0.47-0.02,0.71-0.07c0.23-0.05,0.46-0.12,0.68-0.21c0.22-0.09,0.43-0.2,0.62-0.33c0.2-0.13,0.38-0.28,0.55-0.45
	c0.17-0.17,0.32-0.35,0.45-0.55c0.13-0.2,0.24-0.41,0.33-0.63c0.09-0.22,0.16-0.44,0.21-0.68c0.05-0.23,0.07-0.47,0.07-0.71
	c0-0.24-0.02-0.47-0.07-0.71c-0.05-0.23-0.11-0.46-0.2-0.68c-0.09-0.22-0.2-0.43-0.33-0.63c-0.13-0.2-0.28-0.38-0.45-0.55
	L50.65,40.11c-0.01-0.01-0.02-0.02-0.03-0.04l-8.55-12l-0.03-0.03c-0.23-0.23-0.47-0.46-0.71-0.68c-0.24-0.22-0.49-0.43-0.75-0.64
	c-0.25-0.21-0.51-0.41-0.78-0.61c-0.26-0.19-0.53-0.38-0.8-0.57c-0.27-0.18-0.55-0.36-0.83-0.53c-0.28-0.17-0.57-0.33-0.86-0.48
	c-0.29-0.15-0.58-0.3-0.88-0.44c-0.3-0.14-0.6-0.27-0.9-0.4c-0.3-0.13-0.61-0.24-0.92-0.35c-0.31-0.11-0.62-0.21-0.93-0.31
	c-0.31-0.1-0.63-0.18-0.95-0.26c-0.32-0.08-0.64-0.15-0.96-0.22c-0.32-0.06-0.64-0.12-0.97-0.17c-0.33-0.05-0.65-0.09-0.98-0.12
	c-0.33-0.03-0.65-0.06-0.98-0.07c-0.33-0.02-0.66-0.02-0.98-0.02c-0.33,0-0.66,0.01-0.98,0.02c-0.33,0.02-0.66,0.04-0.98,0.07
	s-0.65,0.07-0.98,0.12c-0.32,0.05-0.65,0.1-0.97,0.17c-0.32,0.06-0.64,0.14-0.96,0.22c-0.32,0.08-0.63,0.17-0.95,0.26
	c-0.31,0.1-0.63,0.2-0.93,0.31c-0.31,0.11-0.61,0.23-0.92,0.35c-0.3,0.13-0.6,0.26-0.9,0.4c-0.3,0.14-0.59,0.29-0.88,0.44
	c-0.29,0.15-0.58,0.32-0.86,0.48c-0.28,0.17-0.56,0.34-0.83,0.53c-0.27,0.18-0.54,0.37-0.8,0.57c-0.26,0.2-0.52,0.4-0.78,0.61
	c-0.25,0.21-0.5,0.42-0.75,0.64s-0.48,0.45-0.71,0.68s-0.46,0.47-0.68,0.71c-0.22,0.24-0.43,0.49-0.64,0.75
	c-0.21,0.25-0.41,0.51-0.61,0.78c-0.19,0.26-0.38,0.53-0.57,0.8s-0.36,0.55-0.53,0.83c-0.17,0.28-0.33,0.57-0.48,0.86
	c-0.15,0.29-0.3,0.58-0.44,0.88c-0.14,0.3-0.27,0.6-0.4,0.9c-0.13,0.3-0.24,0.61-0.35,0.92c-0.11,0.31-0.21,0.62-0.31,0.93
	c-0.1,0.31-0.18,0.63-0.26,0.95c-0.08,0.32-0.15,0.64-0.22,0.96c-0.06,0.32-0.12,0.64-0.17,0.97c-0.05,0.32-0.09,0.65-0.12,0.98
	c-0.03,0.33-0.06,0.65-0.07,0.98c-0.02,0.33-0.02,0.66-0.02,0.98c0,0.33,0.01,0.66,0.02,0.98c0.02,0.33,0.04,0.65,0.07,0.98
	c0.03,0.33,0.07,0.65,0.12,0.98c0.05,0.33,0.1,0.65,0.17,0.97c0.06,0.32,0.14,0.64,0.22,0.96c0.08,0.32,0.17,0.63,0.26,0.95
	c0.1,0.31,0.2,0.63,0.31,0.93c0.11,0.31,0.23,0.62,0.35,0.92c0.13,0.3,0.26,0.6,0.4,0.9c0.14,0.3,0.29,0.59,0.44,0.88
	c0.15,0.29,0.32,0.57,0.49,0.86c0.17,0.28,0.34,0.56,0.53,0.83c0.18,0.27,0.37,0.54,0.57,0.8c0.2,0.26,0.4,0.52,0.61,0.78
	c0.21,0.25,0.42,0.5,0.64,0.75c0.22,0.24,0.45,0.48,0.68,0.71L14.19,56.91z"/>
<path class="st2" d="M56.01,36.31l-1.15,1.15c-0.39,0.39-0.81,0.73-1.26,1.04c-0.46,0.3-0.94,0.56-1.44,0.77
	c-0.51,0.21-1.03,0.37-1.56,0.48c-0.54,0.11-1.08,0.16-1.63,0.16H43.4l-4.26,4.26c-0.11,0.11-0.22,0.21-0.34,0.31
	c-0.12,0.1-0.24,0.19-0.37,0.27c-0.13,0.09-0.26,0.16-0.39,0.24c-0.13,0.07-0.27,0.14-0.41,0.19c-0.14,0.06-0.28,0.11-0.43,0.15
	c-0.15,0.04-0.29,0.08-0.44,0.11c-0.15,0.03-0.3,0.05-0.45,0.07c-0.15,0.01-0.3,0.02-0.46,0.02c-0.15,0-0.3-0.01-0.46-0.02
	c-0.15-0.01-0.3-0.04-0.45-0.07c-0.15-0.03-0.3-0.07-0.44-0.11c-0.15-0.04-0.29-0.1-0.43-0.15c-0.14-0.06-0.28-0.12-0.41-0.19
	c-0.14-0.07-0.27-0.15-0.39-0.24c-0.13-0.08-0.25-0.18-0.37-0.27c-0.12-0.1-0.23-0.2-0.34-0.31c-0.11-0.11-0.21-0.22-0.31-0.34
	s-0.19-0.24-0.27-0.37c-0.08-0.13-0.16-0.26-0.24-0.39c-0.07-0.14-0.14-0.27-0.19-0.41c-0.06-0.14-0.11-0.28-0.15-0.43
	c-0.04-0.15-0.08-0.29-0.11-0.44c-0.03-0.15-0.05-0.3-0.07-0.45c-0.02-0.15-0.02-0.3-0.02-0.46c0-0.15,0.01-0.3,0.02-0.46
	c0.01-0.15,0.04-0.3,0.07-0.45c0.03-0.15,0.07-0.3,0.11-0.44c0.05-0.15,0.1-0.29,0.15-0.43c0.06-0.14,0.12-0.28,0.19-0.41
	c0.07-0.14,0.15-0.27,0.24-0.39c0.09-0.13,0.18-0.25,0.27-0.37s0.2-0.23,0.31-0.34l9.72-9.72c0.24-0.24,0.48-0.47,0.72-0.69
	c0.25-0.22,0.5-0.44,0.76-0.65c0.26-0.21,0.52-0.42,0.79-0.61c0.27-0.2,0.54-0.39,0.82-0.58c0.28-0.18,0.56-0.36,0.84-0.53
	c0.29-0.17,0.58-0.34,0.87-0.49c0.29-0.16,0.59-0.31,0.89-0.45c0.3-0.14,0.61-0.28,0.91-0.4c0.31-0.13,0.62-0.25,0.93-0.36
	c0.31-0.11,0.63-0.22,0.95-0.31c0.32-0.1,0.64-0.19,0.96-0.27c0.32-0.08,0.65-0.15,0.97-0.22c0.33-0.06,0.65-0.12,0.98-0.17
	c0.33-0.05,0.66-0.09,0.99-0.12s0.66-0.06,1-0.07c0.33-0.02,0.67-0.02,1-0.02c0.33,0,0.67,0.01,1,0.02c0.33,0.02,0.67,0.04,1,0.07
	s0.66,0.07,0.99,0.12c0.33,0.05,0.66,0.11,0.98,0.17s0.65,0.14,0.97,0.22c0.32,0.08,0.64,0.17,0.96,0.27
	c0.32,0.1,0.63,0.2,0.95,0.31c0.31,0.11,0.62,0.23,0.93,0.36s0.61,0.26,0.91,0.4c0.3,0.14,0.6,0.29,0.89,0.45
	c0.29,0.16,0.58,0.32,0.87,0.49c0.29,0.17,0.57,0.35,0.84,0.53c0.28,0.19,0.55,0.38,0.82,0.58c0.27,0.2,0.53,0.4,0.79,0.61
	c0.26,0.21,0.51,0.43,0.76,0.65s0.49,0.45,0.72,0.69s0.47,0.48,0.69,0.72c0.22,0.25,0.44,0.5,0.65,0.76
	c0.21,0.26,0.42,0.52,0.61,0.79c0.2,0.27,0.39,0.54,0.57,0.82c0.19,0.28,0.36,0.56,0.53,0.84c0.17,0.29,0.34,0.58,0.49,0.87
	c0.16,0.29,0.31,0.59,0.45,0.89c0.14,0.3,0.28,0.61,0.4,0.91c0.13,0.31,0.25,0.62,0.36,0.93c0.11,0.31,0.22,0.63,0.31,0.95
	c0.1,0.32,0.19,0.64,0.27,0.96c0.08,0.32,0.15,0.65,0.22,0.97c0.06,0.33,0.12,0.65,0.17,0.98c0.05,0.33,0.09,0.66,0.12,0.99
	c0.03,0.33,0.06,0.66,0.07,1c0.02,0.33,0.02,0.67,0.02,1s-0.01,0.67-0.02,1c-0.02,0.33-0.04,0.66-0.07,1
	c-0.03,0.33-0.07,0.66-0.12,0.99c-0.05,0.33-0.11,0.66-0.17,0.98c-0.07,0.33-0.14,0.65-0.22,0.97c-0.08,0.32-0.17,0.64-0.27,0.96
	c-0.1,0.32-0.2,0.63-0.31,0.95c-0.11,0.31-0.23,0.62-0.36,0.93c-0.13,0.31-0.26,0.61-0.4,0.91c-0.14,0.3-0.29,0.6-0.45,0.89
	c-0.16,0.29-0.32,0.58-0.49,0.87c-0.17,0.29-0.35,0.57-0.53,0.84c-0.18,0.28-0.38,0.55-0.57,0.82c-0.2,0.27-0.4,0.53-0.61,0.79
	c-0.21,0.26-0.43,0.51-0.65,0.76c-0.22,0.25-0.45,0.49-0.69,0.72l-2.74,2.74l-0.67-2.22L49.85,39.86 M40.4,69.34
	c-0.18-0.18-0.38-0.34-0.59-0.49c-0.21-0.14-0.44-0.26-0.68-0.36s-0.48-0.17-0.73-0.22c-0.25-0.05-0.51-0.08-0.76-0.08
	c-0.26,0-0.51,0.03-0.76,0.08c-0.25,0.05-0.5,0.12-0.73,0.22c-0.24,0.1-0.46,0.22-0.68,0.36c-0.21,0.14-0.41,0.3-0.59,0.49
	c0.18-0.18,0.33-0.38,0.47-0.59c0.14-0.21,0.25-0.44,0.35-0.67c0.1-0.24,0.17-0.48,0.21-0.73s0.07-0.5,0.07-0.76
	c0-0.25-0.03-0.51-0.08-0.75c-0.05-0.25-0.13-0.49-0.22-0.73c-0.1-0.23-0.22-0.46-0.36-0.67c-0.14-0.21-0.3-0.41-0.48-0.59
	c-0.18-0.18-0.38-0.34-0.59-0.48c-0.21-0.14-0.43-0.26-0.67-0.36c-0.23-0.1-0.48-0.17-0.73-0.22c-0.25-0.05-0.5-0.08-0.75-0.08
	c-0.25,0-0.51,0.02-0.76,0.07s-0.49,0.12-0.73,0.21c-0.24,0.09-0.46,0.21-0.67,0.35c-0.21,0.14-0.41,0.29-0.59,0.47l-2.43,2.43
	c-0.18,0.18-0.34,0.38-0.49,0.59c-0.14,0.21-0.26,0.44-0.36,0.68c-0.1,0.24-0.17,0.48-0.22,0.73s-0.08,0.51-0.08,0.76
	s0.03,0.51,0.08,0.76c0.05,0.25,0.12,0.5,0.22,0.73c0.1,0.24,0.22,0.46,0.36,0.68c0.14,0.21,0.3,0.41,0.49,0.59
	c0.18,0.18,0.38,0.34,0.59,0.49c0.21,0.14,0.44,0.26,0.68,0.36c0.24,0.1,0.48,0.17,0.73,0.22s0.51,0.08,0.76,0.08
	c0.26,0,0.51-0.02,0.76-0.07c0.25-0.05,0.5-0.12,0.73-0.22c0.24-0.1,0.46-0.22,0.68-0.36c0.21-0.14,0.41-0.3,0.59-0.49
	c-0.1,0.09-0.19,0.18-0.27,0.28c-0.09,0.1-0.17,0.2-0.24,0.31c-0.08,0.11-0.15,0.22-0.21,0.33s-0.12,0.23-0.18,0.35
	s-0.1,0.24-0.14,0.36c-0.04,0.12-0.07,0.25-0.1,0.38c-0.03,0.13-0.05,0.26-0.06,0.39c-0.01,0.13-0.02,0.26-0.03,0.39
	c0,0.13,0,0.26,0.01,0.39c0.01,0.13,0.03,0.26,0.05,0.39c0.02,0.13,0.05,0.25,0.09,0.38c0.04,0.13,0.08,0.25,0.13,0.37
	c0.05,0.12,0.1,0.24,0.16,0.35c0.06,0.12,0.13,0.23,0.2,0.34C31.93,76.9,32,77,32.09,77.1c0.08,0.1,0.17,0.2,0.26,0.29
	c0.09,0.09,0.19,0.18,0.29,0.26c0.1,0.08,0.21,0.16,0.32,0.23c0.11,0.07,0.22,0.14,0.34,0.2c0.12,0.06,0.23,0.12,0.35,0.16
	c0.12,0.05,0.24,0.09,0.37,0.13c0.13,0.04,0.25,0.07,0.38,0.09c0.13,0.02,0.26,0.04,0.39,0.05c0.13,0.01,0.26,0.02,0.39,0.01
	c0.13,0,0.26-0.01,0.39-0.03c0.13-0.01,0.26-0.04,0.39-0.06c0.13-0.03,0.25-0.06,0.38-0.1c0.12-0.04,0.25-0.09,0.37-0.14
	c0.12-0.05,0.24-0.11,0.35-0.18c0.11-0.06,0.22-0.13,0.33-0.21c0.11-0.08,0.21-0.16,0.31-0.24c0.1-0.09,0.19-0.18,0.28-0.27
	l2.43-2.43c0.18-0.18,0.34-0.38,0.49-0.59c0.14-0.21,0.26-0.44,0.36-0.68c0.1-0.24,0.17-0.48,0.22-0.73
	c0.05-0.25,0.08-0.51,0.08-0.76c0-0.26-0.02-0.51-0.07-0.76c-0.05-0.25-0.12-0.5-0.22-0.73c-0.1-0.24-0.22-0.46-0.36-0.68
	C40.74,69.72,40.58,69.53,40.4,69.34z M29.34,63.82c0.18-0.18,0.34-0.38,0.49-0.59c0.14-0.21,0.26-0.44,0.36-0.68
	c0.1-0.24,0.17-0.48,0.22-0.73c0.05-0.25,0.08-0.51,0.08-0.76c0-0.26-0.02-0.51-0.07-0.76c-0.05-0.25-0.12-0.5-0.22-0.73
	c-0.1-0.24-0.22-0.46-0.36-0.68c-0.14-0.21-0.31-0.41-0.49-0.59c-0.18-0.18-0.38-0.34-0.59-0.49c-0.21-0.14-0.44-0.26-0.68-0.36
	c-0.24-0.1-0.48-0.17-0.73-0.22c-0.25-0.05-0.51-0.08-0.76-0.08c-0.26,0-0.51,0.03-0.76,0.08c-0.25,0.05-0.5,0.12-0.73,0.22
	c-0.24,0.1-0.46,0.22-0.68,0.36c-0.21,0.14-0.41,0.31-0.59,0.49c0.18-0.18,0.34-0.38,0.49-0.59c0.14-0.21,0.26-0.44,0.36-0.68
	c0.1-0.24,0.17-0.48,0.22-0.73s0.07-0.51,0.07-0.76s-0.02-0.51-0.07-0.76s-0.12-0.5-0.22-0.73c-0.1-0.24-0.22-0.46-0.36-0.68
	c-0.14-0.21-0.3-0.41-0.49-0.59c-0.18-0.18-0.38-0.34-0.59-0.49c-0.21-0.14-0.44-0.26-0.68-0.36c-0.24-0.1-0.48-0.17-0.73-0.22
	c-0.25-0.05-0.51-0.08-0.76-0.08c-0.26,0-0.51,0.03-0.76,0.08c-0.25,0.05-0.5,0.12-0.73,0.22s-0.46,0.22-0.68,0.36
	c-0.21,0.14-0.41,0.3-0.59,0.49l-2.43,2.43c-0.18,0.18-0.33,0.38-0.47,0.59c-0.14,0.21-0.25,0.44-0.35,0.67
	c-0.1,0.24-0.17,0.48-0.21,0.73c-0.05,0.25-0.07,0.5-0.07,0.76c0,0.25,0.03,0.51,0.08,0.75c0.05,0.25,0.13,0.49,0.22,0.73
	c0.1,0.23,0.22,0.46,0.36,0.67c0.14,0.21,0.3,0.41,0.48,0.59c0.18,0.18,0.38,0.34,0.59,0.48c0.21,0.14,0.43,0.26,0.67,0.36
	c0.23,0.1,0.48,0.17,0.73,0.22s0.5,0.08,0.75,0.08c0.25,0,0.51-0.02,0.76-0.07s0.49-0.12,0.73-0.21c0.24-0.09,0.46-0.21,0.67-0.35
	c0.21-0.14,0.41-0.29,0.59-0.47c-0.18,0.18-0.33,0.38-0.47,0.59c-0.14,0.21-0.25,0.44-0.35,0.67c-0.1,0.24-0.17,0.48-0.21,0.73
	c-0.05,0.25-0.07,0.5-0.07,0.76c0,0.25,0.03,0.51,0.08,0.75c0.05,0.25,0.13,0.49,0.22,0.73c0.1,0.23,0.22,0.46,0.36,0.67
	c0.14,0.21,0.3,0.41,0.48,0.59c0.18,0.18,0.38,0.34,0.59,0.48c0.21,0.14,0.43,0.26,0.67,0.36c0.23,0.1,0.48,0.17,0.73,0.22
	c0.25,0.05,0.5,0.08,0.75,0.08c0.25,0,0.51-0.02,0.76-0.07s0.49-0.12,0.73-0.21c0.24-0.09,0.46-0.21,0.67-0.35
	c0.21-0.14,0.41-0.3,0.59-0.47L29.34,63.82z"/>
<path d="M40.61,69.14c-0.15-0.15-0.31-0.28-0.48-0.41c-0.17-0.13-0.35-0.24-0.53-0.33c-0.19-0.1-0.38-0.18-0.58-0.25
	c-0.2-0.07-0.4-0.12-0.61-0.16c-0.21-0.04-0.41-0.06-0.62-0.07c-0.21-0.01-0.42,0-0.63,0.02c-0.21,0.02-0.41,0.06-0.62,0.12
	c-0.2,0.05-0.4,0.12-0.59,0.21c0.07-0.16,0.13-0.32,0.18-0.49c0.05-0.17,0.09-0.34,0.12-0.51c0.03-0.17,0.05-0.34,0.05-0.52
	s0-0.35-0.01-0.52c-0.01-0.17-0.04-0.34-0.08-0.51c-0.04-0.17-0.08-0.34-0.14-0.5c-0.06-0.16-0.12-0.32-0.2-0.48
	s-0.16-0.31-0.26-0.45s-0.2-0.28-0.31-0.42c-0.11-0.13-0.23-0.26-0.36-0.38c-0.13-0.12-0.26-0.23-0.4-0.33
	c-0.14-0.1-0.29-0.19-0.44-0.27s-0.31-0.16-0.47-0.22c-0.16-0.06-0.33-0.12-0.49-0.16c-0.17-0.04-0.34-0.07-0.51-0.1
	c-0.17-0.02-0.35-0.03-0.52-0.03c-0.58,0-1.15,0.12-1.68,0.35c0.08-0.19,0.15-0.39,0.21-0.59c0.05-0.2,0.09-0.41,0.12-0.62
	c0.02-0.21,0.03-0.42,0.03-0.63c-0.01-0.21-0.03-0.42-0.07-0.63c-0.04-0.21-0.09-0.41-0.16-0.61c-0.07-0.2-0.15-0.39-0.25-0.58
	c-0.1-0.19-0.21-0.36-0.33-0.53c-0.12-0.17-0.26-0.33-0.41-0.48c-0.15-0.15-0.31-0.29-0.48-0.41c-0.17-0.12-0.35-0.24-0.53-0.34
	c-0.19-0.1-0.38-0.18-0.58-0.25c-0.2-0.07-0.4-0.12-0.61-0.16c-0.21-0.04-0.41-0.06-0.62-0.07c-0.21-0.01-0.42,0-0.63,0.02
	c-0.21,0.02-0.41,0.06-0.62,0.12c-0.2,0.05-0.4,0.12-0.59,0.21c0.1-0.22,0.17-0.45,0.23-0.69c0.06-0.24,0.09-0.48,0.11-0.72
	c0.02-0.24,0.01-0.48-0.02-0.73c-0.03-0.24-0.07-0.48-0.14-0.71c-0.07-0.23-0.15-0.46-0.26-0.68c-0.11-0.22-0.23-0.43-0.37-0.62
	c-0.14-0.2-0.3-0.38-0.47-0.55c-0.17-0.17-0.36-0.32-0.56-0.46c-0.2-0.14-0.41-0.25-0.63-0.35c-0.22-0.1-0.45-0.18-0.68-0.24
	c-0.24-0.06-0.47-0.1-0.72-0.12c-0.24-0.02-0.48-0.02-0.73,0.01c-0.24,0.02-0.48,0.07-0.71,0.13c-0.23,0.06-0.46,0.15-0.68,0.25
	c-0.22,0.1-0.43,0.22-0.63,0.36c-0.2,0.14-0.38,0.29-0.56,0.47l-2.43,2.44c-0.17,0.17-0.33,0.36-0.47,0.56
	c-0.14,0.2-0.26,0.41-0.37,0.63c-0.1,0.22-0.19,0.45-0.25,0.68c-0.06,0.24-0.11,0.47-0.13,0.72c-0.02,0.24-0.03,0.49-0.01,0.73
	c0.02,0.24,0.06,0.48,0.12,0.72c0.06,0.24,0.14,0.47,0.24,0.69c0.1,0.22,0.22,0.43,0.36,0.63s0.29,0.39,0.46,0.56
	c0.17,0.18,0.35,0.33,0.55,0.48c0.2,0.14,0.41,0.27,0.63,0.37c0.22,0.11,0.45,0.19,0.68,0.26c0.23,0.07,0.47,0.11,0.72,0.14
	c0.24,0.03,0.48,0.03,0.73,0.01c0.24-0.02,0.48-0.05,0.72-0.11c0.24-0.06,0.47-0.14,0.69-0.23c-0.08,0.19-0.15,0.39-0.21,0.59
	c-0.05,0.2-0.09,0.41-0.12,0.62c-0.02,0.21-0.03,0.42-0.02,0.63c0.01,0.21,0.03,0.42,0.07,0.62c0.04,0.21,0.09,0.41,0.16,0.61
	c0.07,0.2,0.15,0.39,0.25,0.58c0.1,0.19,0.21,0.36,0.34,0.53c0.12,0.17,0.26,0.33,0.41,0.48c0.15,0.15,0.31,0.28,0.48,0.41
	c0.17,0.12,0.35,0.24,0.53,0.33c0.19,0.1,0.38,0.18,0.58,0.25c0.2,0.07,0.4,0.12,0.61,0.16c0.21,0.04,0.41,0.06,0.62,0.07
	c0.21,0.01,0.42,0,0.63-0.03c0.21-0.02,0.41-0.06,0.62-0.12c0.2-0.05,0.4-0.13,0.59-0.21c-0.09,0.19-0.15,0.39-0.21,0.59
	c-0.06,0.2-0.1,0.41-0.12,0.62c-0.02,0.21-0.03,0.42-0.03,0.63c0.01,0.21,0.03,0.42,0.07,0.63s0.09,0.41,0.16,0.61
	c0.07,0.2,0.15,0.39,0.25,0.58c0.1,0.19,0.21,0.36,0.33,0.53c0.12,0.17,0.26,0.33,0.41,0.48c0.15,0.15,0.31,0.29,0.48,0.41
	c0.17,0.12,0.35,0.24,0.53,0.34c0.19,0.1,0.38,0.18,0.58,0.25c0.2,0.07,0.4,0.12,0.61,0.16c0.21,0.04,0.41,0.06,0.63,0.07
	c0.21,0.01,0.42,0,0.63-0.02s0.41-0.06,0.62-0.12c0.2-0.05,0.4-0.12,0.59-0.21c-0.1,0.22-0.17,0.45-0.23,0.69
	c-0.06,0.24-0.09,0.47-0.11,0.72C31,74.53,31,74.77,31.03,75.01c0.03,0.24,0.07,0.48,0.14,0.71c0.07,0.23,0.15,0.46,0.26,0.68
	c0.11,0.22,0.23,0.43,0.37,0.62c0.14,0.2,0.3,0.38,0.47,0.55c0.17,0.17,0.36,0.32,0.56,0.46c0.2,0.14,0.41,0.25,0.63,0.36
	c0.22,0.1,0.45,0.18,0.68,0.24c0.24,0.06,0.47,0.1,0.72,0.12c0.24,0.02,0.48,0.02,0.73,0c0.24-0.02,0.48-0.07,0.71-0.13
	c0.23-0.06,0.46-0.15,0.68-0.25c0.22-0.1,0.43-0.22,0.63-0.36c0.2-0.14,0.38-0.29,0.56-0.47l2.43-2.43c0.1-0.1,0.19-0.2,0.28-0.31
	c0.09-0.11,0.17-0.22,0.25-0.33s0.15-0.23,0.21-0.35c0.06-0.12,0.12-0.25,0.18-0.37s0.1-0.26,0.14-0.39c0.04-0.13,0.07-0.27,0.1-0.4
	c0.03-0.14,0.05-0.27,0.06-0.41c0.01-0.14,0.02-0.28,0.02-0.41c0-0.14-0.01-0.28-0.02-0.41c-0.01-0.14-0.03-0.27-0.06-0.41
	c-0.03-0.14-0.06-0.27-0.1-0.4c-0.04-0.13-0.09-0.26-0.14-0.39s-0.11-0.25-0.18-0.37c-0.06-0.12-0.14-0.24-0.21-0.35
	c-0.08-0.11-0.16-0.23-0.25-0.33C40.8,69.34,40.7,69.24,40.61,69.14z M21.58,66.04c-0.17-0.17-0.32-0.35-0.45-0.55
	c-0.13-0.2-0.24-0.41-0.33-0.63c-0.09-0.22-0.16-0.45-0.21-0.68c-0.05-0.23-0.07-0.47-0.07-0.71c0-0.24,0.02-0.47,0.07-0.71
	c0.05-0.23,0.11-0.46,0.21-0.68c0.09-0.22,0.2-0.43,0.33-0.63c0.13-0.2,0.28-0.38,0.45-0.55c0.03-0.03,0.05-0.06,0.07-0.09
	c0.02-0.04,0.03-0.07,0.03-0.12c0-0.04-0.01-0.08-0.02-0.12c-0.01-0.04-0.04-0.07-0.06-0.1c-0.03-0.03-0.06-0.05-0.1-0.06
	c-0.04-0.01-0.08-0.02-0.12-0.02c-0.04,0-0.08,0.01-0.12,0.03c-0.04,0.02-0.07,0.04-0.09,0.07c-0.17,0.17-0.35,0.32-0.55,0.45
	c-0.2,0.13-0.41,0.24-0.63,0.34c-0.22,0.09-0.45,0.16-0.68,0.21c-0.23,0.05-0.47,0.07-0.71,0.07c-0.24,0-0.47-0.02-0.71-0.07
	c-0.23-0.05-0.46-0.11-0.68-0.21c-0.22-0.09-0.43-0.2-0.63-0.33c-0.2-0.13-0.38-0.28-0.55-0.45c-0.17-0.17-0.32-0.35-0.45-0.55
	c-0.13-0.2-0.24-0.41-0.33-0.63c-0.09-0.22-0.16-0.45-0.21-0.68c-0.05-0.23-0.07-0.47-0.07-0.71c0-0.24,0.02-0.47,0.07-0.71
	c0.05-0.23,0.11-0.46,0.21-0.68c0.09-0.22,0.2-0.43,0.33-0.63c0.13-0.2,0.28-0.38,0.45-0.55l2.43-2.43
	c0.17-0.16,0.35-0.31,0.55-0.44c0.2-0.13,0.41-0.23,0.62-0.32c0.22-0.09,0.44-0.15,0.67-0.19c0.23-0.04,0.46-0.06,0.7-0.06
	c0.23,0,0.47,0.03,0.7,0.07c0.23,0.05,0.45,0.12,0.67,0.21c0.22,0.09,0.42,0.2,0.62,0.33c0.19,0.13,0.38,0.28,0.54,0.44
	c0.17,0.17,0.31,0.35,0.45,0.54c0.13,0.19,0.24,0.4,0.33,0.62c0.09,0.22,0.16,0.44,0.21,0.67c0.05,0.23,0.07,0.46,0.07,0.7
	c0,0.24-0.02,0.47-0.06,0.7c-0.04,0.23-0.11,0.46-0.2,0.67c-0.09,0.22-0.19,0.43-0.32,0.62c-0.13,0.2-0.27,0.38-0.44,0.55
	c-0.03,0.03-0.05,0.06-0.06,0.1c-0.01,0.04-0.02,0.07-0.02,0.11c0,0.04,0.01,0.08,0.02,0.11c0.01,0.04,0.04,0.07,0.06,0.1
	c0.03,0.03,0.06,0.05,0.1,0.06c0.04,0.01,0.07,0.02,0.11,0.02c0.04,0,0.08-0.01,0.11-0.02c0.04-0.01,0.07-0.04,0.1-0.06
	c0.17-0.17,0.35-0.33,0.55-0.46c0.2-0.14,0.41-0.25,0.63-0.35c0.22-0.1,0.45-0.17,0.68-0.22c0.24-0.05,0.47-0.08,0.71-0.08
	c0.24,0,0.48,0.02,0.71,0.06c0.24,0.05,0.47,0.11,0.69,0.2c0.22,0.09,0.43,0.2,0.63,0.34c0.2,0.13,0.39,0.28,0.55,0.45
	c0.17,0.17,0.32,0.36,0.45,0.56c0.13,0.2,0.24,0.41,0.34,0.63c0.09,0.22,0.16,0.45,0.2,0.69c0.05,0.24,0.07,0.47,0.06,0.71
	c0,0.24-0.03,0.48-0.08,0.71c-0.05,0.24-0.12,0.46-0.22,0.68c-0.1,0.22-0.21,0.43-0.35,0.63c-0.14,0.2-0.29,0.38-0.46,0.55
	l-2.44,2.43c-0.17,0.17-0.35,0.32-0.55,0.45c-0.2,0.13-0.41,0.24-0.63,0.33c-0.22,0.09-0.44,0.16-0.68,0.2
	c-0.23,0.05-0.47,0.07-0.7,0.07c-0.24,0-0.47-0.02-0.7-0.07c-0.23-0.05-0.46-0.11-0.68-0.2c-0.22-0.09-0.43-0.2-0.63-0.33
	C21.94,66.36,21.75,66.21,21.58,66.04L21.58,66.04z M40.19,74.67l-2.43,2.43c-0.17,0.17-0.35,0.32-0.55,0.45
	c-0.2,0.13-0.41,0.24-0.63,0.33c-0.22,0.09-0.45,0.16-0.68,0.21c-0.23,0.05-0.47,0.07-0.71,0.07c-0.24,0-0.47-0.02-0.71-0.07
	c-0.23-0.05-0.46-0.11-0.68-0.21c-0.22-0.09-0.43-0.2-0.63-0.33c-0.2-0.13-0.38-0.28-0.55-0.45c-0.17-0.17-0.32-0.35-0.45-0.55
	c-0.13-0.2-0.24-0.41-0.33-0.63c-0.09-0.22-0.16-0.44-0.21-0.68c-0.05-0.23-0.07-0.47-0.07-0.71c0-0.24,0.02-0.47,0.07-0.71
	c0.05-0.23,0.12-0.46,0.21-0.68c0.09-0.22,0.2-0.43,0.33-0.63c0.13-0.2,0.28-0.38,0.45-0.55c0.05-0.06,0.08-0.12,0.07-0.2
	c0-0.08-0.03-0.14-0.09-0.2c-0.05-0.05-0.12-0.08-0.2-0.09c-0.08,0-0.15,0.02-0.2,0.07c-0.17,0.17-0.35,0.32-0.55,0.45
	c-0.2,0.13-0.41,0.24-0.63,0.33c-0.22,0.09-0.45,0.16-0.68,0.21c-0.23,0.05-0.47,0.07-0.71,0.07c-0.24,0-0.47-0.02-0.71-0.07
	c-0.23-0.05-0.46-0.12-0.68-0.21c-0.22-0.09-0.43-0.2-0.63-0.34c-0.2-0.13-0.38-0.28-0.55-0.45c-0.17-0.17-0.32-0.35-0.45-0.55
	c-0.13-0.2-0.24-0.41-0.33-0.63c-0.09-0.22-0.16-0.45-0.21-0.68c-0.05-0.23-0.07-0.47-0.07-0.71c0-0.24,0.02-0.47,0.07-0.71
	c0.05-0.23,0.12-0.46,0.21-0.68s0.2-0.43,0.33-0.63c0.13-0.2,0.28-0.38,0.45-0.55l2.43-2.43c0.17-0.17,0.35-0.32,0.55-0.45
	c0.2-0.13,0.41-0.24,0.63-0.34c0.22-0.09,0.45-0.16,0.68-0.21c0.23-0.05,0.47-0.07,0.71-0.07c0.24,0,0.47,0.02,0.71,0.07
	c0.23,0.05,0.46,0.11,0.68,0.21c0.22,0.09,0.43,0.2,0.63,0.33c0.2,0.13,0.38,0.28,0.55,0.45c0.17,0.17,0.32,0.35,0.45,0.55
	c0.13,0.2,0.24,0.41,0.33,0.63c0.09,0.22,0.16,0.45,0.21,0.68c0.05,0.23,0.07,0.47,0.07,0.71c0,0.24-0.02,0.47-0.07,0.71
	c-0.05,0.23-0.11,0.46-0.21,0.68c-0.09,0.22-0.2,0.43-0.33,0.63c-0.13,0.2-0.28,0.38-0.45,0.55c-0.03,0.03-0.05,0.06-0.06,0.1
	c-0.01,0.04-0.02,0.07-0.02,0.11c0,0.04,0.01,0.08,0.02,0.11c0.01,0.04,0.04,0.07,0.06,0.09s0.06,0.05,0.1,0.06
	c0.04,0.01,0.07,0.02,0.11,0.02c0.04,0,0.08-0.01,0.11-0.02c0.04-0.01,0.07-0.04,0.09-0.06c0.17-0.16,0.35-0.31,0.55-0.44
	c0.2-0.13,0.41-0.23,0.62-0.32c0.22-0.09,0.44-0.15,0.67-0.19c0.23-0.04,0.46-0.06,0.7-0.06c0.24,0,0.47,0.03,0.7,0.07
	c0.23,0.05,0.45,0.12,0.67,0.21c0.22,0.09,0.42,0.2,0.62,0.33c0.19,0.13,0.38,0.28,0.54,0.45c0.17,0.17,0.31,0.35,0.45,0.54
	c0.13,0.19,0.24,0.4,0.33,0.62c0.09,0.22,0.16,0.44,0.21,0.67c0.05,0.23,0.07,0.46,0.07,0.7s-0.02,0.47-0.06,0.7
	c-0.04,0.23-0.11,0.46-0.2,0.67c-0.09,0.22-0.19,0.43-0.32,0.62C40.5,74.31,40.36,74.5,40.19,74.67L40.19,74.67z"/>
<path d="M68.31,59.66c-0.06,0-0.12-0.02-0.17-0.06c-0.05-0.04-0.09-0.09-0.1-0.15l-0.65-2.15L49.75,40.17
	c-0.26,0.02-0.52,0.04-0.79,0.04h-5.44l-4.17,4.17c-0.11,0.11-0.23,0.22-0.36,0.33c-0.13,0.1-0.25,0.2-0.39,0.29
	c-0.14,0.09-0.27,0.17-0.42,0.25s-0.29,0.15-0.44,0.21c-0.15,0.06-0.3,0.12-0.46,0.16c-0.15,0.05-0.31,0.09-0.47,0.12
	c-0.16,0.03-0.32,0.05-0.48,0.07c-0.16,0.02-0.32,0.02-0.48,0.02c-0.16,0-0.32-0.01-0.48-0.02c-0.16-0.02-0.32-0.04-0.48-0.07
	c-0.16-0.03-0.32-0.07-0.47-0.12c-0.16-0.05-0.31-0.1-0.46-0.16c-0.15-0.06-0.3-0.13-0.44-0.21c-0.14-0.08-0.28-0.16-0.42-0.25
	c-0.14-0.09-0.27-0.19-0.39-0.29c-0.12-0.1-0.24-0.21-0.36-0.33c-0.11-0.11-0.22-0.24-0.33-0.36c-0.1-0.13-0.2-0.25-0.29-0.39
	c-0.09-0.13-0.17-0.27-0.25-0.42s-0.15-0.29-0.21-0.44c-0.06-0.15-0.12-0.3-0.16-0.46c-0.05-0.15-0.09-0.31-0.12-0.47
	c-0.03-0.16-0.06-0.32-0.07-0.48c-0.02-0.16-0.02-0.32-0.02-0.48c0-0.16,0.01-0.32,0.02-0.48c0.02-0.16,0.04-0.32,0.07-0.48
	c0.03-0.16,0.07-0.32,0.12-0.47c0.05-0.16,0.1-0.31,0.16-0.46c0.06-0.15,0.13-0.3,0.21-0.44c0.08-0.14,0.16-0.28,0.25-0.42
	c0.09-0.14,0.19-0.27,0.29-0.39c0.1-0.13,0.21-0.25,0.33-0.36l9.72-9.72c0.24-0.24,0.48-0.47,0.73-0.7
	c0.25-0.23,0.51-0.45,0.77-0.66c0.26-0.21,0.53-0.42,0.8-0.62c0.27-0.2,0.55-0.4,0.83-0.58c0.28-0.19,0.57-0.37,0.86-0.54
	c0.29-0.17,0.58-0.34,0.88-0.5c0.3-0.16,0.6-0.31,0.9-0.46c0.31-0.14,0.61-0.28,0.93-0.41c0.31-0.13,0.63-0.25,0.95-0.37
	c0.32-0.11,0.64-0.22,0.96-0.32c0.32-0.1,0.65-0.19,0.98-0.27c0.33-0.08,0.66-0.16,0.99-0.22c0.33-0.07,0.66-0.12,1-0.17
	c0.33-0.05,0.67-0.09,1.01-0.12c0.34-0.03,0.67-0.06,1.01-0.07c0.34-0.02,0.68-0.03,1.01-0.03c0.34,0,0.68,0.01,1.01,0.03
	c0.34,0.02,0.67,0.04,1.01,0.07c0.34,0.03,0.67,0.07,1.01,0.12c0.33,0.05,0.67,0.11,1,0.17c0.33,0.07,0.66,0.14,0.99,0.22
	c0.33,0.08,0.65,0.17,0.98,0.27c0.32,0.1,0.64,0.2,0.96,0.32c0.32,0.11,0.63,0.24,0.95,0.37c0.31,0.13,0.62,0.27,0.93,0.41
	c0.31,0.15,0.61,0.3,0.9,0.46c0.3,0.16,0.59,0.33,0.88,0.5c0.29,0.17,0.58,0.35,0.86,0.54c0.28,0.19,0.56,0.38,0.83,0.58
	c0.27,0.2,0.54,0.41,0.8,0.62c0.26,0.21,0.52,0.44,0.77,0.66c0.25,0.23,0.49,0.46,0.73,0.7c0.24,0.24,0.47,0.48,0.7,0.73
	c0.23,0.25,0.45,0.51,0.66,0.77c0.21,0.26,0.42,0.53,0.62,0.8c0.2,0.27,0.4,0.55,0.58,0.83c0.19,0.28,0.37,0.57,0.54,0.86
	c0.17,0.29,0.34,0.58,0.5,0.88c0.16,0.3,0.31,0.6,0.46,0.9c0.14,0.31,0.28,0.61,0.41,0.93c0.13,0.31,0.25,0.63,0.36,0.94
	c0.11,0.32,0.22,0.64,0.32,0.96s0.19,0.65,0.27,0.98c0.08,0.33,0.16,0.66,0.22,0.99c0.07,0.33,0.12,0.66,0.17,1
	c0.05,0.33,0.09,0.67,0.12,1.01c0.03,0.34,0.06,0.67,0.07,1.01c0.02,0.34,0.02,0.68,0.02,1.01c0,0.34-0.01,0.68-0.02,1.01
	c-0.02,0.34-0.04,0.67-0.07,1.01c-0.03,0.34-0.07,0.67-0.12,1.01c-0.05,0.33-0.11,0.67-0.17,1c-0.07,0.33-0.14,0.66-0.22,0.99
	c-0.08,0.33-0.17,0.65-0.27,0.98s-0.2,0.64-0.32,0.96c-0.11,0.32-0.24,0.63-0.36,0.94c-0.13,0.31-0.27,0.62-0.41,0.93
	c-0.14,0.31-0.3,0.61-0.46,0.91c-0.16,0.3-0.33,0.59-0.5,0.88c-0.17,0.29-0.35,0.58-0.54,0.86c-0.19,0.28-0.38,0.56-0.58,0.83
	c-0.2,0.27-0.41,0.54-0.62,0.8c-0.21,0.26-0.44,0.52-0.66,0.77c-0.23,0.25-0.46,0.49-0.7,0.73l-2.74,2.73
	C68.46,59.63,68.39,59.66,68.31,59.66z M50.49,40.06l17.35,16.87c0.04,0.04,0.06,0.08,0.08,0.13l0.53,1.75l2.4-2.4
	c0.23-0.23,0.46-0.47,0.68-0.71c0.22-0.24,0.44-0.49,0.64-0.74c0.21-0.25,0.41-0.51,0.61-0.78c0.19-0.26,0.38-0.53,0.57-0.81
	c0.18-0.27,0.36-0.55,0.53-0.83c0.17-0.28,0.33-0.57,0.48-0.86c0.15-0.29,0.3-0.58,0.44-0.88c0.14-0.3,0.27-0.6,0.4-0.9
	c0.13-0.3,0.24-0.61,0.35-0.92c0.11-0.31,0.21-0.62,0.31-0.93c0.1-0.31,0.18-0.63,0.26-0.95c0.08-0.32,0.15-0.64,0.22-0.96
	c0.06-0.32,0.12-0.64,0.17-0.97c0.05-0.33,0.09-0.65,0.12-0.98c0.03-0.33,0.06-0.65,0.07-0.98c0.02-0.33,0.02-0.66,0.02-0.98
	s-0.01-0.66-0.02-0.98c-0.02-0.33-0.04-0.66-0.07-0.98c-0.03-0.33-0.07-0.65-0.12-0.98c-0.05-0.32-0.1-0.65-0.17-0.97
	c-0.06-0.32-0.14-0.64-0.22-0.96c-0.08-0.32-0.17-0.63-0.26-0.95c-0.1-0.31-0.2-0.63-0.31-0.93c-0.11-0.31-0.23-0.62-0.35-0.92
	c-0.13-0.3-0.26-0.6-0.4-0.9c-0.14-0.3-0.29-0.59-0.44-0.88c-0.15-0.29-0.32-0.57-0.49-0.86c-0.17-0.28-0.34-0.56-0.53-0.83
	c-0.18-0.27-0.37-0.54-0.57-0.8c-0.19-0.26-0.4-0.52-0.61-0.78c-0.21-0.25-0.42-0.5-0.64-0.74c-0.22-0.24-0.45-0.48-0.68-0.71
	c-0.23-0.23-0.47-0.46-0.71-0.68c-0.24-0.22-0.49-0.44-0.74-0.64c-0.25-0.21-0.51-0.41-0.78-0.61c-0.26-0.19-0.53-0.38-0.81-0.57
	c-0.27-0.18-0.55-0.36-0.83-0.53c-0.28-0.17-0.57-0.33-0.86-0.48c-0.29-0.15-0.58-0.3-0.88-0.44c-0.3-0.14-0.6-0.27-0.9-0.4
	c-0.3-0.13-0.61-0.24-0.92-0.35c-0.31-0.11-0.62-0.21-0.93-0.31c-0.31-0.1-0.63-0.18-0.95-0.26c-0.32-0.08-0.64-0.15-0.96-0.22
	c-0.32-0.06-0.64-0.12-0.97-0.17c-0.33-0.05-0.65-0.09-0.98-0.12c-0.33-0.03-0.65-0.06-0.98-0.07c-0.33-0.02-0.66-0.02-0.98-0.02
	s-0.66,0.01-0.98,0.02c-0.33,0.02-0.66,0.04-0.98,0.07c-0.33,0.03-0.65,0.07-0.98,0.12c-0.32,0.05-0.65,0.1-0.97,0.17
	c-0.32,0.06-0.64,0.14-0.96,0.22c-0.32,0.08-0.63,0.17-0.95,0.26c-0.31,0.1-0.63,0.2-0.93,0.31c-0.31,0.11-0.62,0.23-0.92,0.35
	c-0.3,0.13-0.6,0.26-0.9,0.4c-0.3,0.14-0.59,0.29-0.88,0.44c-0.29,0.15-0.57,0.32-0.86,0.49c-0.28,0.17-0.56,0.34-0.83,0.53
	s-0.54,0.37-0.8,0.57c-0.26,0.19-0.52,0.4-0.78,0.61c-0.25,0.21-0.5,0.42-0.74,0.64c-0.24,0.22-0.48,0.45-0.71,0.68l-9.72,9.72
	c-0.1,0.1-0.19,0.21-0.28,0.32c-0.09,0.11-0.17,0.23-0.25,0.34c-0.08,0.12-0.15,0.24-0.21,0.37c-0.07,0.13-0.12,0.25-0.18,0.39
	c-0.05,0.13-0.1,0.27-0.14,0.4c-0.04,0.14-0.07,0.27-0.1,0.41s-0.05,0.28-0.06,0.42c-0.01,0.14-0.02,0.28-0.02,0.43
	c0,0.14,0.01,0.28,0.02,0.42s0.04,0.28,0.06,0.42c0.03,0.14,0.06,0.28,0.1,0.41c0.04,0.14,0.09,0.27,0.15,0.4
	c0.05,0.13,0.12,0.26,0.18,0.38c0.07,0.13,0.14,0.25,0.22,0.36c0.08,0.12,0.16,0.23,0.25,0.34c0.09,0.11,0.19,0.21,0.29,0.32
	c0.1,0.1,0.21,0.19,0.32,0.29c0.11,0.09,0.22,0.17,0.34,0.25c0.12,0.08,0.24,0.15,0.36,0.22c0.12,0.07,0.25,0.13,0.38,0.18
	c0.13,0.05,0.26,0.1,0.4,0.15c0.14,0.04,0.27,0.08,0.41,0.1s0.28,0.05,0.42,0.06c0.14,0.01,0.28,0.02,0.42,0.02
	c0.14,0,0.28,0,0.42-0.02c0.14-0.01,0.28-0.03,0.42-0.06c0.14-0.03,0.28-0.06,0.41-0.1c0.14-0.04,0.27-0.09,0.4-0.14
	c0.13-0.05,0.26-0.11,0.39-0.18c0.13-0.07,0.25-0.14,0.37-0.21s0.23-0.16,0.34-0.25c0.11-0.09,0.22-0.18,0.32-0.28l4.26-4.26
	c0.06-0.06,0.13-0.08,0.21-0.09h5.56c0.28,0,0.56-0.01,0.83-0.04c0.02,0,0.04,0,0.06,0c0.91-0.1,1.77-0.35,2.6-0.74
	c0.82-0.4,1.56-0.92,2.2-1.57l1.16-1.15c0.06-0.05,0.12-0.08,0.2-0.07c0.08,0,0.14,0.03,0.2,0.09c0.05,0.05,0.08,0.12,0.09,0.2
	c0,0.08-0.02,0.14-0.07,0.2l-1.16,1.16c-0.62,0.62-1.32,1.14-2.1,1.55C52.18,39.63,51.35,39.91,50.49,40.06z"/>
<path class="st3" d="M47.1,82.67c-0.17,0.17-0.35,0.34-0.54,0.49c-0.19,0.16-0.38,0.3-0.59,0.44c-0.2,0.14-0.41,0.27-0.63,0.38
	c-0.21,0.12-0.43,0.23-0.66,0.33s-0.45,0.19-0.68,0.26c-0.23,0.08-0.47,0.14-0.71,0.2c-0.24,0.05-0.48,0.1-0.72,0.13
	c-0.24,0.03-0.49,0.05-0.73,0.07c-0.24,0.01-0.49,0.01-0.73,0c-0.24-0.01-0.49-0.04-0.73-0.07c-0.24-0.04-0.48-0.08-0.72-0.14
	c-0.24-0.06-0.47-0.12-0.71-0.2c-0.23-0.08-0.46-0.17-0.68-0.27c-0.22-0.1-0.44-0.21-0.66-0.33c-0.21-0.12-0.42-0.25-0.62-0.39
	c-0.2-0.14-0.4-0.29-0.58-0.44C26.44,74.8,7.09,57.96,4.43,50.65c-3.4-9.36-1.95-20.02,5.73-27c9.21-8.36,22-8.23,31.18-1.64
	l-0.01,0.02c9.17-6.62,21.99-6.75,31.2,1.62c2.06,1.87,3.58,4.05,4.86,6.3c5.12,9.06,2.03,19.93-3.48,26.09L47.1,82.67z"/>
<path d="M41.51,85.26c-0.48,0-0.95-0.04-1.42-0.13c-0.47-0.08-0.93-0.21-1.38-0.37c-0.45-0.16-0.88-0.37-1.29-0.61
	c-0.41-0.24-0.8-0.51-1.17-0.82C10.98,62.24,5.31,53.86,4.18,50.74c-1.75-4.81-2.2-9.83-1.3-14.53c0.23-1.22,0.55-2.41,0.97-3.58
	c0.42-1.17,0.93-2.29,1.54-3.38c0.6-1.08,1.29-2.11,2.06-3.08s1.62-1.87,2.53-2.71c4.46-4.06,9.91-6.3,15.77-6.5
	c1.38-0.04,2.76,0.03,4.14,0.22c1.37,0.18,2.72,0.48,4.05,0.88c1.32,0.4,2.61,0.91,3.85,1.52c1.24,0.61,2.43,1.32,3.56,2.12
	c1.13-0.8,2.31-1.51,3.55-2.12c1.24-0.61,2.52-1.12,3.85-1.52c1.32-0.4,2.67-0.69,4.04-0.88c1.37-0.18,2.75-0.26,4.13-0.22
	c5.87,0.2,11.33,2.44,15.79,6.5c1.84,1.67,3.4,3.69,4.91,6.37c2.4,4.25,3.19,9.2,2.28,14.32C79.11,48.6,77,53,74.11,56.23
	l-0.01,0.01L47.29,82.86c-0.38,0.38-0.79,0.72-1.24,1.02c-0.45,0.3-0.92,0.55-1.41,0.76c-0.5,0.21-1.01,0.36-1.54,0.47
	C42.58,85.2,42.04,85.26,41.51,85.26z M26.59,17.48c-0.27,0-0.54,0-0.81,0.01c-5.73,0.2-11.07,2.4-15.43,6.36
	c-7.12,6.46-9.29,16.7-5.66,26.71c2.69,7.41,23.2,25.1,31.9,32.36c0.18,0.15,0.37,0.3,0.56,0.43c0.19,0.14,0.39,0.26,0.6,0.38
	c0.21,0.12,0.42,0.22,0.63,0.32c0.22,0.1,0.44,0.18,0.66,0.26c0.22,0.08,0.45,0.14,0.68,0.2c0.23,0.06,0.46,0.1,0.7,0.13
	c0.23,0.03,0.47,0.06,0.71,0.07c0.24,0.01,0.47,0.01,0.71,0c0.24-0.01,0.47-0.03,0.71-0.06c0.24-0.03,0.47-0.08,0.7-0.13
	c0.23-0.05,0.46-0.12,0.68-0.19c0.23-0.07,0.45-0.16,0.66-0.25c0.22-0.1,0.43-0.2,0.64-0.32c0.21-0.12,0.41-0.24,0.6-0.37
	c0.19-0.13,0.38-0.28,0.57-0.43c0.18-0.15,0.36-0.31,0.52-0.48l26.81-26.61c2.82-3.15,4.88-7.46,5.66-11.82
	c0.89-4.99,0.12-9.82-2.22-13.95c-1.49-2.63-3.01-4.61-4.81-6.24c-4.37-3.97-9.71-6.16-15.44-6.36c-1.37-0.04-2.74,0.03-4.1,0.22
	c-1.36,0.19-2.7,0.48-4.01,0.88C47.5,19,46.23,19.51,45,20.13c-1.23,0.61-2.4,1.32-3.51,2.13c-0.05,0.04-0.11,0.06-0.18,0.05
	c-0.07-0.01-0.12-0.03-0.17-0.08c-0.02-0.02-0.03-0.03-0.04-0.05c-1.05-0.75-2.16-1.42-3.31-2c-1.16-0.58-2.35-1.07-3.58-1.47
	c-1.23-0.4-2.49-0.7-3.76-0.9C29.17,17.59,27.88,17.49,26.59,17.48z"/>
<path class="st4" d="M68.89,27.51c-0.23-0.23-0.46-0.45-0.7-0.67s-0.48-0.43-0.73-0.63c-0.25-0.2-0.51-0.4-0.77-0.6
	c-0.26-0.19-0.53-0.38-0.79-0.56c-0.27-0.18-0.54-0.35-0.82-0.52c-0.28-0.17-0.56-0.33-0.84-0.48c-0.29-0.15-0.57-0.3-0.87-0.44
	c-0.29-0.14-0.59-0.27-0.89-0.39c-0.3-0.12-0.6-0.24-0.91-0.35s-0.61-0.21-0.92-0.3c-0.31-0.09-0.62-0.18-0.94-0.26
	c-0.31-0.08-0.63-0.15-0.95-0.21c-0.32-0.06-0.64-0.12-0.96-0.17c-0.32-0.05-0.64-0.09-0.96-0.12c-0.32-0.03-0.64-0.06-0.97-0.07
	c-0.32-0.02-0.65-0.02-0.97-0.02c-0.32,0-0.65,0.01-0.97,0.02c-0.32,0.02-0.65,0.04-0.97,0.07c-0.32,0.03-0.64,0.07-0.96,0.12
	c-0.32,0.05-0.64,0.1-0.96,0.17c-0.32,0.06-0.63,0.13-0.95,0.21c-0.31,0.08-0.63,0.17-0.94,0.26c-0.31,0.09-0.62,0.2-0.92,0.3
	s-0.61,0.23-0.91,0.35c-0.3,0.12-0.59,0.25-0.89,0.39c-0.29,0.14-0.58,0.28-0.87,0.44c-0.29,0.15-0.57,0.31-0.84,0.48
	c-0.28,0.17-0.55,0.34-0.82,0.52c-0.27,0.18-0.53,0.37-0.79,0.56c-0.26,0.19-0.52,0.39-0.77,0.6c-0.25,0.21-0.49,0.42-0.73,0.63
	s-0.47,0.44-0.7,0.67l-0.01,0.01l-0.03-0.02c-0.23-0.23-0.46-0.45-0.7-0.66c-0.24-0.22-0.49-0.43-0.74-0.63
	c-0.25-0.2-0.51-0.4-0.77-0.59c-0.26-0.19-0.52-0.38-0.79-0.55c-0.27-0.18-0.54-0.35-0.82-0.51s-0.56-0.32-0.84-0.47
	c-0.29-0.15-0.57-0.29-0.87-0.43c-0.29-0.14-0.59-0.27-0.89-0.39c-0.3-0.12-0.6-0.24-0.9-0.34c-0.3-0.11-0.61-0.21-0.92-0.3
	c-0.31-0.09-0.62-0.18-0.93-0.25c-0.31-0.08-0.63-0.15-0.94-0.21c-0.32-0.06-0.63-0.12-0.95-0.16c-0.32-0.05-0.64-0.09-0.96-0.12
	c-0.32-0.03-0.64-0.05-0.97-0.07c-0.32-0.01-0.64-0.02-0.97-0.02c-0.32,0-0.64,0.01-0.97,0.03c-0.32,0.02-0.64,0.04-0.97,0.07
	c-0.32,0.03-0.64,0.07-0.96,0.12c-0.32,0.05-0.64,0.1-0.95,0.17c-0.32,0.06-0.63,0.14-0.94,0.21c-0.31,0.08-0.62,0.17-0.93,0.26
	c-0.31,0.1-0.61,0.2-0.92,0.31c-0.3,0.11-0.6,0.23-0.9,0.35c-0.3,0.12-0.59,0.25-0.88,0.39c-0.29,0.14-0.58,0.28-0.86,0.44
	c-0.28,0.15-0.56,0.31-0.84,0.48c-0.28,0.17-0.55,0.34-0.82,0.52c-0.27,0.18-0.53,0.37-0.79,0.56c-0.26,0.19-0.51,0.39-0.76,0.6
	c-0.25,0.2-0.49,0.42-0.73,0.63c-0.24,0.22-0.47,0.44-0.7,0.67c-0.23,0.23-0.45,0.46-0.67,0.7c-0.22,0.24-0.43,0.48-0.63,0.73
	c-0.2,0.25-0.4,0.5-0.6,0.76c-0.19,0.26-0.38,0.52-0.56,0.79c-0.18,0.27-0.35,0.54-0.52,0.82c-0.17,0.28-0.33,0.56-0.48,0.84
	c-0.15,0.28-0.3,0.57-0.44,0.86c-0.14,0.29-0.27,0.59-0.39,0.88c-0.12,0.3-0.24,0.6-0.35,0.9c-0.11,0.3-0.21,0.61-0.31,0.92
	c-0.09,0.31-0.18,0.62-0.26,0.93c-0.08,0.31-0.15,0.63-0.21,0.94c-0.06,0.32-0.12,0.63-0.17,0.95c-0.05,0.32-0.09,0.64-0.12,0.96
	s-0.06,0.64-0.07,0.96c-0.02,0.32-0.03,0.64-0.03,0.97c0,0.32,0.01,0.65,0.02,0.97c0.01,0.32,0.04,0.64,0.07,0.97
	c0.03,0.32,0.07,0.64,0.11,0.96c0.05,0.32,0.1,0.64,0.16,0.95c0.06,0.32,0.13,0.63,0.21,0.94c0.08,0.31,0.16,0.62,0.25,0.93
	c0.09,0.31,0.19,0.62,0.3,0.92c0.11,0.3,0.22,0.61,0.34,0.9c0.12,0.3,0.25,0.59,0.39,0.89c0.14,0.29,0.28,0.58,0.43,0.87
	c0.15,0.29,0.31,0.57,0.47,0.84c0.16,0.28,0.34,0.55,0.51,0.82c0.18,0.27,0.36,0.53,0.55,0.79c0.19,0.26,0.39,0.52,0.59,0.77
	c0.2,0.25,0.41,0.5,0.63,0.74c0.22,0.24,0.44,0.48,0.66,0.7l0.52,0.52l0.69,0.45c-0.03,0.35-0.02,0.69,0.05,1.03
	c0.06,0.34,0.17,0.67,0.32,0.98c0.15,0.31,0.34,0.6,0.57,0.86c0.23,0.26,0.49,0.48,0.78,0.67c0.29,0.19,0.6,0.33,0.94,0.44
	c0.33,0.1,0.67,0.16,1.02,0.17c0.35,0.01,0.69-0.03,1.03-0.11c0.34-0.09,0.66-0.21,0.96-0.39l0.23,0.15c-0.12,0.2-0.22,0.4-0.3,0.62
	c-0.08,0.22-0.14,0.44-0.18,0.66c-0.04,0.23-0.06,0.45-0.06,0.68c0,0.23,0.02,0.46,0.07,0.68c0.04,0.23,0.11,0.45,0.19,0.66
	c0.08,0.21,0.18,0.42,0.3,0.62c0.12,0.2,0.26,0.38,0.41,0.55c0.15,0.17,0.32,0.33,0.5,0.47c0.18,0.14,0.37,0.26,0.58,0.37
	c0.2,0.11,0.42,0.19,0.63,0.26c0.22,0.07,0.44,0.11,0.67,0.14c0.23,0.03,0.46,0.03,0.69,0.02c0.23-0.01,0.46-0.05,0.68-0.11
	c0.22-0.06,0.44-0.13,0.65-0.23c0.21-0.09,0.41-0.21,0.6-0.34c0.19-0.13,0.36-0.28,0.53-0.44l0.48-0.48l-0.48,0.48
	c-0.18,0.18-0.33,0.37-0.47,0.58c-0.14,0.21-0.26,0.43-0.35,0.66c-0.1,0.23-0.17,0.47-0.22,0.71c-0.05,0.24-0.07,0.49-0.07,0.74
	s0.02,0.5,0.07,0.74c0.05,0.24,0.12,0.48,0.22,0.71c0.1,0.23,0.21,0.45,0.35,0.66c0.14,0.21,0.3,0.4,0.47,0.58
	c0.18,0.18,0.37,0.34,0.58,0.47c0.21,0.14,0.43,0.26,0.66,0.35c0.23,0.1,0.47,0.17,0.71,0.22c0.24,0.05,0.49,0.07,0.74,0.07
	c0.25,0,0.5-0.02,0.74-0.07c0.24-0.05,0.48-0.12,0.71-0.22c0.23-0.1,0.45-0.21,0.66-0.35c0.21-0.14,0.4-0.3,0.58-0.47
	c-0.1,0.09-0.19,0.18-0.27,0.27c-0.09,0.1-0.17,0.19-0.24,0.3c-0.08,0.1-0.15,0.21-0.21,0.32c-0.07,0.11-0.13,0.22-0.18,0.34
	c-0.05,0.12-0.1,0.24-0.14,0.36c-0.04,0.12-0.08,0.24-0.11,0.37c-0.03,0.13-0.05,0.25-0.07,0.38c-0.02,0.13-0.03,0.26-0.03,0.39
	c0,0.13,0,0.26,0.01,0.39c0.01,0.13,0.03,0.26,0.05,0.38c0.02,0.13,0.05,0.25,0.09,0.38c0.04,0.12,0.08,0.25,0.12,0.37
	c0.05,0.12,0.1,0.24,0.16,0.35c0.06,0.11,0.12,0.22,0.2,0.33c0.07,0.11,0.15,0.21,0.23,0.31c0.08,0.1,0.17,0.19,0.26,0.29
	c0.09,0.09,0.19,0.18,0.29,0.26c0.1,0.08,0.2,0.16,0.31,0.23c0.11,0.07,0.22,0.14,0.33,0.2c0.11,0.06,0.23,0.11,0.35,0.16
	c0.12,0.05,0.24,0.09,0.37,0.12c0.12,0.04,0.25,0.06,0.38,0.09c0.13,0.02,0.25,0.04,0.38,0.05c0.13,0.01,0.26,0.01,0.39,0.01
	c0.13,0,0.26-0.01,0.38-0.03c0.13-0.02,0.25-0.04,0.38-0.07c0.13-0.03,0.25-0.07,0.37-0.11c0.12-0.04,0.24-0.09,0.36-0.14
	c0.12-0.05,0.23-0.11,0.34-0.18s0.22-0.14,0.32-0.21c0.1-0.08,0.2-0.16,0.3-0.24c0.1-0.09,0.19-0.18,0.27-0.27l2.37-2.37
	c0.15-0.15,0.28-0.31,0.41-0.49l0.44,0.28l3.26,3.24c0.18,0.18,0.37,0.33,0.58,0.47c0.21,0.14,0.43,0.26,0.66,0.35
	c0.23,0.1,0.47,0.17,0.71,0.22c0.24,0.05,0.49,0.07,0.74,0.07c0.25,0,0.5-0.02,0.74-0.07c0.24-0.05,0.48-0.12,0.71-0.22
	c0.23-0.1,0.45-0.21,0.66-0.35c0.21-0.14,0.4-0.3,0.58-0.47c0.18-0.18,0.33-0.37,0.47-0.58c0.14-0.21,0.26-0.43,0.35-0.66
	c0.1-0.23,0.17-0.47,0.22-0.71c0.05-0.24,0.07-0.49,0.07-0.74c0-0.25-0.02-0.5-0.07-0.74c-0.05-0.24-0.12-0.48-0.22-0.71
	c-0.1-0.23-0.21-0.45-0.35-0.66c-0.14-0.21-0.3-0.4-0.47-0.58l-5.71-5.72l0.05-0.05l5.71,5.72c0.18,0.18,0.37,0.33,0.58,0.47
	c0.21,0.14,0.43,0.26,0.66,0.35c0.23,0.1,0.47,0.17,0.71,0.22c0.24,0.05,0.49,0.07,0.74,0.07c0.25,0,0.5-0.02,0.74-0.07
	c0.24-0.05,0.48-0.12,0.71-0.22c0.23-0.1,0.45-0.21,0.66-0.35c0.21-0.14,0.4-0.3,0.58-0.47c0.18-0.18,0.33-0.37,0.47-0.58
	s0.26-0.43,0.35-0.66c0.1-0.23,0.17-0.47,0.22-0.71c0.05-0.24,0.07-0.49,0.07-0.74s-0.02-0.5-0.07-0.74
	c-0.05-0.24-0.12-0.48-0.22-0.71c-0.1-0.23-0.21-0.45-0.35-0.66c-0.14-0.21-0.3-0.4-0.47-0.58l-5.71-5.72l5.71,5.72
	c0.18,0.16,0.37,0.3,0.58,0.43c0.21,0.12,0.42,0.23,0.65,0.31c0.23,0.08,0.46,0.14,0.7,0.18c0.24,0.04,0.48,0.05,0.72,0.05
	c0.24-0.01,0.48-0.04,0.72-0.09c0.24-0.05,0.46-0.13,0.69-0.22c0.22-0.1,0.43-0.21,0.63-0.35c0.2-0.14,0.39-0.29,0.56-0.46
	c0.17-0.17,0.32-0.36,0.46-0.56s0.25-0.41,0.35-0.63c0.09-0.22,0.17-0.45,0.22-0.69c0.05-0.24,0.08-0.48,0.09-0.72
	c0.01-0.24-0.01-0.48-0.05-0.72c-0.04-0.24-0.1-0.47-0.19-0.7c-0.08-0.23-0.19-0.44-0.31-0.65c-0.13-0.21-0.27-0.4-0.43-0.58
	c0.14,0.14,0.3,0.28,0.46,0.39c0.17,0.12,0.34,0.23,0.52,0.32c0.18,0.09,0.37,0.17,0.57,0.23c0.19,0.06,0.39,0.11,0.59,0.14
	c0.2,0.03,0.4,0.04,0.61,0.04c0.2,0,0.41-0.02,0.61-0.06c0.2-0.04,0.4-0.09,0.59-0.16c0.19-0.07,0.38-0.15,0.56-0.25
	c0.18-0.1,0.35-0.21,0.51-0.33c0.16-0.13,0.31-0.26,0.45-0.41c0.14-0.15,0.27-0.31,0.38-0.48c0.11-0.17,0.21-0.35,0.3-0.53
	c0.08-0.19,0.15-0.38,0.21-0.57c0.05-0.2,0.09-0.4,0.11-0.6s0.03-0.41,0.02-0.61c-0.01-0.2-0.04-0.4-0.08-0.6l0.47,1.55l2.66-2.66
	c0.23-0.23,0.45-0.46,0.67-0.7c0.22-0.24,0.43-0.48,0.63-0.73c0.2-0.25,0.4-0.5,0.6-0.77c0.19-0.26,0.38-0.52,0.56-0.79
	c0.18-0.27,0.35-0.54,0.52-0.82c0.17-0.28,0.33-0.56,0.48-0.84c0.15-0.29,0.3-0.57,0.44-0.87c0.14-0.29,0.27-0.59,0.39-0.89
	c0.12-0.3,0.24-0.6,0.35-0.91c0.11-0.3,0.21-0.61,0.3-0.92s0.18-0.62,0.26-0.94c0.08-0.31,0.15-0.63,0.21-0.95
	c0.06-0.32,0.12-0.64,0.17-0.96c0.05-0.32,0.09-0.64,0.12-0.96c0.03-0.32,0.06-0.64,0.07-0.97c0.02-0.32,0.02-0.65,0.02-0.97
	c0-0.32-0.01-0.65-0.02-0.97c-0.02-0.32-0.04-0.65-0.07-0.97c-0.03-0.32-0.07-0.64-0.12-0.96c-0.05-0.32-0.1-0.64-0.17-0.96
	c-0.06-0.32-0.13-0.63-0.21-0.95c-0.08-0.31-0.16-0.63-0.26-0.94s-0.19-0.62-0.3-0.92c-0.11-0.3-0.23-0.61-0.35-0.91
	c-0.12-0.3-0.25-0.6-0.39-0.89c-0.14-0.29-0.28-0.58-0.44-0.87c-0.15-0.29-0.31-0.57-0.48-0.84c-0.17-0.28-0.34-0.55-0.52-0.82
	c-0.18-0.27-0.37-0.53-0.56-0.79c-0.19-0.26-0.39-0.51-0.6-0.77c-0.21-0.25-0.42-0.49-0.63-0.73
	C69.35,27.97,69.12,27.73,68.89,27.51z"/>
<path d="M45.87,77.65c-0.54,0-1.06-0.1-1.56-0.31c-0.5-0.21-0.94-0.5-1.32-0.89l-3.23-3.22L13.29,56.22
	c-0.02-0.01-0.03-0.02-0.05-0.04l-0.52-0.52c-0.23-0.23-0.46-0.47-0.68-0.71c-0.22-0.24-0.44-0.49-0.64-0.75
	c-0.21-0.25-0.41-0.51-0.61-0.78c-0.2-0.26-0.39-0.53-0.57-0.81c-0.18-0.27-0.36-0.55-0.53-0.83c-0.17-0.28-0.33-0.57-0.48-0.86
	c-0.15-0.29-0.3-0.58-0.44-0.88c-0.14-0.3-0.27-0.6-0.4-0.9c-0.13-0.3-0.24-0.61-0.35-0.92c-0.11-0.31-0.21-0.62-0.31-0.93
	c-0.1-0.31-0.18-0.63-0.26-0.95c-0.08-0.32-0.15-0.64-0.22-0.96c-0.06-0.32-0.12-0.65-0.17-0.97c-0.05-0.32-0.09-0.65-0.12-0.98
	c-0.03-0.33-0.06-0.65-0.07-0.98c-0.02-0.33-0.02-0.66-0.02-0.98s0.01-0.66,0.02-0.98c0.02-0.33,0.04-0.66,0.07-0.98
	c0.03-0.33,0.07-0.65,0.12-0.98c0.05-0.32,0.1-0.65,0.17-0.97c0.06-0.32,0.14-0.64,0.22-0.96c0.08-0.32,0.17-0.63,0.26-0.95
	c0.1-0.31,0.2-0.63,0.31-0.94c0.11-0.31,0.23-0.62,0.35-0.92c0.13-0.3,0.26-0.6,0.4-0.9c0.14-0.3,0.29-0.59,0.44-0.88
	c0.15-0.29,0.32-0.58,0.48-0.86c0.17-0.28,0.34-0.56,0.53-0.83c0.18-0.27,0.37-0.54,0.57-0.8c0.19-0.26,0.4-0.52,0.61-0.78
	c0.21-0.25,0.42-0.5,0.64-0.75c0.22-0.24,0.45-0.48,0.68-0.71c0.23-0.23,0.47-0.46,0.71-0.68c0.24-0.22,0.49-0.43,0.75-0.64
	c0.25-0.21,0.51-0.41,0.78-0.61c0.26-0.2,0.53-0.39,0.81-0.57c0.27-0.18,0.55-0.36,0.83-0.53c0.28-0.17,0.57-0.33,0.86-0.48
	c0.29-0.15,0.58-0.3,0.88-0.44c0.3-0.14,0.6-0.27,0.9-0.4c0.3-0.13,0.61-0.24,0.92-0.35c0.31-0.11,0.62-0.21,0.93-0.31
	c0.31-0.1,0.63-0.18,0.95-0.26c0.32-0.08,0.64-0.15,0.96-0.22c0.32-0.06,0.65-0.12,0.97-0.17c0.33-0.05,0.65-0.09,0.98-0.12
	c0.33-0.03,0.65-0.06,0.98-0.07c0.33-0.02,0.66-0.02,0.98-0.02s0.66,0.01,0.98,0.02c0.33,0.02,0.66,0.04,0.98,0.07
	c0.33,0.03,0.65,0.07,0.98,0.12c0.32,0.05,0.65,0.1,0.97,0.17c0.32,0.06,0.64,0.14,0.96,0.22c0.32,0.08,0.63,0.17,0.95,0.26
	c0.31,0.1,0.63,0.2,0.93,0.31c0.31,0.11,0.62,0.23,0.92,0.35c0.3,0.13,0.6,0.26,0.9,0.4c0.3,0.14,0.59,0.29,0.88,0.44
	c0.29,0.15,0.58,0.32,0.86,0.48c0.28,0.17,0.56,0.34,0.83,0.53c0.27,0.18,0.54,0.37,0.81,0.57c0.26,0.19,0.52,0.4,0.78,0.61
	c0.25,0.21,0.5,0.42,0.75,0.64c0.24,0.22,0.48,0.45,0.71,0.68l0.05,0.05c0.01,0.01,0.02,0.02,0.03,0.04l8.31,11.67l15.46,15.46
	c0.17,0.17,0.32,0.35,0.46,0.54c0.14,0.19,0.26,0.4,0.36,0.61c0.1,0.21,0.18,0.44,0.25,0.66c0.06,0.23,0.11,0.46,0.13,0.69
	c0.02,0.24,0.02,0.47,0.01,0.71c-0.02,0.24-0.06,0.47-0.12,0.7c-0.06,0.23-0.14,0.45-0.23,0.67c-0.1,0.22-0.21,0.42-0.35,0.62
	c-0.13,0.2-0.28,0.38-0.45,0.55c-0.16,0.17-0.34,0.32-0.53,0.46c-0.19,0.14-0.39,0.26-0.61,0.36c-0.21,0.1-0.43,0.19-0.66,0.25
	c-0.23,0.07-0.46,0.11-0.69,0.14s-0.47,0.03-0.71,0.01c-0.24-0.02-0.47-0.05-0.7-0.11c-0.23-0.06-0.45-0.13-0.67-0.23
	c0.08,0.19,0.15,0.38,0.2,0.58c0.05,0.2,0.09,0.4,0.11,0.6c0.02,0.2,0.03,0.4,0.02,0.61c-0.01,0.2-0.03,0.4-0.07,0.6
	c-0.04,0.2-0.09,0.4-0.16,0.59c-0.07,0.19-0.15,0.38-0.24,0.56c-0.1,0.18-0.2,0.35-0.33,0.52c-0.12,0.16-0.25,0.32-0.4,0.46
	c-0.14,0.14-0.3,0.28-0.46,0.4c-0.16,0.12-0.34,0.23-0.52,0.32c-0.18,0.1-0.37,0.18-0.56,0.24c-0.19,0.07-0.39,0.12-0.59,0.16
	c-0.2,0.04-0.4,0.06-0.61,0.07c-0.2,0.01-0.41,0-0.61-0.02c-0.2-0.02-0.4-0.06-0.6-0.11c-0.2-0.05-0.39-0.12-0.57-0.2
	c0.08,0.19,0.15,0.38,0.2,0.58c0.05,0.2,0.09,0.4,0.11,0.61c0.02,0.2,0.03,0.41,0.02,0.62c-0.01,0.21-0.03,0.41-0.07,0.61
	c-0.04,0.2-0.09,0.4-0.16,0.59c-0.07,0.19-0.15,0.38-0.25,0.56c-0.1,0.18-0.21,0.35-0.33,0.52c-0.12,0.16-0.26,0.32-0.41,0.46
	c-0.15,0.14-0.3,0.28-0.47,0.4c-0.17,0.12-0.34,0.23-0.53,0.32c-0.18,0.09-0.37,0.17-0.57,0.24c-0.19,0.06-0.39,0.11-0.6,0.15
	c-0.2,0.03-0.41,0.05-0.61,0.06s-0.41-0.01-0.62-0.03c-0.2-0.03-0.4-0.07-0.6-0.13c-0.2-0.06-0.39-0.13-0.58-0.22
	c0.07,0.15,0.13,0.31,0.19,0.48c0.05,0.16,0.09,0.33,0.12,0.5c0.03,0.17,0.05,0.34,0.06,0.51c0.01,0.17,0.01,0.34,0,0.51
	c-0.01,0.17-0.03,0.34-0.07,0.51c-0.03,0.17-0.08,0.33-0.13,0.49c-0.05,0.16-0.12,0.32-0.19,0.48c-0.07,0.15-0.16,0.3-0.25,0.45
	c-0.09,0.14-0.19,0.28-0.3,0.41c-0.11,0.13-0.23,0.25-0.35,0.37c-0.12,0.12-0.26,0.23-0.39,0.33c-0.14,0.1-0.28,0.19-0.43,0.27
	c-0.15,0.08-0.3,0.15-0.46,0.22c-0.16,0.06-0.32,0.12-0.49,0.16c-0.17,0.04-0.33,0.07-0.5,0.1S46.05,77.65,45.87,77.65L45.87,77.65z
	 M13.62,55.75L40.1,72.77c0.02,0.01,0.03,0.03,0.05,0.04l3.24,3.24c0.16,0.16,0.34,0.31,0.53,0.44c0.19,0.13,0.39,0.24,0.61,0.33
	c0.21,0.09,0.43,0.15,0.66,0.2c0.23,0.05,0.46,0.07,0.69,0.07c0.23,0,0.46-0.02,0.69-0.07c0.23-0.05,0.45-0.11,0.66-0.2
	c0.21-0.09,0.42-0.2,0.61-0.33c0.19-0.13,0.37-0.27,0.53-0.44c0.16-0.16,0.31-0.34,0.44-0.53c0.13-0.19,0.24-0.39,0.33-0.61
	c0.09-0.21,0.16-0.43,0.2-0.66c0.05-0.23,0.07-0.46,0.07-0.69s-0.02-0.46-0.07-0.69c-0.05-0.23-0.11-0.45-0.2-0.66
	s-0.2-0.42-0.33-0.61s-0.27-0.37-0.44-0.53l-5.71-5.71c-0.03-0.03-0.05-0.06-0.06-0.09c-0.01-0.03-0.02-0.07-0.02-0.11
	c0-0.04,0.01-0.07,0.02-0.11c0.01-0.03,0.04-0.07,0.06-0.09l0.05-0.05c0.03-0.03,0.06-0.05,0.09-0.06c0.04-0.01,0.07-0.02,0.11-0.02
	c0.04,0,0.07,0.01,0.11,0.02c0.04,0.01,0.07,0.03,0.09,0.06l5.71,5.72c0.16,0.17,0.34,0.32,0.53,0.45c0.19,0.13,0.39,0.24,0.61,0.34
	c0.21,0.09,0.44,0.16,0.67,0.21c0.23,0.05,0.46,0.07,0.69,0.08c0.23,0,0.46-0.02,0.69-0.06c0.23-0.04,0.45-0.11,0.67-0.2
	c0.22-0.09,0.42-0.2,0.62-0.33c0.19-0.13,0.37-0.28,0.54-0.44c0.16-0.17,0.31-0.34,0.44-0.54c0.13-0.19,0.24-0.4,0.33-0.62
	c0.09-0.22,0.15-0.44,0.2-0.67c0.04-0.23,0.06-0.46,0.06-0.69c0-0.23-0.03-0.46-0.08-0.69c-0.05-0.23-0.12-0.45-0.21-0.66
	c-0.09-0.21-0.2-0.42-0.34-0.61c-0.13-0.19-0.28-0.37-0.45-0.53l-5.71-5.72c-0.03-0.03-0.05-0.06-0.07-0.09
	c-0.02-0.04-0.03-0.07-0.03-0.11c0-0.04,0-0.08,0.02-0.11c0.01-0.04,0.04-0.07,0.06-0.1c0.03-0.03,0.06-0.05,0.1-0.06
	c0.04-0.01,0.07-0.02,0.11-0.02c0.04,0,0.08,0.01,0.11,0.03c0.04,0.02,0.07,0.04,0.09,0.07l5.71,5.7c0.16,0.16,0.34,0.31,0.53,0.44
	c0.19,0.13,0.39,0.24,0.61,0.33c0.21,0.09,0.43,0.16,0.66,0.2c0.23,0.05,0.46,0.07,0.69,0.07c0.23,0,0.46-0.02,0.69-0.07
	c0.23-0.05,0.45-0.11,0.66-0.2c0.21-0.09,0.42-0.2,0.61-0.33c0.19-0.13,0.37-0.27,0.53-0.44c0.16-0.16,0.31-0.34,0.44-0.53
	c0.13-0.19,0.24-0.39,0.33-0.61c0.09-0.21,0.15-0.43,0.2-0.66c0.05-0.23,0.07-0.45,0.07-0.69c0-0.23-0.02-0.46-0.07-0.69
	c-0.05-0.23-0.11-0.45-0.2-0.66c-0.09-0.21-0.2-0.42-0.33-0.61s-0.27-0.37-0.44-0.53l-5.72-5.72c-0.03-0.03-0.05-0.06-0.07-0.09
	c-0.02-0.04-0.03-0.07-0.03-0.11c0-0.04,0.01-0.08,0.02-0.11c0.01-0.04,0.04-0.07,0.06-0.1s0.06-0.05,0.1-0.06
	c0.04-0.01,0.07-0.02,0.11-0.02c0.04,0,0.08,0.01,0.11,0.03c0.04,0.02,0.07,0.04,0.09,0.07l5.72,5.72c0.16,0.16,0.34,0.31,0.53,0.44
	c0.19,0.13,0.39,0.24,0.61,0.32c0.21,0.09,0.43,0.15,0.66,0.2c0.23,0.05,0.46,0.07,0.69,0.07c0.23,0,0.46-0.02,0.69-0.07
	c0.23-0.05,0.45-0.11,0.66-0.2c0.21-0.09,0.42-0.2,0.61-0.33c0.19-0.13,0.37-0.27,0.53-0.44c0.16-0.16,0.31-0.34,0.44-0.53
	c0.13-0.19,0.24-0.39,0.33-0.61c0.09-0.21,0.15-0.43,0.2-0.66c0.05-0.23,0.07-0.45,0.07-0.69c0-0.23-0.02-0.46-0.07-0.69
	c-0.05-0.23-0.11-0.45-0.2-0.66c-0.09-0.21-0.2-0.42-0.32-0.61c-0.13-0.19-0.27-0.37-0.44-0.53L49.06,39.42
	c-0.01-0.01-0.02-0.02-0.03-0.04l-8.32-11.67l-0.03-0.03c-0.23-0.23-0.46-0.45-0.69-0.66c-0.24-0.21-0.48-0.42-0.73-0.62
	c-0.25-0.2-0.5-0.4-0.75-0.59c-0.26-0.19-0.52-0.37-0.78-0.55c-0.27-0.18-0.53-0.35-0.81-0.51c-0.27-0.16-0.55-0.32-0.83-0.47
	c-0.28-0.15-0.57-0.29-0.85-0.43c-0.29-0.14-0.58-0.27-0.87-0.39c-0.29-0.12-0.59-0.24-0.89-0.34c-0.3-0.11-0.6-0.21-0.91-0.3
	c-0.3-0.09-0.61-0.18-0.92-0.26c-0.31-0.08-0.62-0.15-0.93-0.21c-0.31-0.06-0.63-0.12-0.94-0.16c-0.32-0.05-0.63-0.09-0.95-0.12
	c-0.32-0.03-0.64-0.05-0.95-0.07c-0.32-0.02-0.64-0.02-0.96-0.02c-0.32,0-0.64,0.01-0.96,0.02c-0.32,0.02-0.64,0.04-0.95,0.07
	c-0.32,0.03-0.63,0.07-0.95,0.12c-0.32,0.05-0.63,0.1-0.94,0.16c-0.31,0.06-0.62,0.13-0.93,0.21c-0.31,0.08-0.62,0.16-0.92,0.26
	c-0.3,0.09-0.61,0.19-0.91,0.3c-0.3,0.11-0.6,0.22-0.89,0.34c-0.29,0.12-0.59,0.25-0.87,0.39c-0.29,0.14-0.57,0.28-0.85,0.43
	c-0.28,0.15-0.56,0.31-0.83,0.47c-0.27,0.16-0.54,0.34-0.81,0.51c-0.27,0.18-0.53,0.36-0.78,0.55c-0.26,0.19-0.51,0.39-0.75,0.59
	c-0.25,0.2-0.49,0.41-0.72,0.63c-0.24,0.21-0.47,0.43-0.69,0.66c-0.23,0.23-0.44,0.46-0.66,0.69c-0.21,0.24-0.42,0.48-0.63,0.73
	c-0.2,0.25-0.4,0.5-0.59,0.75c-0.19,0.26-0.37,0.52-0.55,0.78c-0.18,0.26-0.35,0.53-0.51,0.81c-0.16,0.27-0.32,0.55-0.47,0.83
	c-0.15,0.28-0.29,0.57-0.43,0.86c-0.14,0.29-0.27,0.58-0.39,0.87c-0.12,0.29-0.24,0.59-0.34,0.89c-0.11,0.3-0.21,0.6-0.3,0.91
	c-0.09,0.3-0.18,0.61-0.25,0.92c-0.08,0.31-0.15,0.62-0.21,0.93c-0.06,0.31-0.12,0.63-0.16,0.94s-0.09,0.63-0.12,0.95
	s-0.05,0.64-0.07,0.95c-0.02,0.32-0.02,0.64-0.02,0.96c0,0.32,0.01,0.64,0.02,0.96c0.02,0.32,0.04,0.64,0.07,0.95
	s0.07,0.63,0.12,0.95c0.05,0.32,0.1,0.63,0.16,0.94C7.85,45.59,7.92,45.9,8,46.21c0.08,0.31,0.16,0.62,0.25,0.92
	c0.09,0.3,0.19,0.61,0.3,0.91c0.11,0.3,0.22,0.6,0.34,0.89c0.12,0.29,0.25,0.59,0.39,0.87c0.14,0.29,0.28,0.57,0.43,0.85
	c0.15,0.28,0.31,0.56,0.47,0.83c0.16,0.27,0.33,0.54,0.51,0.81c0.18,0.26,0.36,0.53,0.55,0.78c0.19,0.26,0.39,0.51,0.59,0.75
	c0.2,0.25,0.41,0.49,0.63,0.72c0.21,0.24,0.43,0.47,0.66,0.69L13.62,55.75z"/>
<path class="st5" d="M54.27,35.73l-1.12,1.12c-0.38,0.38-0.79,0.71-1.23,1.01c-0.44,0.3-0.91,0.55-1.4,0.75
	c-0.49,0.2-1,0.36-1.52,0.46c-0.52,0.1-1.05,0.16-1.58,0.16h-5.41l-4.14,4.14c-0.1,0.1-0.21,0.2-0.33,0.3
	c-0.11,0.09-0.23,0.18-0.36,0.26s-0.25,0.16-0.38,0.23c-0.13,0.07-0.26,0.13-0.4,0.19s-0.28,0.11-0.42,0.15
	c-0.14,0.04-0.29,0.08-0.43,0.11c-0.15,0.03-0.29,0.05-0.44,0.06c-0.15,0.01-0.3,0.02-0.44,0.02s-0.3-0.01-0.44-0.02
	c-0.15-0.01-0.29-0.04-0.44-0.06c-0.15-0.03-0.29-0.06-0.43-0.11c-0.14-0.04-0.28-0.09-0.42-0.15s-0.27-0.12-0.4-0.19
	c-0.13-0.07-0.26-0.15-0.38-0.23c-0.12-0.08-0.24-0.17-0.36-0.26c-0.11-0.09-0.22-0.19-0.33-0.3s-0.2-0.21-0.3-0.33
	c-0.09-0.11-0.18-0.23-0.26-0.36s-0.16-0.25-0.23-0.38c-0.07-0.13-0.13-0.26-0.19-0.4c-0.06-0.14-0.11-0.28-0.15-0.42
	c-0.04-0.14-0.08-0.29-0.11-0.43c-0.03-0.15-0.05-0.29-0.07-0.44c-0.01-0.15-0.02-0.3-0.02-0.44s0.01-0.3,0.02-0.44
	c0.01-0.15,0.04-0.29,0.07-0.44c0.03-0.15,0.06-0.29,0.11-0.43c0.04-0.14,0.09-0.28,0.15-0.42c0.06-0.14,0.12-0.27,0.19-0.4
	c0.07-0.13,0.15-0.26,0.23-0.38s0.17-0.24,0.26-0.36c0.09-0.11,0.19-0.22,0.3-0.33l9.45-9.45c0.23-0.23,0.46-0.45,0.7-0.67
	s0.48-0.43,0.73-0.63c0.25-0.2,0.51-0.4,0.77-0.6c0.26-0.19,0.52-0.38,0.79-0.56c0.27-0.18,0.54-0.35,0.82-0.52
	c0.28-0.17,0.56-0.33,0.84-0.48c0.29-0.15,0.58-0.3,0.87-0.44c0.29-0.14,0.59-0.27,0.89-0.39c0.3-0.12,0.6-0.24,0.91-0.35
	s0.61-0.21,0.92-0.3c0.31-0.09,0.62-0.18,0.94-0.26c0.31-0.08,0.63-0.15,0.95-0.21c0.32-0.06,0.64-0.12,0.96-0.17
	c0.32-0.05,0.64-0.09,0.96-0.12c0.32-0.03,0.64-0.06,0.97-0.07c0.32-0.02,0.65-0.02,0.97-0.02c0.32,0,0.65,0.01,0.97,0.02
	c0.32,0.02,0.65,0.04,0.97,0.07c0.32,0.03,0.64,0.07,0.96,0.12c0.32,0.05,0.64,0.1,0.96,0.17c0.32,0.06,0.63,0.13,0.95,0.21
	c0.31,0.08,0.63,0.17,0.94,0.26c0.31,0.09,0.62,0.2,0.92,0.3s0.61,0.23,0.91,0.35c0.3,0.12,0.59,0.25,0.89,0.39
	c0.29,0.14,0.58,0.28,0.87,0.44c0.29,0.15,0.57,0.31,0.84,0.48c0.28,0.17,0.55,0.34,0.82,0.52c0.27,0.18,0.53,0.37,0.79,0.56
	c0.26,0.19,0.51,0.39,0.77,0.6c0.25,0.21,0.49,0.42,0.73,0.63s0.47,0.44,0.7,0.67c0.23,0.23,0.45,0.46,0.67,0.7
	c0.22,0.24,0.43,0.48,0.63,0.73c0.2,0.25,0.4,0.51,0.6,0.77c0.19,0.26,0.38,0.52,0.56,0.79c0.18,0.27,0.35,0.54,0.52,0.82
	c0.17,0.28,0.33,0.56,0.48,0.84c0.15,0.29,0.3,0.57,0.44,0.87c0.14,0.29,0.27,0.59,0.39,0.89c0.12,0.3,0.24,0.6,0.35,0.91
	s0.21,0.61,0.3,0.92s0.18,0.62,0.26,0.94c0.08,0.31,0.15,0.63,0.21,0.95c0.06,0.32,0.12,0.64,0.17,0.96
	c0.05,0.32,0.09,0.64,0.12,0.96c0.03,0.32,0.05,0.64,0.07,0.97c0.02,0.32,0.02,0.65,0.02,0.97c0,0.32-0.01,0.65-0.02,0.97
	c-0.02,0.32-0.04,0.65-0.07,0.97c-0.03,0.32-0.07,0.64-0.12,0.96c-0.05,0.32-0.1,0.64-0.17,0.96c-0.06,0.32-0.13,0.63-0.21,0.95
	c-0.08,0.31-0.16,0.63-0.26,0.94c-0.09,0.31-0.2,0.62-0.3,0.92s-0.23,0.61-0.35,0.91c-0.12,0.3-0.25,0.59-0.39,0.89
	c-0.14,0.29-0.28,0.58-0.44,0.87c-0.15,0.29-0.31,0.57-0.48,0.84c-0.17,0.28-0.34,0.55-0.52,0.82c-0.18,0.27-0.37,0.53-0.56,0.79
	c-0.19,0.26-0.39,0.52-0.6,0.77c-0.21,0.25-0.42,0.49-0.63,0.73c-0.22,0.24-0.44,0.47-0.67,0.7l-2.66,2.66l-0.65-2.16L48.29,39.17
	 M39.1,67.84c-0.18-0.18-0.37-0.33-0.58-0.47c-0.21-0.14-0.43-0.26-0.66-0.35c-0.23-0.1-0.47-0.17-0.71-0.22
	c-0.24-0.05-0.49-0.07-0.74-0.07c-0.25,0-0.5,0.02-0.74,0.07c-0.24,0.05-0.48,0.12-0.71,0.22c-0.23,0.1-0.45,0.21-0.66,0.35
	c-0.21,0.14-0.4,0.3-0.58,0.47c0.17-0.18,0.33-0.37,0.46-0.58c0.13-0.21,0.25-0.43,0.34-0.65c0.09-0.23,0.16-0.47,0.21-0.71
	c0.05-0.24,0.07-0.49,0.07-0.73s-0.03-0.49-0.08-0.73c-0.05-0.24-0.12-0.48-0.22-0.7c-0.1-0.23-0.21-0.44-0.35-0.65
	c-0.14-0.2-0.29-0.39-0.47-0.57c-0.17-0.18-0.36-0.33-0.57-0.47c-0.21-0.14-0.42-0.25-0.65-0.35c-0.23-0.1-0.46-0.17-0.7-0.22
	c-0.24-0.05-0.49-0.08-0.73-0.08c-0.25,0-0.49,0.02-0.73,0.07c-0.24,0.05-0.48,0.11-0.71,0.21c-0.23,0.09-0.45,0.2-0.65,0.34
	c-0.21,0.13-0.4,0.29-0.58,0.46l-2.37,2.37c-0.18,0.18-0.33,0.37-0.47,0.58c-0.14,0.21-0.26,0.43-0.35,0.66
	c-0.1,0.23-0.17,0.47-0.22,0.71c-0.05,0.24-0.07,0.49-0.07,0.74c0,0.25,0.02,0.5,0.07,0.74c0.05,0.24,0.12,0.48,0.22,0.71
	c0.1,0.23,0.21,0.45,0.35,0.66c0.14,0.21,0.3,0.4,0.47,0.58s0.37,0.33,0.58,0.47c0.21,0.14,0.43,0.26,0.66,0.35
	c0.23,0.1,0.47,0.17,0.71,0.22c0.24,0.05,0.49,0.07,0.74,0.07c0.25,0,0.5-0.02,0.74-0.07c0.24-0.05,0.48-0.12,0.71-0.22
	c0.23-0.1,0.45-0.21,0.66-0.35c0.21-0.14,0.4-0.3,0.58-0.47c-0.09,0.09-0.18,0.18-0.26,0.27c-0.08,0.1-0.16,0.19-0.24,0.3
	s-0.14,0.21-0.2,0.32c-0.06,0.11-0.12,0.22-0.17,0.34c-0.05,0.12-0.1,0.24-0.14,0.36c-0.04,0.12-0.07,0.24-0.1,0.37
	c-0.03,0.12-0.05,0.25-0.06,0.38c-0.01,0.13-0.02,0.25-0.03,0.38c0,0.13,0,0.25,0.01,0.38c0.01,0.13,0.03,0.25,0.05,0.38
	c0.02,0.12,0.05,0.25,0.09,0.37c0.04,0.12,0.08,0.24,0.13,0.36c0.05,0.12,0.1,0.23,0.16,0.34c0.06,0.11,0.12,0.22,0.19,0.33
	c0.07,0.11,0.15,0.21,0.23,0.31c0.08,0.1,0.16,0.19,0.25,0.28c0.09,0.09,0.18,0.17,0.28,0.25c0.1,0.08,0.2,0.16,0.31,0.23
	c0.11,0.07,0.21,0.14,0.33,0.19c0.11,0.06,0.23,0.11,0.34,0.16c0.12,0.05,0.24,0.09,0.36,0.13c0.12,0.04,0.24,0.06,0.37,0.09
	s0.25,0.04,0.38,0.05s0.25,0.02,0.38,0.01c0.13,0,0.25-0.01,0.38-0.02c0.13-0.01,0.25-0.04,0.38-0.06c0.12-0.03,0.25-0.06,0.37-0.1
	c0.12-0.04,0.24-0.08,0.36-0.14c0.12-0.05,0.23-0.11,0.34-0.17c0.11-0.06,0.22-0.13,0.32-0.2c0.1-0.07,0.2-0.15,0.3-0.23
	c0.1-0.08,0.19-0.17,0.27-0.26l2.37-2.37c0.18-0.18,0.33-0.37,0.47-0.58c0.14-0.21,0.26-0.43,0.35-0.66
	c0.1-0.23,0.17-0.47,0.22-0.71c0.05-0.24,0.07-0.49,0.07-0.74c0-0.25-0.02-0.5-0.07-0.74c-0.05-0.24-0.12-0.48-0.22-0.71
	c-0.1-0.23-0.21-0.45-0.35-0.66C39.43,68.21,39.28,68.02,39.1,67.84z M28.35,62.47c0.18-0.18,0.33-0.37,0.47-0.58
	c0.14-0.21,0.26-0.43,0.35-0.66c0.1-0.23,0.17-0.47,0.22-0.71c0.05-0.24,0.07-0.49,0.07-0.74c0-0.25-0.02-0.5-0.07-0.74
	c-0.05-0.24-0.12-0.48-0.22-0.71c-0.1-0.23-0.21-0.45-0.35-0.66c-0.14-0.21-0.3-0.4-0.47-0.58s-0.37-0.33-0.58-0.47
	c-0.21-0.14-0.43-0.26-0.66-0.35c-0.23-0.1-0.47-0.17-0.71-0.22c-0.24-0.05-0.49-0.07-0.74-0.07c-0.25,0-0.5,0.02-0.74,0.07
	c-0.24,0.05-0.48,0.12-0.71,0.22c-0.23,0.1-0.45,0.21-0.66,0.35c-0.21,0.14-0.4,0.3-0.58,0.47c0.18-0.18,0.33-0.37,0.47-0.58
	c0.14-0.21,0.26-0.43,0.35-0.66c0.1-0.23,0.17-0.47,0.22-0.71c0.05-0.24,0.07-0.49,0.07-0.74c0-0.25-0.02-0.5-0.07-0.74
	c-0.05-0.24-0.12-0.48-0.22-0.71c-0.1-0.23-0.21-0.45-0.35-0.66c-0.14-0.21-0.3-0.4-0.47-0.58s-0.37-0.33-0.58-0.47
	c-0.21-0.14-0.43-0.26-0.66-0.35c-0.23-0.1-0.47-0.17-0.71-0.22c-0.24-0.05-0.49-0.07-0.74-0.07c-0.25,0-0.5,0.02-0.74,0.07
	c-0.24,0.05-0.48,0.12-0.71,0.22c-0.23,0.1-0.45,0.21-0.66,0.35c-0.21,0.14-0.4,0.3-0.58,0.47l-2.37,2.37
	c-0.17,0.18-0.33,0.37-0.46,0.58c-0.13,0.21-0.25,0.43-0.34,0.66c-0.09,0.23-0.16,0.47-0.21,0.71c-0.05,0.24-0.07,0.49-0.07,0.73
	c0,0.25,0.03,0.49,0.08,0.73s0.12,0.48,0.22,0.71c0.1,0.23,0.21,0.44,0.35,0.65c0.14,0.21,0.29,0.4,0.47,0.57
	c0.17,0.17,0.36,0.33,0.57,0.47c0.21,0.14,0.42,0.25,0.65,0.35c0.23,0.1,0.46,0.17,0.7,0.22c0.24,0.05,0.49,0.08,0.73,0.08
	c0.25,0,0.49-0.02,0.73-0.07c0.24-0.05,0.48-0.11,0.71-0.21c0.23-0.09,0.45-0.2,0.65-0.34c0.21-0.14,0.4-0.29,0.58-0.46
	c-0.17,0.18-0.33,0.37-0.46,0.58c-0.13,0.21-0.25,0.43-0.34,0.66c-0.09,0.23-0.16,0.47-0.21,0.71c-0.05,0.24-0.07,0.49-0.07,0.73
	c0,0.25,0.03,0.49,0.08,0.73c0.05,0.24,0.12,0.48,0.22,0.7c0.1,0.23,0.21,0.44,0.35,0.65c0.14,0.2,0.29,0.39,0.47,0.57
	c0.18,0.18,0.37,0.33,0.57,0.47c0.2,0.14,0.42,0.25,0.65,0.35c0.23,0.1,0.46,0.17,0.7,0.22c0.24,0.05,0.49,0.08,0.73,0.08
	s0.49-0.02,0.73-0.07c0.24-0.05,0.48-0.11,0.71-0.21c0.23-0.09,0.45-0.21,0.65-0.34c0.21-0.13,0.4-0.29,0.58-0.46L28.35,62.47z"/>
<path d="M39.3,67.64c-0.14-0.14-0.3-0.28-0.46-0.4c-0.16-0.12-0.34-0.23-0.52-0.33c-0.18-0.1-0.37-0.18-0.56-0.24
	c-0.19-0.07-0.39-0.12-0.59-0.16c-0.2-0.04-0.4-0.06-0.61-0.07c-0.2-0.01-0.41,0-0.61,0.02c-0.2,0.02-0.4,0.06-0.6,0.11
	c-0.2,0.05-0.39,0.12-0.58,0.2c0.07-0.15,0.13-0.31,0.17-0.48c0.05-0.16,0.09-0.33,0.11-0.49c0.03-0.17,0.05-0.33,0.05-0.5
	c0.01-0.17,0-0.34-0.01-0.51c-0.01-0.17-0.04-0.34-0.07-0.5c-0.03-0.16-0.08-0.33-0.14-0.49c-0.05-0.16-0.12-0.32-0.19-0.47
	c-0.07-0.15-0.16-0.3-0.25-0.44c-0.09-0.14-0.19-0.28-0.3-0.41c-0.11-0.13-0.23-0.25-0.35-0.36c-0.12-0.11-0.26-0.22-0.39-0.32
	c-0.14-0.1-0.28-0.19-0.43-0.27c-0.15-0.08-0.3-0.15-0.46-0.21c-0.16-0.06-0.32-0.11-0.48-0.15c-0.16-0.04-0.33-0.07-0.5-0.09
	c-0.17-0.02-0.34-0.03-0.5-0.03c-0.57,0-1.11,0.11-1.64,0.34c0.08-0.19,0.15-0.38,0.2-0.58c0.05-0.2,0.09-0.4,0.12-0.6
	c0.02-0.2,0.03-0.41,0.02-0.61c-0.01-0.2-0.03-0.41-0.07-0.61c-0.04-0.2-0.09-0.4-0.16-0.59c-0.07-0.19-0.15-0.38-0.24-0.56
	c-0.09-0.18-0.2-0.35-0.32-0.52c-0.12-0.16-0.25-0.32-0.4-0.46c-0.14-0.14-0.3-0.28-0.46-0.4c-0.16-0.12-0.34-0.23-0.52-0.33
	c-0.18-0.1-0.37-0.18-0.56-0.24c-0.19-0.07-0.39-0.12-0.59-0.16c-0.2-0.04-0.4-0.06-0.61-0.07c-0.2-0.01-0.41,0-0.61,0.02
	c-0.2,0.02-0.4,0.06-0.6,0.11c-0.2,0.05-0.39,0.12-0.58,0.2c0.09-0.22,0.17-0.44,0.22-0.67c0.05-0.23,0.09-0.46,0.11-0.7
	c0.02-0.24,0.01-0.47-0.02-0.71c-0.03-0.24-0.07-0.47-0.14-0.69c-0.07-0.23-0.15-0.45-0.25-0.66c-0.1-0.21-0.22-0.41-0.36-0.6
	c-0.14-0.19-0.29-0.37-0.46-0.53c-0.17-0.16-0.35-0.31-0.55-0.45c-0.19-0.13-0.4-0.25-0.62-0.34c-0.22-0.1-0.44-0.18-0.67-0.23
	c-0.23-0.06-0.46-0.1-0.7-0.12c-0.24-0.02-0.47-0.02-0.71,0.01c-0.24,0.02-0.47,0.06-0.69,0.13c-0.23,0.06-0.45,0.14-0.66,0.24
	c-0.21,0.1-0.42,0.22-0.61,0.35c-0.19,0.14-0.37,0.29-0.54,0.45l-2.37,2.37c-0.17,0.17-0.32,0.35-0.46,0.54
	c-0.14,0.19-0.26,0.4-0.36,0.61c-0.1,0.21-0.18,0.44-0.25,0.66c-0.06,0.23-0.11,0.46-0.13,0.7c-0.02,0.24-0.03,0.47-0.01,0.71
	c0.02,0.24,0.06,0.47,0.11,0.7s0.14,0.45,0.23,0.67c0.1,0.22,0.21,0.42,0.35,0.62c0.13,0.2,0.28,0.38,0.45,0.55
	c0.16,0.17,0.34,0.32,0.53,0.46c0.19,0.14,0.39,0.26,0.61,0.36c0.21,0.1,0.43,0.19,0.66,0.25c0.23,0.07,0.46,0.11,0.69,0.14
	c0.24,0.03,0.47,0.03,0.71,0.01c0.24-0.02,0.47-0.05,0.7-0.11s0.45-0.13,0.67-0.23c-0.08,0.19-0.15,0.38-0.2,0.58
	c-0.05,0.2-0.09,0.4-0.11,0.6c-0.02,0.2-0.03,0.41-0.02,0.61c0.01,0.2,0.03,0.41,0.07,0.61s0.09,0.4,0.16,0.59s0.15,0.38,0.24,0.56
	c0.1,0.18,0.2,0.35,0.33,0.52c0.12,0.16,0.25,0.32,0.4,0.46c0.15,0.14,0.3,0.28,0.46,0.4c0.16,0.12,0.34,0.23,0.52,0.32
	c0.18,0.1,0.37,0.18,0.56,0.24c0.19,0.07,0.39,0.12,0.59,0.16c0.2,0.04,0.4,0.06,0.61,0.07c0.2,0.01,0.41,0,0.61-0.02
	s0.4-0.06,0.6-0.12c0.2-0.05,0.39-0.12,0.58-0.2c-0.08,0.19-0.15,0.38-0.2,0.58c-0.05,0.2-0.09,0.4-0.12,0.6
	c-0.02,0.2-0.03,0.41-0.02,0.61c0.01,0.2,0.03,0.41,0.07,0.61c0.04,0.2,0.09,0.4,0.16,0.59c0.07,0.19,0.15,0.38,0.24,0.56
	c0.1,0.18,0.2,0.35,0.32,0.52c0.12,0.16,0.25,0.32,0.4,0.46c0.14,0.15,0.3,0.28,0.46,0.4c0.16,0.12,0.34,0.23,0.52,0.33
	c0.18,0.1,0.37,0.18,0.56,0.24c0.19,0.07,0.39,0.12,0.59,0.16c0.2,0.04,0.4,0.06,0.61,0.07c0.2,0.01,0.41,0,0.61-0.02
	c0.2-0.02,0.4-0.06,0.6-0.11c0.2-0.05,0.39-0.12,0.58-0.2c-0.09,0.22-0.17,0.44-0.22,0.67c-0.05,0.23-0.09,0.46-0.1,0.7
	c-0.02,0.24-0.01,0.47,0.02,0.71c0.03,0.23,0.07,0.46,0.14,0.69c0.07,0.23,0.15,0.45,0.25,0.66c0.1,0.21,0.22,0.41,0.36,0.6
	c0.14,0.19,0.29,0.37,0.46,0.53c0.17,0.16,0.35,0.31,0.55,0.45c0.19,0.13,0.4,0.25,0.62,0.34c0.21,0.1,0.44,0.18,0.67,0.23
	c0.23,0.06,0.46,0.1,0.69,0.12c0.24,0.02,0.47,0.02,0.71,0c0.24-0.02,0.47-0.06,0.69-0.13c0.23-0.06,0.45-0.14,0.66-0.24
	c0.21-0.1,0.42-0.22,0.61-0.35c0.19-0.14,0.37-0.29,0.54-0.45l2.37-2.37c0.1-0.1,0.19-0.19,0.27-0.3c0.08-0.1,0.16-0.21,0.24-0.32
	c0.07-0.11,0.14-0.23,0.21-0.34c0.06-0.12,0.12-0.24,0.17-0.36c0.05-0.12,0.1-0.25,0.14-0.38c0.04-0.13,0.07-0.26,0.1-0.39
	c0.03-0.13,0.05-0.26,0.06-0.4c0.01-0.13,0.02-0.27,0.02-0.4s-0.01-0.27-0.02-0.4c-0.01-0.13-0.03-0.27-0.06-0.4
	c-0.03-0.13-0.06-0.26-0.1-0.39c-0.04-0.13-0.08-0.25-0.14-0.38c-0.05-0.12-0.11-0.24-0.17-0.36c-0.06-0.12-0.13-0.23-0.21-0.34
	c-0.07-0.11-0.15-0.22-0.24-0.32C39.48,67.84,39.39,67.74,39.3,67.64z M20.8,64.63c-0.16-0.16-0.31-0.34-0.44-0.53
	c-0.13-0.19-0.24-0.4-0.32-0.61c-0.09-0.21-0.15-0.43-0.2-0.66c-0.05-0.23-0.07-0.46-0.07-0.69c0-0.23,0.02-0.46,0.07-0.69
	c0.05-0.23,0.11-0.45,0.2-0.66c0.09-0.21,0.2-0.42,0.32-0.61c0.13-0.19,0.27-0.37,0.44-0.53c0.03-0.03,0.05-0.06,0.07-0.09
	c0.02-0.04,0.03-0.07,0.03-0.11c0-0.04,0-0.08-0.02-0.11c-0.01-0.04-0.04-0.07-0.06-0.1c-0.03-0.03-0.06-0.05-0.1-0.06
	c-0.04-0.01-0.07-0.02-0.11-0.02c-0.04,0-0.08,0.01-0.11,0.03c-0.04,0.02-0.07,0.04-0.09,0.07c-0.16,0.16-0.34,0.31-0.53,0.44
	c-0.19,0.13-0.39,0.24-0.61,0.33s-0.43,0.16-0.66,0.2s-0.46,0.07-0.69,0.07c-0.23,0-0.46-0.02-0.69-0.07s-0.45-0.11-0.66-0.2
	c-0.21-0.09-0.42-0.2-0.61-0.33c-0.19-0.13-0.37-0.27-0.53-0.44c-0.16-0.16-0.31-0.34-0.44-0.53c-0.13-0.19-0.24-0.39-0.33-0.61
	s-0.15-0.43-0.2-0.66c-0.05-0.23-0.07-0.45-0.07-0.69c0-0.23,0.02-0.46,0.07-0.69c0.05-0.23,0.11-0.45,0.2-0.66
	c0.09-0.21,0.2-0.42,0.32-0.61s0.27-0.37,0.44-0.53l2.37-2.37c0.16-0.16,0.34-0.3,0.53-0.42c0.19-0.12,0.39-0.23,0.61-0.31
	c0.21-0.09,0.43-0.15,0.65-0.19c0.22-0.04,0.45-0.06,0.68-0.06c0.23,0,0.45,0.03,0.68,0.07c0.22,0.05,0.44,0.11,0.65,0.2
	c0.21,0.09,0.41,0.2,0.6,0.32c0.19,0.13,0.36,0.27,0.53,0.43c0.16,0.16,0.31,0.34,0.43,0.53c0.13,0.19,0.24,0.39,0.32,0.6
	c0.09,0.21,0.16,0.43,0.2,0.65c0.05,0.22,0.07,0.45,0.07,0.68c0,0.23-0.02,0.45-0.06,0.68c-0.04,0.22-0.11,0.44-0.19,0.65
	c-0.09,0.21-0.19,0.41-0.31,0.61c-0.12,0.19-0.27,0.37-0.42,0.53c-0.03,0.03-0.05,0.06-0.06,0.09c-0.01,0.04-0.02,0.07-0.02,0.11
	c0,0.04,0.01,0.07,0.02,0.11c0.01,0.04,0.03,0.07,0.06,0.09c0.03,0.03,0.06,0.05,0.09,0.06c0.03,0.01,0.07,0.02,0.11,0.02
	c0.04,0,0.07-0.01,0.11-0.02c0.04-0.01,0.07-0.04,0.09-0.06c0.16-0.17,0.34-0.32,0.53-0.45c0.19-0.13,0.4-0.25,0.61-0.34
	c0.21-0.09,0.44-0.16,0.67-0.21c0.23-0.05,0.46-0.07,0.69-0.08c0.23,0,0.46,0.02,0.69,0.06c0.23,0.04,0.45,0.11,0.67,0.2
	s0.42,0.2,0.62,0.33c0.19,0.13,0.37,0.28,0.54,0.44c0.16,0.16,0.31,0.34,0.44,0.54c0.13,0.19,0.24,0.4,0.33,0.62
	c0.09,0.22,0.15,0.44,0.2,0.67c0.04,0.23,0.06,0.46,0.06,0.69c0,0.23-0.03,0.46-0.08,0.69c-0.05,0.23-0.12,0.45-0.21,0.67
	c-0.09,0.21-0.2,0.42-0.34,0.61c-0.13,0.19-0.28,0.37-0.45,0.53l-2.37,2.37c-0.16,0.16-0.34,0.31-0.53,0.44
	c-0.19,0.13-0.39,0.24-0.61,0.32c-0.21,0.09-0.43,0.15-0.66,0.2c-0.23,0.05-0.45,0.07-0.68,0.07c-0.23,0-0.46-0.02-0.69-0.07
	c-0.23-0.04-0.45-0.11-0.66-0.2c-0.21-0.09-0.42-0.2-0.61-0.32C21.15,64.94,20.97,64.79,20.8,64.63L20.8,64.63z M38.9,73.02
	l-2.36,2.37c-0.16,0.16-0.34,0.31-0.53,0.44s-0.39,0.24-0.61,0.33c-0.21,0.09-0.43,0.15-0.66,0.2c-0.23,0.05-0.46,0.07-0.69,0.07
	s-0.46-0.02-0.69-0.07c-0.23-0.05-0.45-0.11-0.66-0.2c-0.21-0.09-0.42-0.2-0.61-0.32c-0.19-0.13-0.37-0.27-0.53-0.44
	c-0.16-0.16-0.31-0.34-0.44-0.53c-0.13-0.19-0.24-0.39-0.32-0.61c-0.09-0.21-0.16-0.43-0.2-0.66c-0.05-0.23-0.07-0.46-0.07-0.69
	c0-0.23,0.02-0.46,0.07-0.69c0.05-0.23,0.11-0.45,0.2-0.66c0.09-0.21,0.2-0.42,0.33-0.61c0.13-0.19,0.27-0.37,0.44-0.53
	c0.05-0.06,0.07-0.12,0.07-0.2c0-0.08-0.03-0.14-0.08-0.19c-0.05-0.05-0.12-0.08-0.19-0.08c-0.07,0-0.14,0.02-0.2,0.07
	c-0.16,0.16-0.34,0.31-0.53,0.44c-0.19,0.13-0.39,0.24-0.61,0.33c-0.21,0.09-0.43,0.15-0.66,0.2c-0.23,0.05-0.46,0.07-0.69,0.07
	c-0.23,0-0.46-0.02-0.69-0.07c-0.23-0.05-0.45-0.11-0.66-0.2c-0.21-0.09-0.42-0.2-0.61-0.33c-0.19-0.13-0.37-0.27-0.53-0.44
	c-0.16-0.16-0.31-0.34-0.44-0.53c-0.13-0.19-0.24-0.39-0.33-0.61c-0.09-0.21-0.15-0.43-0.2-0.66c-0.05-0.23-0.07-0.45-0.07-0.69
	c0-0.23,0.02-0.46,0.07-0.69c0.05-0.23,0.11-0.45,0.2-0.66c0.09-0.21,0.2-0.42,0.33-0.61c0.13-0.19,0.27-0.37,0.44-0.53l2.37-2.37
	c0.16-0.16,0.34-0.31,0.53-0.44c0.19-0.13,0.39-0.24,0.61-0.33c0.21-0.09,0.43-0.16,0.66-0.2c0.23-0.05,0.46-0.07,0.69-0.07
	c0.23,0,0.46,0.02,0.69,0.07c0.23,0.05,0.45,0.11,0.66,0.2c0.21,0.09,0.42,0.2,0.61,0.33c0.19,0.13,0.37,0.27,0.53,0.44
	c0.16,0.16,0.31,0.34,0.44,0.53c0.13,0.19,0.24,0.39,0.32,0.61c0.09,0.21,0.16,0.43,0.2,0.66c0.05,0.23,0.07,0.45,0.07,0.69
	c0,0.23-0.02,0.46-0.07,0.69c-0.05,0.23-0.11,0.45-0.2,0.66s-0.2,0.42-0.33,0.61s-0.27,0.37-0.44,0.53
	c-0.03,0.03-0.05,0.06-0.06,0.09c-0.01,0.04-0.02,0.07-0.02,0.11c0,0.04,0.01,0.07,0.02,0.11c0.01,0.04,0.04,0.07,0.06,0.09
	c0.03,0.03,0.06,0.05,0.09,0.06c0.03,0.01,0.07,0.02,0.11,0.02c0.04,0,0.07-0.01,0.11-0.02c0.03-0.01,0.06-0.04,0.09-0.06
	c0.16-0.16,0.34-0.3,0.53-0.42c0.19-0.12,0.39-0.23,0.61-0.31c0.21-0.08,0.43-0.15,0.66-0.19c0.22-0.04,0.45-0.06,0.68-0.06
	c0.23,0,0.45,0.03,0.68,0.07c0.22,0.05,0.44,0.11,0.65,0.2c0.21,0.09,0.41,0.2,0.6,0.32s0.36,0.27,0.53,0.43
	c0.16,0.16,0.31,0.34,0.43,0.53c0.13,0.19,0.24,0.39,0.32,0.6c0.09,0.21,0.15,0.43,0.2,0.65c0.05,0.22,0.07,0.45,0.07,0.68
	s-0.02,0.45-0.06,0.68c-0.04,0.22-0.1,0.44-0.19,0.65c-0.08,0.21-0.19,0.41-0.31,0.61C39.2,72.67,39.06,72.85,38.9,73.02L38.9,73.02
	z"/>
<path d="M66.23,58.42c-0.06,0-0.12-0.02-0.17-0.06c-0.05-0.04-0.08-0.09-0.1-0.15l-0.63-2.09L48.19,39.47
	c-0.25,0.02-0.51,0.03-0.77,0.03h-5.29l-4.06,4.06c-0.11,0.11-0.23,0.22-0.35,0.32c-0.12,0.1-0.25,0.19-0.38,0.28
	c-0.13,0.09-0.27,0.17-0.4,0.24c-0.14,0.07-0.28,0.14-0.43,0.2c-0.15,0.06-0.29,0.11-0.44,0.16c-0.15,0.05-0.3,0.08-0.46,0.11
	c-0.15,0.03-0.31,0.05-0.47,0.07c-0.16,0.02-0.31,0.02-0.47,0.02s-0.31-0.01-0.47-0.02c-0.16-0.02-0.31-0.04-0.47-0.07
	c-0.15-0.03-0.31-0.07-0.46-0.11c-0.15-0.05-0.3-0.1-0.44-0.16c-0.15-0.06-0.29-0.13-0.43-0.2c-0.14-0.07-0.27-0.16-0.4-0.24
	c-0.13-0.09-0.26-0.18-0.38-0.28c-0.12-0.1-0.24-0.21-0.35-0.32c-0.11-0.11-0.22-0.23-0.32-0.35c-0.1-0.12-0.19-0.25-0.28-0.38
	c-0.09-0.13-0.17-0.27-0.24-0.4c-0.07-0.14-0.14-0.28-0.2-0.43c-0.06-0.15-0.11-0.29-0.16-0.44c-0.05-0.15-0.08-0.3-0.11-0.46
	c-0.03-0.15-0.05-0.31-0.07-0.47c-0.02-0.16-0.02-0.31-0.02-0.47s0.01-0.31,0.02-0.47c0.02-0.16,0.04-0.31,0.07-0.47
	c0.03-0.15,0.07-0.31,0.11-0.46c0.05-0.15,0.1-0.3,0.16-0.44c0.06-0.15,0.13-0.29,0.2-0.43c0.07-0.14,0.16-0.27,0.24-0.4
	c0.09-0.13,0.18-0.26,0.28-0.38c0.1-0.12,0.21-0.24,0.32-0.35l9.45-9.45c0.23-0.23,0.47-0.46,0.71-0.68
	c0.24-0.22,0.49-0.43,0.75-0.64s0.51-0.41,0.78-0.61c0.26-0.2,0.53-0.39,0.81-0.57c0.27-0.18,0.55-0.36,0.83-0.53
	c0.28-0.17,0.57-0.33,0.86-0.48c0.29-0.15,0.58-0.3,0.88-0.44c0.3-0.14,0.6-0.27,0.9-0.4c0.3-0.13,0.61-0.24,0.92-0.35
	c0.31-0.11,0.62-0.21,0.93-0.31c0.31-0.1,0.63-0.18,0.95-0.26c0.32-0.08,0.64-0.15,0.96-0.22c0.32-0.06,0.65-0.12,0.97-0.17
	c0.33-0.05,0.65-0.09,0.98-0.12c0.33-0.03,0.65-0.06,0.98-0.07c0.33-0.02,0.66-0.02,0.98-0.02c0.33,0,0.66,0.01,0.98,0.02
	c0.33,0.02,0.66,0.04,0.98,0.07c0.33,0.03,0.65,0.07,0.98,0.12c0.32,0.05,0.65,0.1,0.97,0.17c0.32,0.06,0.64,0.14,0.96,0.22
	c0.32,0.08,0.63,0.17,0.95,0.26c0.31,0.1,0.63,0.2,0.94,0.31c0.31,0.11,0.62,0.23,0.92,0.35c0.3,0.13,0.6,0.26,0.9,0.4
	c0.3,0.14,0.59,0.29,0.88,0.44c0.29,0.15,0.58,0.32,0.86,0.48c0.28,0.17,0.56,0.34,0.83,0.53c0.27,0.18,0.54,0.37,0.81,0.57
	c0.26,0.19,0.52,0.4,0.78,0.61c0.25,0.21,0.5,0.42,0.75,0.64c0.24,0.22,0.48,0.45,0.71,0.68c0.23,0.23,0.46,0.47,0.68,0.71
	c0.22,0.24,0.44,0.49,0.64,0.75c0.21,0.25,0.41,0.51,0.61,0.78c0.2,0.26,0.39,0.53,0.57,0.8c0.18,0.27,0.36,0.55,0.53,0.83
	c0.17,0.28,0.33,0.57,0.48,0.86c0.15,0.29,0.3,0.58,0.44,0.88c0.14,0.3,0.27,0.6,0.4,0.9c0.13,0.3,0.24,0.61,0.35,0.92
	c0.11,0.31,0.21,0.62,0.31,0.94c0.1,0.31,0.18,0.63,0.26,0.95c0.08,0.32,0.15,0.64,0.22,0.96c0.06,0.32,0.12,0.65,0.17,0.97
	c0.05,0.33,0.09,0.65,0.12,0.98c0.03,0.33,0.06,0.65,0.07,0.98c0.02,0.33,0.02,0.66,0.02,0.98c0,0.33-0.01,0.66-0.02,0.98
	c-0.02,0.33-0.04,0.65-0.07,0.98c-0.03,0.33-0.07,0.65-0.12,0.98c-0.05,0.33-0.1,0.65-0.17,0.97c-0.06,0.32-0.14,0.64-0.22,0.96
	c-0.08,0.32-0.17,0.63-0.26,0.95c-0.1,0.31-0.2,0.63-0.31,0.93c-0.11,0.31-0.23,0.62-0.35,0.92c-0.13,0.3-0.26,0.6-0.4,0.9
	c-0.14,0.3-0.29,0.59-0.44,0.88c-0.15,0.29-0.32,0.58-0.48,0.86c-0.17,0.28-0.34,0.56-0.53,0.83c-0.18,0.27-0.37,0.54-0.57,0.81
	c-0.19,0.26-0.4,0.52-0.61,0.78c-0.21,0.25-0.42,0.5-0.64,0.75c-0.22,0.24-0.45,0.48-0.68,0.71l-2.67,2.65
	C66.38,58.39,66.31,58.42,66.23,58.42z M48.9,39.37l16.87,16.4c0.03,0.03,0.06,0.08,0.07,0.12l0.52,1.71l2.33-2.33
	c0.23-0.23,0.44-0.46,0.66-0.69c0.21-0.24,0.42-0.48,0.62-0.72c0.2-0.25,0.4-0.5,0.59-0.75c0.19-0.26,0.37-0.52,0.55-0.78
	c0.18-0.26,0.35-0.53,0.51-0.81c0.16-0.27,0.32-0.55,0.47-0.83c0.15-0.28,0.29-0.57,0.43-0.85c0.14-0.29,0.27-0.58,0.39-0.87
	c0.12-0.29,0.24-0.59,0.34-0.89c0.11-0.3,0.21-0.6,0.3-0.91c0.09-0.31,0.18-0.61,0.26-0.92c0.08-0.31,0.15-0.62,0.21-0.93
	c0.06-0.31,0.12-0.63,0.16-0.94c0.05-0.32,0.09-0.63,0.12-0.95c0.03-0.32,0.05-0.63,0.07-0.95c0.02-0.32,0.02-0.64,0.02-0.96
	c0-0.32-0.01-0.64-0.02-0.96c-0.02-0.32-0.04-0.64-0.07-0.95s-0.07-0.63-0.12-0.95c-0.05-0.32-0.1-0.63-0.16-0.94
	c-0.06-0.31-0.13-0.62-0.21-0.93c-0.08-0.31-0.16-0.62-0.25-0.92c-0.09-0.31-0.19-0.61-0.3-0.91c-0.11-0.3-0.22-0.6-0.34-0.89
	c-0.12-0.29-0.25-0.59-0.39-0.87c-0.14-0.29-0.28-0.57-0.43-0.85c-0.15-0.28-0.31-0.56-0.47-0.83c-0.16-0.27-0.34-0.54-0.51-0.81
	c-0.18-0.26-0.36-0.53-0.55-0.78c-0.19-0.26-0.39-0.51-0.59-0.75c-0.2-0.25-0.41-0.49-0.63-0.72c-0.21-0.24-0.44-0.47-0.66-0.69
	c-0.23-0.23-0.46-0.44-0.69-0.66c-0.24-0.21-0.48-0.42-0.73-0.63c-0.25-0.2-0.5-0.4-0.75-0.59c-0.26-0.19-0.52-0.37-0.78-0.55
	c-0.27-0.18-0.53-0.35-0.81-0.51c-0.27-0.16-0.55-0.32-0.83-0.47c-0.28-0.15-0.57-0.29-0.86-0.43c-0.29-0.14-0.58-0.27-0.87-0.39
	c-0.29-0.12-0.59-0.24-0.89-0.34c-0.3-0.11-0.6-0.21-0.91-0.3c-0.31-0.09-0.61-0.18-0.92-0.25c-0.31-0.08-0.62-0.15-0.93-0.21
	c-0.31-0.06-0.63-0.12-0.94-0.16c-0.32-0.05-0.63-0.09-0.95-0.12c-0.32-0.03-0.64-0.05-0.95-0.07c-0.32-0.02-0.64-0.02-0.96-0.02
	c-0.32,0-0.64,0.01-0.96,0.02c-0.32,0.02-0.64,0.04-0.95,0.07c-0.32,0.03-0.63,0.07-0.95,0.12s-0.63,0.1-0.94,0.16
	c-0.31,0.06-0.62,0.13-0.93,0.21c-0.31,0.08-0.62,0.16-0.92,0.26c-0.3,0.09-0.61,0.19-0.91,0.3c-0.3,0.11-0.6,0.22-0.89,0.34
	c-0.29,0.12-0.59,0.25-0.87,0.39C46.29,24,46,24.15,45.72,24.3c-0.28,0.15-0.56,0.31-0.83,0.47c-0.27,0.16-0.54,0.34-0.81,0.51
	c-0.27,0.18-0.53,0.36-0.78,0.55c-0.26,0.19-0.51,0.39-0.75,0.59c-0.25,0.2-0.49,0.41-0.73,0.63c-0.24,0.21-0.47,0.43-0.69,0.66
	l-9.45,9.45c-0.1,0.1-0.19,0.2-0.27,0.31c-0.09,0.11-0.17,0.22-0.24,0.34c-0.08,0.12-0.15,0.23-0.21,0.36
	c-0.06,0.12-0.12,0.25-0.17,0.38c-0.05,0.13-0.1,0.26-0.14,0.39c-0.04,0.13-0.07,0.27-0.1,0.4c-0.03,0.14-0.05,0.27-0.06,0.41
	c-0.01,0.14-0.02,0.27-0.02,0.41c0,0.14,0.01,0.28,0.02,0.41c0.01,0.14,0.04,0.27,0.06,0.41c0.03,0.14,0.06,0.27,0.1,0.4
	c0.04,0.13,0.09,0.26,0.14,0.39s0.11,0.25,0.18,0.37c0.07,0.12,0.14,0.24,0.21,0.35c0.08,0.11,0.16,0.22,0.25,0.33
	s0.18,0.21,0.28,0.31c0.1,0.1,0.2,0.19,0.31,0.28c0.11,0.09,0.22,0.17,0.33,0.25c0.11,0.08,0.23,0.15,0.35,0.21
	c0.12,0.07,0.24,0.13,0.37,0.18s0.26,0.1,0.39,0.14c0.13,0.04,0.27,0.07,0.4,0.1c0.14,0.03,0.27,0.05,0.41,0.06
	c0.14,0.01,0.28,0.02,0.41,0.02c0.14,0,0.28,0,0.41-0.02c0.14-0.01,0.27-0.03,0.41-0.06s0.27-0.06,0.4-0.1
	c0.13-0.04,0.26-0.08,0.39-0.14c0.13-0.05,0.25-0.11,0.37-0.17c0.12-0.06,0.24-0.13,0.36-0.21c0.12-0.08,0.23-0.16,0.34-0.24
	c0.11-0.09,0.21-0.18,0.31-0.27l4.14-4.14c0.06-0.05,0.12-0.08,0.2-0.08h5.41c0.27,0,0.54-0.01,0.81-0.04c0.02,0,0.04,0,0.06,0
	c0.88-0.1,1.73-0.34,2.53-0.72c0.8-0.39,1.52-0.89,2.14-1.52l1.12-1.12c0.06-0.05,0.12-0.07,0.2-0.07c0.07,0,0.14,0.03,0.19,0.08
	c0.05,0.05,0.08,0.12,0.08,0.19c0,0.08-0.02,0.14-0.07,0.2l-1.13,1.12c-0.6,0.61-1.29,1.11-2.04,1.5
	C50.55,38.95,49.75,39.23,48.9,39.37z"/>
<g>
	<g transform="translate(585.670126, 300.980466)">
		<g>
			<path class="st0" d="M-496.23-263.26h9.63v1.78l-3.34,0.43l4.87,16.57l1.03,4.94l1.17-4.94l4.09-13.54l-0.96-3.02l-2.52-0.43
				v-1.78h9.99v1.78l-3.48,0.43l4.8,16.57l1.21,5.33l1-5.33l4.48-16.57l-3.52-0.43v-1.78h8.46v1.78l-2.34,0.43l-7.07,24.38h-3.48
				l-5.44-17.81l-5.26,17.81h-3.38l-7.57-24.35l-2.34-0.46V-263.26z"/>
		</g>
	</g>
</g>
<g>
	<g transform="translate(727.390783, 300.980466)">
		<g>
			<path class="st0" d="M-591.39-236.46c-2.87,0-5.06-0.93-6.56-2.81c-1.5-1.87-2.26-4.37-2.26-7.5c0-2.06,0.39-3.87,1.17-5.44
				c0.78-1.56,1.88-2.77,3.29-3.63c1.41-0.85,3.02-1.28,4.82-1.28c2.2,0,3.91,0.61,5.13,1.83c1.22,1.22,1.87,2.97,1.94,5.24
				c0,1.45-0.08,2.55-0.25,3.3h-12.23c0.05,2.35,0.59,4.24,1.63,5.67c1.04,1.43,2.52,2.15,4.44,2.15c0.95,0,1.94-0.17,2.97-0.51
				c1.03-0.34,1.83-0.75,2.4-1.23l0.67,1.57c-0.69,0.71-1.71,1.33-3.06,1.85C-588.62-236.72-589.99-236.46-591.39-236.46z
				 M-587.76-248.62c0.07-0.5,0.11-1.01,0.11-1.53c-0.02-1.54-0.35-2.75-0.98-3.64c-0.63-0.89-1.62-1.33-2.97-1.33
				c-1.37,0-2.47,0.5-3.29,1.49c-0.82,0.99-1.29,2.66-1.4,5.01H-587.76z"/>
		</g>
	</g>
</g>
<g>
	<g transform="translate(804.486816, 300.980466)">
		<g>
			<path class="st0" d="M-655.3-263.37l-2.88-0.39v-1.53l5.72-0.67h0.07l0.78,0.53v26.55l3.02,0.29v1.74h-9.6v-1.74l2.88-0.32
				V-263.37z"/>
		</g>
	</g>
</g>
<g>
	<g transform="translate(851.679796, 300.980466)">
		<g>
			<path class="st0" d="M-690.66-263.37l-2.88-0.39v-1.53l5.72-0.67h0.07l0.78,0.53v26.55l3.02,0.29v1.74h-9.6v-1.74l2.88-0.32
				V-263.37z"/>
		</g>
	</g>
</g>
<g>
	<g transform="translate(898.879869, 300.980466)">
		<g>
			<path class="st3" d="M-719.9-261.38l-6.12,0.21l-1.24,7.43h-2.35l0.6-9.53h22.15l0.42,9.53h-2.24l-1.17-7.43l-6.15-0.21v22.43
				l5.05,0.36v1.74h-13.58v-1.74l4.62-0.36V-261.38z"/>
		</g>
	</g>
</g>
<g>
	<g transform="translate(996.950554, 300.980466)">
		<g>
			<path class="st3" d="M-802.09-242.18c0-2.23,1.11-3.87,3.34-4.92c2.23-1.06,5.05-1.62,8.46-1.69v-1c0-1.11-0.12-1.99-0.36-2.63
				c-0.24-0.64-0.65-1.11-1.23-1.4c-0.58-0.3-1.4-0.45-2.47-0.45c-1.21,0-2.3,0.17-3.26,0.52c-0.96,0.34-1.91,0.76-2.86,1.26
				l-0.89-1.85c0.31-0.26,0.88-0.6,1.7-1.03c0.83-0.43,1.79-0.8,2.88-1.14c1.09-0.33,2.18-0.5,3.27-0.5c1.68,0,3.01,0.23,4,0.69
				c0.98,0.46,1.69,1.2,2.12,2.22c0.43,1.02,0.64,2.38,0.64,4.09v11.41h2.1v1.56c-0.47,0.12-1.07,0.24-1.79,0.35
				c-0.72,0.12-1.36,0.18-1.9,0.18c-0.66,0-1.11-0.1-1.35-0.3c-0.24-0.2-0.36-0.65-0.36-1.34v-1.17c-0.71,0.71-1.58,1.36-2.61,1.96
				c-1.03,0.59-2.2,0.89-3.5,0.89c-1.71,0-3.12-0.49-4.25-1.47C-801.53-238.92-802.09-240.33-802.09-242.18z M-794.62-238.88
				c0.62,0,1.33-0.19,2.13-0.57c0.81-0.38,1.54-0.83,2.21-1.35v-6.11c-2.58,0-4.53,0.4-5.85,1.19c-1.31,0.79-1.97,1.83-1.97,3.11
				c0,1.28,0.31,2.22,0.94,2.83C-796.54-239.18-795.69-238.88-794.62-238.88z"/>
		</g>
	</g>
</g>
<g>
	<g transform="translate(1076.455838, 300.980466)">
		<g>
			<path class="st3" d="M-859.06-263.37l-2.88-0.39v-1.53l5.72-0.67h0.07l0.78,0.53v26.55l3.02,0.29v1.74h-9.6v-1.74l2.88-0.32
				V-263.37z"/>
		</g>
	</g>
</g>
<g>
	<g transform="translate(1123.648817, 300.980466)">
		<g>
			<path class="st3" d="M-895.12-263.37l-2.77-0.39v-1.53l5.66-0.67h0.04l0.78,0.53v17.38l-0.07,2.1l8.21-8.5l-2.67-0.5v-1.63h8.6
				v1.63l-2.81,0.5l-5.23,5.08l6.76,10.49l2.2,0.29v1.74h-8.64v-1.74l2.24-0.32l-5.01-8.25l-3.66,3.63l0.07,1.81v2.81l2.52,0.32
				v1.74h-8.46v-1.74l2.24-0.32V-263.37z"/>
		</g>
	</g>
</g>
<path class="st6" d="M89.1,37.63h9.67v1.78l-3.36,0.44l4.89,16.63l1.04,4.97l1.18-4.97l4.11-13.6l-0.96-3.03l-2.54-0.44v-1.78h10.03
	v1.78l-3.5,0.44l4.82,16.63l1.22,5.36l0.99-5.36l4.5-16.63l-3.53-0.44v-1.78h8.5v1.78l-2.36,0.44l-7.1,24.48h-3.5l-5.46-17.88
	l-5.28,17.88h-3.39l-7.6-24.45l-2.36-0.47V37.63z M135.86,64.54c-2.88,0-5.08-0.94-6.59-2.82c-1.51-1.88-2.27-4.4-2.27-7.54
	c0-2.07,0.39-3.89,1.18-5.46c0.78-1.57,1.89-2.79,3.3-3.64c1.42-0.86,3.03-1.29,4.84-1.29c2.21,0,3.93,0.61,5.16,1.84
	c1.23,1.23,1.87,2.98,1.94,5.27c0,1.45-0.08,2.56-0.24,3.32H130.9c0.05,2.36,0.59,4.26,1.64,5.7c1.05,1.44,2.53,2.15,4.46,2.15
	c0.95,0,1.95-0.17,2.98-0.51c1.03-0.34,1.84-0.75,2.41-1.23l0.67,1.57c-0.68,0.72-1.71,1.33-3.07,1.86
	C138.65,64.28,137.27,64.54,135.86,64.54z M139.51,52.33c0.07-0.5,0.1-1.01,0.1-1.53c-0.02-1.55-0.35-2.76-0.98-3.65
	c-0.63-0.89-1.62-1.34-2.98-1.34c-1.38,0-2.48,0.5-3.3,1.5c-0.82,1-1.29,2.68-1.4,5.03H139.51z M149.1,37.51l-2.89-0.39v-1.53
	l5.74-0.68h0.07l0.78,0.54v26.67l3.03,0.28v1.75h-9.63V62.4l2.89-0.32V37.51z M160.99,37.51l-2.88-0.39v-1.53l5.74-0.68h0.07
	l0.78,0.54v26.67l3.03,0.28v1.75h-9.63V62.4l2.88-0.32V37.51z M179.02,39.52l-6.14,0.21l-1.25,7.46h-2.35l0.6-9.56h22.24l0.43,9.56
	h-2.25l-1.18-7.46l-6.18-0.21v22.52l5.07,0.36v1.75h-13.64V62.4l4.64-0.36V39.52z M194.98,58.8c0-2.24,1.12-3.88,3.36-4.94
	c2.24-1.06,5.07-1.63,8.5-1.7v-1c0-1.12-0.12-2-0.36-2.64c-0.24-0.64-0.65-1.12-1.23-1.41c-0.58-0.3-1.41-0.44-2.48-0.44
	c-1.21,0-2.3,0.17-3.27,0.52c-0.96,0.34-1.91,0.76-2.87,1.26l-0.9-1.86c0.31-0.26,0.89-0.61,1.72-1.04
	c0.83-0.43,1.79-0.81,2.89-1.14c1.1-0.33,2.2-0.5,3.29-0.5c1.69,0,3.02,0.23,4.01,0.7c0.99,0.46,1.7,1.2,2.13,2.23
	c0.43,1.02,0.64,2.39,0.64,4.1V62.4h2.1v1.58c-0.47,0.12-1.07,0.23-1.79,0.35c-0.73,0.12-1.37,0.18-1.92,0.18
	c-0.66,0-1.11-0.1-1.35-0.3c-0.24-0.2-0.36-0.65-0.36-1.33v-1.19c-0.71,0.71-1.59,1.37-2.62,1.97c-1.03,0.59-2.21,0.89-3.52,0.89
	c-1.71,0-3.14-0.49-4.27-1.48C195.54,62.07,194.98,60.65,194.98,58.8z M202.47,62.12c0.62,0,1.34-0.19,2.14-0.58
	c0.81-0.38,1.55-0.84,2.21-1.36v-6.14c-2.59,0-4.55,0.4-5.87,1.19c-1.32,0.8-1.98,1.84-1.98,3.12c0,1.29,0.31,2.24,0.94,2.85
	C200.55,61.82,201.4,62.12,202.47,62.12z M217.61,37.51l-2.88-0.39v-1.53l5.74-0.68h0.07l0.78,0.54v26.67l3.03,0.28v1.75h-9.63V62.4
	l2.88-0.32V37.51z M228.78,37.51L226,37.12v-1.53l5.67-0.68h0.03l0.78,0.54v17.46l-0.07,2.1l8.24-8.53l-2.68-0.5v-1.64h8.64v1.64
	l-2.81,0.5l-5.25,5.11l6.78,10.54l2.21,0.28v1.75h-8.67V62.4l2.25-0.32l-5.04-8.28l-3.68,3.64l0.07,1.82v2.81l2.54,0.32v1.75h-8.5
	V62.4l2.25-0.32V37.51z"/>
</svg>
