<?xml version="1.0" encoding="utf-8"?>
<!-- Generator: Adobe Illustrator 24.3.0, SVG Export Plug-In . SVG Version: 6.00 Build 0)  -->
<svg version="1.1" id="Layer_1" xmlns="http://www.w3.org/2000/svg" xmlns:xlink="http://www.w3.org/1999/xlink" x="0px" y="0px"
	 viewBox="0 0 100 100" style="enable-background:new 0 0 100 100;" xml:space="preserve">
<style type="text/css">
	.st0{fill:#8A252C;}
	.st1{fill:#F9DA4A;}
	.st2{fill:#4B8522;}
	.st3{fill:#B5E61D;}
</style>
<g id="Path_3">
	<g>
		<path class="st0" d="M94.38,23.58c-1.57-2.78-3.44-5.46-5.97-7.76C77.09,5.52,61.34,5.69,50.07,13.83l0.02-0.02
			c-11.27-8.11-27-8.28-38.32,2.02C2.32,24.41,0.54,37.53,4.72,49.05c3.26,9,27.04,29.72,39.3,39.97c0.93,0.78,1.98,1.37,3.13,1.76
			c1.15,0.39,2.34,0.56,3.55,0.51c1.22-0.05,2.38-0.32,3.49-0.81c1.11-0.49,2.1-1.16,2.97-2.02l32.95-32.77
			C96.88,48.11,100.68,34.73,94.38,23.58z"/>
	</g>
</g>
<g id="Path_4">
	<g>
		<path d="M94.36,23.62c-1.85-3.27-3.75-5.74-5.99-7.78C82.92,10.89,76.26,8.15,69.1,7.9c-3.4-0.1-6.72,0.35-9.98,1.34
			c-3.25,0.99-6.26,2.47-9.03,4.44c-2.77-1.97-5.79-3.45-9.04-4.44c-3.26-0.99-6.58-1.43-9.99-1.34
			c-7.15,0.25-13.81,2.99-19.25,7.94c-2.26,2.05-4.13,4.41-5.61,7.07c-1.48,2.66-2.5,5.5-3.06,8.49
			c-1.09,5.74-0.55,11.87,1.59,17.74c1.37,3.81,8.3,14.03,39.12,39.8c1.86,1.56,4,2.34,6.43,2.35c1.32,0,2.6-0.25,3.82-0.76
			c1.22-0.51,2.3-1.23,3.24-2.17l32.72-32.5l0.01-0.01c3.53-3.94,6.1-9.32,7.07-14.76C98.25,34.85,97.29,28.8,94.36,23.62z
			 M96.51,40.98c-0.95,5.32-3.46,10.58-6.91,14.43L56.88,87.9c-0.83,0.83-1.77,1.48-2.84,1.95c-1.07,0.47-2.19,0.73-3.36,0.78
			c-1.17,0.05-2.3-0.11-3.41-0.49c-1.11-0.38-2.11-0.94-3-1.7C33.66,79.58,8.63,57.98,5.35,48.93c-4.43-12.22-1.78-24.72,6.91-32.61
			c5.32-4.84,11.83-7.52,18.83-7.76c0.34-0.02,0.66-0.02,0.99-0.02c3.18,0.01,6.28,0.51,9.3,1.49c3.02,0.98,5.83,2.39,8.41,4.24
			c0.01,0.02,0.03,0.05,0.05,0.07c0.13,0.13,0.27,0.14,0.42,0.03c2.73-1.98,5.71-3.47,8.93-4.46c3.22-0.99,6.52-1.44,9.89-1.35
			c7,0.24,13.52,2.92,18.85,7.76c2.19,1.99,4.05,4.41,5.86,7.62C96.65,28.99,97.59,34.88,96.51,40.98z"/>
	</g>
</g>
<g id="Path_10">
	<g>
		<path class="st1" d="M91.57,23.82c-1.51-2.73-3.32-5.37-5.77-7.63C74.86,6.07,59.64,6.24,48.75,14.24l0.01-0.02
			C37.87,6.24,22.67,6.08,11.74,16.2C2.62,24.64,0.9,37.54,4.94,48.86c3.15,8.85,26.13,29.21,37.97,39.29
			c0.9,0.77,1.91,1.34,3.02,1.73c1.11,0.38,2.26,0.55,3.43,0.5c1.17-0.05,2.3-0.32,3.38-0.8c1.08-0.48,2.03-1.14,2.87-1.99
			l31.83-32.21C93.98,47.94,97.65,34.79,91.57,23.82z"/>
	</g>
</g>
<g id="Path_11">
	<g>
		<path d="M91.93,24.03c-1.8-3.25-3.65-5.71-5.84-7.73c-5.3-4.92-11.79-7.64-18.76-7.88c-3.31-0.1-6.55,0.35-9.71,1.33
			s-6.1,2.45-8.8,4.41c-2.7-1.96-5.63-3.43-8.8-4.41c-3.17-0.98-6.41-1.42-9.72-1.33c-6.96,0.24-13.44,2.97-18.74,7.89
			c-2.2,2.04-4.02,4.38-5.46,7.03c-1.44,2.65-2.44,5.46-2.98,8.44c-1.06,5.7-0.53,11.8,1.54,17.64c1.34,3.78,8.08,13.95,38.09,39.55
			c1.81,1.55,3.9,2.33,6.26,2.33c1.29,0,2.53-0.25,3.72-0.76s2.24-1.22,3.15-2.15l31.85-32.3l0.01-0.01
			c3.43-3.92,5.94-9.26,6.88-14.67C95.72,35.19,94.79,29.19,91.93,24.03z M94.02,41.29c-0.92,5.29-3.37,10.51-6.73,14.34
			l-31.85,32.3c-0.8,0.82-1.73,1.47-2.77,1.94s-2.13,0.73-3.27,0.78c-1.14,0.05-2.24-0.11-3.32-0.49c-1.08-0.37-2.05-0.94-2.92-1.68
			c-10.33-8.81-34.7-30.28-37.9-39.27C0.96,37.05,3.54,24.63,12,16.78c5.18-4.81,11.52-7.47,18.33-7.71
			c0.33-0.02,0.64-0.02,0.97-0.02c3.09,0.01,6.11,0.51,9.06,1.48c2.94,0.97,5.67,2.38,8.19,4.21c0.01,0.02,0.03,0.05,0.05,0.07
			c0.13,0.13,0.27,0.14,0.41,0.03c2.66-1.97,5.56-3.45,8.69-4.43c3.14-0.99,6.35-1.44,9.63-1.34c6.82,0.24,13.16,2.9,18.35,7.72
			c2.13,1.98,3.94,4.38,5.71,7.57C94.16,29.37,95.08,35.23,94.02,41.29z"/>
	</g>
</g>
<g>
	<g id="Path_12">
		<g>
			<path class="st2" d="M91.95,31.2c-0.33-1.65-0.81-3.25-1.45-4.8c-0.64-1.55-1.43-3.03-2.36-4.42c-0.93-1.4-1.99-2.69-3.18-3.88
				c-1.19-1.19-2.48-2.25-3.88-3.18c-1.4-0.93-2.87-1.72-4.42-2.36c-1.55-0.64-3.15-1.13-4.8-1.45c-1.65-0.33-3.31-0.49-4.99-0.49
				c-1.68,0-3.34,0.16-4.99,0.49c-1.65,0.33-3.25,0.81-4.8,1.45c-1.55,0.64-3.02,1.43-4.42,2.36c-1.4,0.93-2.69,1.99-3.88,3.18
				l-0.01,0.01l-0.03-0.03c-1.19-1.18-2.48-2.23-3.88-3.15c-1.4-0.92-2.87-1.7-4.42-2.34s-3.14-1.11-4.79-1.43
				c-1.64-0.32-3.3-0.48-4.97-0.47c-1.67,0-3.33,0.17-4.97,0.5c-1.64,0.33-3.23,0.82-4.78,1.46c-1.54,0.64-3.01,1.43-4.4,2.36
				s-2.68,1.99-3.86,3.17c-1.18,1.18-2.24,2.47-3.17,3.86s-1.72,2.86-2.36,4.4c-0.64,1.54-1.13,3.14-1.46,4.78
				c-0.33,1.64-0.5,3.3-0.5,4.97c0,1.67,0.15,3.33,0.47,4.97c0.32,1.64,0.8,3.24,1.43,4.79c0.63,1.55,1.41,3.02,2.34,4.42
				s1.97,2.69,3.15,3.88l0.67,0.67l0.9,0.58c-0.08,0.91,0.08,1.78,0.48,2.6c0.4,0.82,0.99,1.48,1.76,1.98
				c0.77,0.5,1.61,0.75,2.53,0.78c0.92,0.02,1.77-0.19,2.57-0.65l0.29,0.2c-0.31,0.51-0.51,1.07-0.62,1.66
				c-0.1,0.59-0.1,1.18,0.01,1.77c0.11,0.59,0.32,1.14,0.64,1.65s0.71,0.95,1.18,1.32s1,0.64,1.57,0.81
				c0.57,0.18,1.16,0.24,1.76,0.21c0.6-0.04,1.17-0.18,1.71-0.43c0.54-0.25,1.02-0.58,1.45-1c-0.46,0.46-0.81,0.99-1.06,1.59
				c-0.25,0.6-0.37,1.23-0.37,1.88c0,0.65,0.12,1.28,0.37,1.88c0.25,0.6,0.6,1.13,1.07,1.6c0.46,0.46,0.99,0.82,1.59,1.07
				c0.6,0.25,1.23,0.37,1.88,0.37c0.65,0,1.28-0.12,1.88-0.37c0.6-0.25,1.13-0.6,1.6-1.07c-0.5,0.45-0.9,0.98-1.18,1.6
				c-0.28,0.61-0.43,1.26-0.45,1.93c-0.02,0.67,0.1,1.33,0.35,1.95s0.61,1.18,1.09,1.66c0.48,0.48,1.03,0.84,1.66,1.09
				c0.63,0.25,1.28,0.37,1.95,0.35s1.32-0.17,1.93-0.45s1.14-0.68,1.59-1.18l3.06-3.06c0.19-0.2,0.37-0.4,0.52-0.63l0.56,0.36
				l4.21,4.2c0.46,0.46,0.99,0.82,1.59,1.07c0.6,0.25,1.23,0.37,1.88,0.37c0.65,0,1.28-0.12,1.88-0.37c0.6-0.25,1.13-0.6,1.59-1.07
				c0.46-0.46,0.82-0.99,1.07-1.59c0.25-0.6,0.37-1.23,0.37-1.88c0-0.65-0.12-1.28-0.37-1.88c-0.25-0.6-0.6-1.13-1.07-1.59
				l-7.39-7.39l0.06-0.06l7.39,7.39c0.46,0.46,0.99,0.82,1.59,1.07s1.23,0.37,1.88,0.37s1.28-0.12,1.88-0.37s1.13-0.6,1.59-1.07
				c0.46-0.46,0.82-0.99,1.07-1.59s0.37-1.23,0.37-1.88s-0.12-1.28-0.37-1.88s-0.6-1.13-1.07-1.59c0.47,0.42,1,0.74,1.59,0.96
				c0.59,0.22,1.2,0.32,1.83,0.3c0.63-0.02,1.23-0.15,1.81-0.4c0.58-0.25,1.09-0.6,1.54-1.04c0.45-0.45,0.79-0.96,1.04-1.54
				c0.25-0.58,0.38-1.18,0.39-1.81c0.02-0.63-0.09-1.24-0.31-1.83s-0.54-1.12-0.96-1.59c0.77,0.77,1.7,1.23,2.78,1.39
				c1.08,0.16,2.1-0.03,3.05-0.55c0.96-0.52,1.66-1.28,2.11-2.27c0.45-0.99,0.56-2.02,0.33-3.09l0.61,2.01l3.44-3.44
				c1.19-1.19,2.25-2.48,3.18-3.87c0.93-1.4,1.72-2.87,2.36-4.42c0.64-1.55,1.13-3.15,1.46-4.8c0.33-1.65,0.49-3.31,0.49-4.99
				C92.44,34.51,92.28,32.85,91.95,31.2z"/>
		</g>
	</g>
	<g id="Path_13">
		<g>
			<path d="M81.21,56.27c-0.06-0.61-0.22-1.2-0.48-1.76c-0.26-0.56-0.61-1.05-1.05-1.49L59.68,33.04L48.94,17.95
				c-0.01-0.02-0.02-0.03-0.04-0.05l-0.07-0.07c-1.2-1.2-2.51-2.28-3.93-3.23c-1.42-0.95-2.91-1.75-4.48-2.4
				c-1.57-0.65-3.2-1.14-4.87-1.48c-1.67-0.33-3.36-0.5-5.06-0.5c-1.7,0-3.39,0.17-5.06,0.5c-1.67,0.33-3.29,0.82-4.87,1.48
				c-1.57,0.65-3.07,1.45-4.48,2.4c-1.42,0.95-2.73,2.02-3.93,3.23c-1.2,1.2-2.28,2.51-3.23,3.93c-0.95,1.42-1.75,2.91-2.4,4.48
				c-0.65,1.57-1.14,3.2-1.48,4.87c-0.33,1.67-0.5,3.36-0.5,5.06s0.17,3.39,0.5,5.06c0.33,1.67,0.82,3.29,1.48,4.87
				c0.65,1.57,1.45,3.07,2.4,4.48c0.95,1.42,2.02,2.73,3.23,3.93l0.67,0.67c0.02,0.02,0.04,0.03,0.06,0.05l34.23,22l4.18,4.17
				c1.03,1.03,2.28,1.55,3.73,1.54h0c0.44,0,0.88-0.05,1.31-0.16c0.43-0.11,0.84-0.27,1.23-0.48c0.39-0.21,0.75-0.47,1.07-0.77
				c0.32-0.3,0.61-0.64,0.84-1.01c0.24-0.37,0.43-0.77,0.57-1.19c0.14-0.42,0.22-0.85,0.25-1.3c0.03-0.44,0-0.88-0.08-1.32
				c-0.08-0.44-0.21-0.86-0.4-1.26c1,0.46,2.03,0.6,3.11,0.41c1.08-0.19,2.01-0.66,2.8-1.43c0.78-0.77,1.28-1.69,1.49-2.76
				c0.21-1.08,0.1-2.12-0.34-3.12c0.99,0.43,2.02,0.55,3.09,0.34c1.06-0.2,1.98-0.68,2.75-1.45c0.77-0.76,1.25-1.68,1.46-2.74
				c0.2-1.06,0.09-2.09-0.34-3.09c0.56,0.25,1.15,0.39,1.77,0.43s1.22-0.02,1.81-0.2s1.14-0.44,1.64-0.8
				c0.5-0.36,0.92-0.8,1.27-1.31c0.35-0.51,0.6-1.06,0.75-1.66C81.22,57.49,81.27,56.89,81.21,56.27z M80.13,58.49
				c-0.23,0.56-0.56,1.05-0.99,1.47c-0.43,0.43-0.92,0.75-1.47,0.99c-0.56,0.23-1.14,0.35-1.74,0.35s-1.18-0.11-1.74-0.34
				c-0.56-0.23-1.05-0.56-1.48-0.98l-7.39-7.39c-0.17-0.2-0.35-0.2-0.53-0.02c-0.18,0.18-0.18,0.36,0.02,0.53l7.39,7.39
				c0.43,0.43,0.76,0.92,0.99,1.48c0.23,0.56,0.35,1.14,0.35,1.74c0,0.6-0.12,1.18-0.35,1.74s-0.56,1.05-0.99,1.48
				c-0.43,0.43-0.92,0.76-1.48,0.99c-0.56,0.23-1.14,0.35-1.74,0.35s-1.18-0.12-1.74-0.35c-0.56-0.23-1.05-0.56-1.48-0.99
				l-7.39-7.37c-0.17-0.2-0.35-0.2-0.53-0.02c-0.18,0.18-0.18,0.36,0.02,0.53l7.39,7.39c0.44,0.42,0.78,0.92,1.02,1.48
				c0.24,0.56,0.36,1.15,0.37,1.76c0.01,0.61-0.11,1.2-0.34,1.76c-0.23,0.56-0.56,1.06-0.99,1.49c-0.43,0.43-0.93,0.76-1.49,0.99
				c-0.56,0.23-1.15,0.34-1.76,0.34c-0.61-0.01-1.2-0.13-1.76-0.37c-0.56-0.24-1.05-0.58-1.48-1.02l-7.38-7.4
				c-0.17-0.17-0.35-0.17-0.52,0l-0.06,0.06c-0.17,0.17-0.17,0.35,0,0.52l7.38,7.39c0.43,0.43,0.76,0.92,0.99,1.48
				c0.23,0.56,0.35,1.14,0.35,1.74c0,0.6-0.12,1.18-0.35,1.74c-0.23,0.56-0.56,1.05-0.99,1.48c-0.43,0.43-0.92,0.76-1.48,0.99
				c-0.56,0.23-1.14,0.35-1.74,0.35c-0.6,0-1.18-0.12-1.74-0.35c-0.56-0.23-1.05-0.56-1.48-0.99l-4.2-4.2
				c-0.02-0.02-0.04-0.04-0.06-0.05l-34.24-22L12.66,54c-1.17-1.17-2.22-2.44-3.13-3.82c-0.92-1.38-1.7-2.83-2.33-4.36
				c-0.63-1.53-1.11-3.11-1.43-4.73s-0.48-3.26-0.48-4.92s0.16-3.29,0.48-4.92c0.32-1.62,0.8-3.2,1.43-4.73
				c0.63-1.53,1.41-2.98,2.33-4.36s1.96-2.65,3.13-3.82c1.17-1.17,2.44-2.22,3.82-3.13c1.38-0.92,2.83-1.7,4.36-2.33
				c1.53-0.63,3.11-1.11,4.73-1.43s3.26-0.48,4.92-0.48s3.29,0.16,4.92,0.48c1.62,0.32,3.2,0.8,4.73,1.43
				c1.53,0.63,2.98,1.41,4.36,2.33s2.65,1.96,3.82,3.13l0.03,0.03L59.1,33.48c0.01,0.02,0.03,0.03,0.04,0.05l20.01,20.01
				c0.43,0.43,0.75,0.92,0.98,1.48c0.23,0.56,0.35,1.14,0.35,1.74C80.47,57.35,80.36,57.93,80.13,58.49z"/>
		</g>
	</g>
	<g id="Path_14">
		<g>
			<path class="st3" d="M46.43,70.3c-0.46-0.46-0.99-0.82-1.59-1.06c-0.6-0.25-1.23-0.37-1.88-0.37c-0.65,0-1.28,0.12-1.88,0.37
				c-0.6,0.25-1.13,0.6-1.59,1.06c0.45-0.46,0.79-0.99,1.03-1.59s0.36-1.22,0.35-1.87c-0.01-0.64-0.13-1.26-0.38-1.86
				c-0.25-0.59-0.6-1.12-1.06-1.58s-0.98-0.81-1.58-1.06c-0.59-0.25-1.21-0.38-1.86-0.38c-0.64-0.01-1.27,0.11-1.87,0.35
				s-1.13,0.58-1.59,1.03c0.46-0.46,0.82-0.99,1.07-1.59c0.25-0.6,0.38-1.23,0.38-1.88c0-0.65-0.12-1.28-0.37-1.88
				c-0.25-0.6-0.6-1.13-1.07-1.6c-0.46-0.46-0.99-0.82-1.6-1.07c-0.6-0.25-1.23-0.37-1.88-0.37c-0.65,0-1.28,0.13-1.88,0.38
				s-1.13,0.61-1.59,1.07c0.46-0.46,0.82-0.99,1.07-1.59c0.25-0.6,0.37-1.23,0.37-1.88s-0.12-1.28-0.37-1.88
				c-0.25-0.6-0.6-1.13-1.07-1.59s-0.99-0.82-1.59-1.07s-1.23-0.37-1.88-0.37s-1.28,0.12-1.88,0.37c-0.6,0.25-1.13,0.6-1.59,1.07
				l-3.06,3.06c-0.45,0.46-0.79,0.99-1.03,1.59c-0.24,0.6-0.36,1.22-0.35,1.87c0.01,0.64,0.13,1.26,0.38,1.86s0.6,1.12,1.06,1.58
				s0.98,0.81,1.58,1.06c0.59,0.25,1.21,0.38,1.86,0.38s1.27-0.11,1.87-0.35c0.6-0.24,1.13-0.58,1.59-1.03
				c-0.45,0.46-0.79,0.99-1.03,1.59c-0.24,0.6-0.36,1.22-0.35,1.87c0.01,0.64,0.13,1.26,0.38,1.86c0.25,0.59,0.6,1.12,1.06,1.58
				c0.46,0.46,0.98,0.81,1.58,1.06c0.59,0.25,1.21,0.38,1.86,0.38c0.64,0.01,1.27-0.11,1.87-0.35c0.6-0.24,1.13-0.58,1.59-1.03
				C29,66.87,28.65,67.4,28.4,68c-0.25,0.6-0.37,1.23-0.37,1.88c0,0.65,0.12,1.28,0.37,1.88c0.25,0.6,0.6,1.13,1.06,1.59
				c0.46,0.46,0.99,0.82,1.59,1.07c0.6,0.25,1.23,0.37,1.88,0.38c0.65,0,1.28-0.12,1.88-0.37c0.6-0.25,1.13-0.6,1.6-1.06
				c-0.48,0.46-0.86,0.99-1.13,1.6c-0.27,0.61-0.41,1.24-0.42,1.91c-0.01,0.66,0.11,1.31,0.36,1.92c0.25,0.62,0.61,1.16,1.08,1.63
				c0.47,0.47,1.01,0.83,1.63,1.08c0.62,0.25,1.26,0.37,1.92,0.36c0.66-0.01,1.3-0.15,1.91-0.42c0.61-0.27,1.14-0.64,1.6-1.13
				l3.06-3.06c0.46-0.46,0.82-0.99,1.07-1.59s0.37-1.23,0.38-1.88c0-0.65-0.12-1.28-0.37-1.88C47.24,71.29,46.89,70.76,46.43,70.3z
				 M91.95,31.24c-0.33-1.65-0.81-3.25-1.46-4.8c-0.64-1.55-1.43-3.02-2.36-4.42c-0.93-1.4-1.99-2.69-3.18-3.88
				c-1.19-1.19-2.48-2.25-3.88-3.18c-1.4-0.93-2.87-1.72-4.42-2.36c-1.55-0.64-3.15-1.13-4.8-1.45c-1.65-0.33-3.31-0.49-4.99-0.49
				c-1.68,0-3.34,0.16-4.99,0.49c-1.65,0.33-3.25,0.81-4.8,1.45c-1.55,0.64-3.02,1.43-4.42,2.36c-1.4,0.93-2.69,1.99-3.88,3.18
				L36.56,30.37c-0.55,0.55-0.97,1.18-1.27,1.9c-0.3,0.72-0.45,1.46-0.45,2.24s0.15,1.52,0.45,2.24c0.3,0.72,0.72,1.35,1.27,1.9
				c0.55,0.55,1.18,0.97,1.9,1.27c0.72,0.3,1.46,0.45,2.24,0.45s1.52-0.15,2.24-0.45c0.72-0.3,1.35-0.72,1.9-1.27l5.35-5.35h6.99
				c0.38,0,0.76-0.02,1.13-0.06l-0.01,0l22.35,21.73l0.84,2.79l3.44-3.44c1.19-1.19,2.25-2.48,3.18-3.88
				c0.93-1.4,1.72-2.87,2.36-4.42c0.64-1.55,1.13-3.15,1.46-4.8c0.33-1.65,0.49-3.31,0.49-4.99S92.27,32.89,91.95,31.24z"/>
		</g>
	</g>
</g>
<g id="Path_15">
	<g>
		<path d="M47.46,71.49c-0.27-0.65-0.65-1.22-1.15-1.72c-0.77-0.77-1.68-1.25-2.75-1.45c-1.07-0.2-2.1-0.09-3.09,0.34
			c0.17-0.4,0.3-0.82,0.37-1.25c0.07-0.43,0.09-0.87,0.05-1.3c-0.04-0.44-0.13-0.86-0.27-1.28s-0.33-0.8-0.58-1.17
			s-0.52-0.7-0.84-0.99c-0.32-0.3-0.68-0.55-1.06-0.76c-0.39-0.21-0.79-0.37-1.22-0.47c-0.42-0.11-0.86-0.16-1.29-0.16
			c-0.74,0-1.44,0.15-2.12,0.44c0.44-0.99,0.56-2.03,0.36-3.1c-0.2-1.07-0.68-1.99-1.45-2.76c-0.77-0.77-1.68-1.26-2.75-1.46
			s-2.1-0.09-3.1,0.35c0.25-0.56,0.39-1.15,0.43-1.77c0.04-0.61-0.03-1.22-0.2-1.81c-0.17-0.59-0.44-1.14-0.8-1.63
			c-0.36-0.5-0.8-0.92-1.3-1.27s-1.06-0.6-1.66-0.75c-0.6-0.15-1.2-0.2-1.81-0.14c-0.61,0.06-1.2,0.22-1.75,0.48
			c-0.56,0.26-1.05,0.61-1.49,1.05l-3.06,3.07c-0.44,0.43-0.79,0.93-1.06,1.49c-0.27,0.56-0.43,1.14-0.49,1.76
			c-0.06,0.61-0.01,1.22,0.14,1.82c0.15,0.6,0.4,1.15,0.75,1.66c0.35,0.51,0.77,0.95,1.27,1.31c0.5,0.36,1.05,0.63,1.64,0.8
			c0.59,0.17,1.2,0.23,1.81,0.19s1.21-0.19,1.77-0.44c-0.43,1-0.55,2.03-0.35,3.1c0.2,1.07,0.69,1.98,1.46,2.75
			c0.77,0.77,1.69,1.25,2.76,1.45c1.07,0.2,2.1,0.08,3.09-0.36c-0.44,1-0.56,2.03-0.36,3.1c0.2,1.07,0.68,1.99,1.45,2.76
			c0.77,0.77,1.69,1.26,2.75,1.46c1.07,0.2,2.1,0.09,3.1-0.35c-0.24,0.56-0.39,1.15-0.43,1.77c-0.04,0.61,0.03,1.22,0.2,1.81
			c0.17,0.59,0.44,1.13,0.8,1.63c0.36,0.5,0.8,0.92,1.3,1.27s1.06,0.6,1.65,0.75c0.6,0.15,1.2,0.2,1.81,0.14
			c0.61-0.06,1.2-0.22,1.75-0.48c0.56-0.26,1.05-0.61,1.49-1.04l3.06-3.06c0.5-0.5,0.88-1.07,1.15-1.72s0.4-1.32,0.4-2.03
			C47.86,72.81,47.73,72.14,47.46,71.49z M27.35,66.86c-0.56,0.23-1.14,0.34-1.74,0.34c-0.6,0-1.18-0.11-1.74-0.34
			c-0.56-0.23-1.05-0.56-1.47-0.98h0c-0.43-0.43-0.75-0.92-0.98-1.48s-0.35-1.14-0.35-1.74c0-0.6,0.12-1.18,0.35-1.74
			s0.56-1.05,0.98-1.48c0.2-0.17,0.2-0.35,0.02-0.53c-0.18-0.18-0.36-0.18-0.53,0.02c-0.43,0.43-0.92,0.76-1.48,0.99
			c-0.56,0.23-1.14,0.35-1.74,0.35c-0.6,0-1.18-0.12-1.74-0.35c-0.56-0.23-1.05-0.56-1.48-0.99c-0.43-0.43-0.76-0.92-0.99-1.48
			c-0.23-0.56-0.35-1.14-0.35-1.74c0-0.6,0.12-1.18,0.35-1.74c0.23-0.56,0.56-1.05,0.99-1.48l3.06-3.06
			c0.43-0.41,0.92-0.73,1.47-0.95s1.13-0.33,1.72-0.32c0.6,0.01,1.17,0.12,1.72,0.35s1.04,0.56,1.46,0.98
			c0.42,0.42,0.75,0.91,0.98,1.46c0.23,0.55,0.35,1.12,0.35,1.72c0.01,0.6-0.1,1.17-0.32,1.72c-0.22,0.55-0.54,1.05-0.95,1.47
			c-0.17,0.17-0.17,0.35,0,0.52c0.17,0.17,0.35,0.17,0.52,0c0.42-0.44,0.92-0.78,1.48-1.02c0.56-0.24,1.15-0.36,1.76-0.37
			c0.61-0.01,1.2,0.11,1.76,0.34s1.06,0.56,1.49,0.99c0.43,0.43,0.76,0.93,0.99,1.49c0.23,0.56,0.34,1.15,0.34,1.76
			c-0.01,0.61-0.13,1.2-0.37,1.76s-0.58,1.05-1.02,1.48l-3.06,3.06C28.39,66.3,27.9,66.63,27.35,66.86z M46.74,75.24
			c-0.22,0.55-0.54,1.04-0.95,1.47l-0.01,0l-3.06,3.06c-0.43,0.43-0.92,0.76-1.48,0.99c-0.56,0.23-1.14,0.35-1.74,0.35
			c-0.6,0-1.18-0.12-1.74-0.35c-0.56-0.23-1.05-0.56-1.48-0.99c-0.43-0.43-0.76-0.92-0.99-1.48c-0.23-0.56-0.35-1.14-0.35-1.74
			c0-0.6,0.12-1.18,0.35-1.74c0.23-0.56,0.56-1.05,0.99-1.48c0.15-0.17,0.15-0.34-0.02-0.5s-0.33-0.17-0.5-0.02
			c-0.43,0.43-0.92,0.75-1.48,0.98c-0.56,0.23-1.14,0.35-1.74,0.34c-0.6,0-1.18-0.12-1.74-0.35s-1.05-0.56-1.47-0.99
			c-0.43-0.43-0.75-0.92-0.98-1.48c-0.23-0.56-0.35-1.14-0.35-1.74c0-0.6,0.12-1.18,0.35-1.74c0.23-0.56,0.56-1.05,0.99-1.48
			l3.06-3.06c0.43-0.43,0.92-0.76,1.48-0.99S35.02,62,35.62,62s1.18,0.12,1.74,0.35c0.56,0.23,1.05,0.56,1.48,0.99
			c0.43,0.43,0.76,0.92,0.99,1.48c0.23,0.56,0.35,1.14,0.35,1.74s-0.12,1.18-0.35,1.74s-0.56,1.05-0.99,1.48
			c-0.17,0.17-0.17,0.35,0,0.52s0.35,0.17,0.52,0c0.43-0.41,0.92-0.73,1.47-0.95c0.55-0.22,1.13-0.33,1.72-0.32
			c0.6,0.01,1.17,0.12,1.72,0.35c0.55,0.23,1.04,0.56,1.46,0.98c0.42,0.42,0.75,0.91,0.98,1.46c0.23,0.55,0.35,1.12,0.35,1.72
			C47.07,74.12,46.97,74.69,46.74,75.24z"/>
	</g>
</g>
<g id="Path_16">
	<g>
		<path d="M92.31,31.17c-0.33-1.67-0.82-3.29-1.48-4.87c-0.65-1.57-1.45-3.07-2.4-4.48c-0.95-1.42-2.02-2.73-3.23-3.93
			c-1.2-1.2-2.51-2.28-3.93-3.23c-1.42-0.95-2.91-1.75-4.48-2.4s-3.2-1.14-4.87-1.48c-1.67-0.33-3.36-0.5-5.06-0.5
			s-3.39,0.17-5.06,0.5c-1.67,0.33-3.29,0.82-4.87,1.48c-1.57,0.65-3.07,1.45-4.48,2.4c-1.42,0.95-2.73,2.02-3.93,3.23L36.3,30.11
			c-0.58,0.58-1.03,1.26-1.35,2.02c-0.32,0.76-0.47,1.56-0.47,2.38c0,0.82,0.16,1.62,0.47,2.38c0.32,0.76,0.77,1.43,1.35,2.02
			c0.58,0.58,1.26,1.03,2.02,1.35c0.76,0.32,1.56,0.47,2.38,0.47s1.62-0.16,2.38-0.47c0.76-0.32,1.43-0.77,2.02-1.35l5.25-5.25h6.84
			c0.33,0,0.66-0.02,0.99-0.04l22.16,21.54l0.82,2.7c0.05,0.17,0.17,0.26,0.35,0.26c0.1,0,0.19-0.04,0.26-0.11l3.45-3.43
			c1.2-1.2,2.28-2.51,3.23-3.93s1.75-2.91,2.4-4.48s1.14-3.2,1.48-4.87c0.33-1.67,0.5-3.36,0.5-5.06S92.64,32.84,92.31,31.17z
			 M91.59,41.13c-0.32,1.62-0.8,3.2-1.43,4.73c-0.63,1.53-1.41,2.98-2.33,4.36c-0.92,1.38-1.96,2.65-3.13,3.82l-3.02,3.02
			l-0.67-2.21c-0.02-0.06-0.05-0.11-0.1-0.16L59.1,33.49c2.23-0.39,4.15-1.39,5.75-3l1.46-1.45c0.15-0.17,0.15-0.34-0.02-0.5
			s-0.33-0.17-0.5-0.02l-1.45,1.45c-1.67,1.68-3.68,2.64-6.04,2.9c-0.02,0-0.05,0-0.07,0c-0.35,0.04-0.7,0.05-1.05,0.05h-6.99
			c-0.1,0-0.19,0.04-0.26,0.11l-5.35,5.35c-0.52,0.5-1.11,0.89-1.78,1.16c-0.67,0.27-1.36,0.4-2.09,0.4c-0.72,0-1.41-0.15-2.08-0.42
			c-0.67-0.28-1.25-0.67-1.76-1.18c-0.51-0.51-0.9-1.1-1.18-1.76s-0.42-1.36-0.42-2.08c0-0.72,0.13-1.42,0.4-2.09
			s0.66-1.26,1.16-1.78L49.04,18.4c1.17-1.17,2.44-2.22,3.82-3.14c1.38-0.92,2.83-1.7,4.36-2.33c1.53-0.63,3.1-1.11,4.73-1.44
			s3.26-0.49,4.92-0.49c1.65,0,3.29,0.16,4.92,0.48c1.62,0.32,3.2,0.8,4.73,1.43c1.53,0.63,2.98,1.41,4.36,2.33s2.65,1.96,3.82,3.13
			c1.17,1.17,2.22,2.44,3.14,3.82c0.92,1.38,1.7,2.83,2.33,4.36s1.11,3.1,1.44,4.73s0.49,3.26,0.49,4.92S91.91,39.51,91.59,41.13z"
			/>
	</g>
</g>
</svg>
