<svg xmlns="http://www.w3.org/2000/svg" xmlns:xlink="http://www.w3.org/1999/xlink" width="1920" zoomAndPan="magnify" viewBox="0 0 1440 501.749987" height="669" preserveAspectRatio="xMidYMid meet" version="1.0"><path fill="#dedede" d="M 1154.898438 264.550781 C 1154.898438 264.550781 1154.253906 264.550781 1154.253906 264.550781 C 1150.960938 169.609375 1073.003906 93.640625 977.261719 93.640625 C 879.421875 93.640625 800.109375 172.953125 800.109375 270.789062 C 800.109375 368.628906 879.421875 447.945312 977.261719 447.945312 C 980.789062 447.945312 984.292969 447.8125 987.777344 447.609375 C 987.777344 447.609375 1154.898438 447.609375 1154.898438 447.609375 C 1154.898438 447.609375 1154.898438 264.550781 1154.898438 264.550781 Z M 1154.898438 264.550781 " fill-opacity="1" fill-rule="nonzero"/><path fill="#8a252c" d="M 933.15625 49.289062 C 933.15625 49.289062 933.15625 256.25 933.15625 256.25 C 933.15625 256.25 984.894531 307.988281 984.894531 307.988281 C 984.894531 307.988281 1036.632812 256.25 1036.632812 256.25 C 1036.632812 256.25 1243.59375 256.25 1243.59375 256.25 C 1243.59375 256.25 1243.59375 49.289062 1243.59375 49.289062 C 1243.59375 49.289062 933.15625 49.289062 933.15625 49.289062 Z M 933.15625 49.289062 " fill-opacity="1" fill-rule="nonzero"/><path stroke-linecap="butt" transform="matrix(0.850638, 0, 0, 0.850638, 1026.008255, 359.627663)" fill="none" stroke-linejoin="miter" d="M -56.99817 -180.001269 C -56.99817 -180.001269 213.997828 -180.001269 213.997828 -180.001269 " stroke="#ffcf03" stroke-width="32" stroke-opacity="1" stroke-miterlimit="4"/><path stroke-linecap="butt" transform="matrix(0.850638, 0, 0, 0.850638, 1026.008255, 304.760748)" fill="none" stroke-linejoin="miter" d="M -56.99817 -180.001589 C -56.99817 -180.001589 213.997828 -180.001589 213.997828 -180.001589 " stroke="#ffcf03" stroke-width="32" stroke-opacity="1" stroke-miterlimit="4"/><path stroke-linecap="butt" transform="matrix(0.850638, 0, 0, 0.850638, 1026.008255, 249.895881)" fill="none" stroke-linejoin="miter" d="M -56.99817 -179.999725 C -56.99817 -179.999725 213.997828 -179.999725 213.997828 -179.999725 " stroke="#ffcf03" stroke-width="32" stroke-opacity="1" stroke-miterlimit="4"/></svg>