<svg xmlns="http://www.w3.org/2000/svg" xmlns:xlink="http://www.w3.org/1999/xlink" width="1920" zoomAndPan="magnify" viewBox="0 0 1440 501.749987" height="669" preserveAspectRatio="xMidYMid meet" version="1.0"><defs><clipPath id="5ec269476d"><path d="M 985.5625 15.679688 L 1079.265625 15.679688 L 1079.265625 116.070312 L 985.5625 116.070312 Z M 985.5625 15.679688 " clip-rule="nonzero"/></clipPath><clipPath id="b70f93c4b5"><path d="M 879.839844 116.847656 L 1079.242188 116.847656 L 1079.242188 226 L 879.839844 226 Z M 879.839844 116.847656 " clip-rule="nonzero"/></clipPath><clipPath id="06532a3f2c"><path d="M 985.839844 226 L 1079.542969 226 L 1079.542969 414.84375 L 985.839844 414.84375 Z M 985.839844 226 " clip-rule="nonzero"/></clipPath><clipPath id="280065c971"><path d="M 879.839844 316.816406 L 985.535156 316.816406 L 985.535156 415.664062 L 879.839844 415.664062 Z M 879.839844 316.816406 " clip-rule="nonzero"/></clipPath><clipPath id="7f76fb940a"><path d="M 953.332031 415.664062 L 1017.789062 415.664062 L 1017.789062 480.121094 L 953.332031 480.121094 Z M 953.332031 415.664062 " clip-rule="nonzero"/></clipPath><clipPath id="24f6c87b7b"><path d="M 985.5625 415.664062 C 967.761719 415.664062 953.332031 430.09375 953.332031 447.894531 C 953.332031 465.691406 967.761719 480.121094 985.5625 480.121094 C 1003.363281 480.121094 1017.789062 465.691406 1017.789062 447.894531 C 1017.789062 430.09375 1003.363281 415.664062 985.5625 415.664062 Z M 985.5625 415.664062 " clip-rule="nonzero"/></clipPath></defs><g clip-path="url(#5ec269476d)"><path fill="#f4c522" d="M 985.5625 116.085938 C 987.101562 116.085938 988.636719 116.046875 990.171875 115.972656 C 991.707031 115.894531 993.242188 115.78125 994.773438 115.632812 C 996.304688 115.480469 997.828125 115.292969 999.351562 115.066406 C 1000.871094 114.839844 1002.386719 114.578125 1003.894531 114.277344 C 1005.402344 113.980469 1006.902344 113.640625 1008.394531 113.269531 C 1009.886719 112.894531 1011.367188 112.484375 1012.839844 112.039062 C 1014.3125 111.589844 1015.773438 111.109375 1017.21875 110.589844 C 1018.667969 110.074219 1020.101562 109.519531 1021.523438 108.929688 C 1022.945312 108.34375 1024.347656 107.71875 1025.738281 107.0625 C 1027.128906 106.40625 1028.503906 105.714844 1029.859375 104.988281 C 1031.214844 104.261719 1032.554688 103.503906 1033.871094 102.714844 C 1035.191406 101.925781 1036.488281 101.101562 1037.769531 100.246094 C 1039.046875 99.394531 1040.304688 98.507812 1041.539062 97.589844 C 1042.773438 96.675781 1043.988281 95.730469 1045.175781 94.753906 C 1046.363281 93.777344 1047.527344 92.773438 1048.667969 91.742188 C 1049.808594 90.707031 1050.921875 89.648438 1052.007812 88.5625 C 1053.097656 87.472656 1054.15625 86.359375 1055.1875 85.222656 C 1056.222656 84.082031 1057.226562 82.917969 1058.203125 81.726562 C 1059.175781 80.539062 1060.125 79.328125 1061.039062 78.09375 C 1061.957031 76.855469 1062.839844 75.601562 1063.695312 74.320312 C 1064.550781 73.042969 1065.371094 71.742188 1066.164062 70.425781 C 1066.953125 69.105469 1067.710938 67.769531 1068.4375 66.410156 C 1069.160156 65.054688 1069.851562 63.683594 1070.507812 62.292969 C 1071.167969 60.902344 1071.789062 59.496094 1072.378906 58.074219 C 1072.96875 56.65625 1073.519531 55.21875 1074.039062 53.773438 C 1074.558594 52.324219 1075.039062 50.863281 1075.484375 49.390625 C 1075.933594 47.921875 1076.34375 46.4375 1076.714844 44.949219 C 1077.089844 43.457031 1077.425781 41.957031 1077.726562 40.445312 C 1078.027344 38.9375 1078.289062 37.425781 1078.515625 35.902344 C 1078.742188 34.382812 1078.929688 32.855469 1079.078125 31.324219 C 1079.230469 29.792969 1079.34375 28.261719 1079.417969 26.726562 C 1079.492188 25.1875 1079.53125 23.652344 1079.53125 22.113281 L 1079.53125 15.652344 L 985.5625 15.652344 Z M 985.5625 116.085938 " fill-opacity="1" fill-rule="nonzero"/></g><path fill="#8a252c" d="M 880.632812 117.574219 L 1078.753906 117.574219 L 1078.753906 225.199219 L 880.632812 225.199219 Z M 880.632812 117.574219 " fill-opacity="1" fill-rule="nonzero"/><g clip-path="url(#b70f93c4b5)"><path fill="#8a252c" d="M 1078.753906 225.929688 L 880.632812 225.929688 C 880.226562 225.929688 879.90625 225.609375 879.90625 225.199219 L 879.90625 117.574219 C 879.90625 117.164062 880.226562 116.847656 880.632812 116.847656 L 1078.753906 116.847656 C 1079.164062 116.847656 1079.480469 117.164062 1079.480469 117.574219 L 1079.480469 225.199219 C 1079.480469 225.609375 1079.164062 225.929688 1078.753906 225.929688 Z M 881.359375 224.472656 L 1078.027344 224.472656 L 1078.027344 118.300781 L 881.359375 118.300781 Z M 881.359375 224.472656 " fill-opacity="1" fill-rule="nonzero"/></g><g clip-path="url(#06532a3f2c)"><path fill="#474647" d="M 1079.558594 320.199219 C 1079.558594 346.199219 1069.03125 369.636719 1052.003906 386.664062 C 1034.976562 403.691406 1011.449219 414.21875 985.542969 414.21875 C 985.542969 383.734375 985.542969 256.757812 985.542969 226.183594 C 1011.449219 226.183594 1034.976562 236.710938 1052.003906 253.738281 C 1069.03125 270.765625 1079.558594 294.292969 1079.558594 320.199219 Z M 1079.558594 320.199219 " fill-opacity="1" fill-rule="nonzero"/></g><g clip-path="url(#280065c971)"><path fill="#f4c522" d="M 879.894531 316.816406 C 879.894531 318.433594 879.933594 320.050781 880.015625 321.667969 C 880.09375 323.28125 880.210938 324.894531 880.371094 326.503906 C 880.53125 328.113281 880.726562 329.71875 880.964844 331.320312 C 881.203125 332.917969 881.476562 334.511719 881.792969 336.097656 C 882.109375 337.683594 882.464844 339.261719 882.855469 340.832031 C 883.25 342.398438 883.679688 343.957031 884.152344 345.507812 C 884.621094 347.054688 885.128906 348.589844 885.671875 350.113281 C 886.21875 351.636719 886.800781 353.144531 887.417969 354.636719 C 888.035156 356.132812 888.691406 357.609375 889.382812 359.074219 C 890.074219 360.535156 890.800781 361.980469 891.566406 363.40625 C 892.328125 364.832031 893.125 366.238281 893.957031 367.625 C 894.789062 369.011719 895.652344 370.378906 896.550781 371.722656 C 897.449219 373.070312 898.378906 374.390625 899.34375 375.691406 C 900.308594 376.988281 901.300781 378.265625 902.328125 379.515625 C 903.355469 380.765625 904.410156 381.988281 905.496094 383.1875 C 906.582031 384.386719 907.699219 385.558594 908.839844 386.699219 C 909.984375 387.84375 911.15625 388.960938 912.355469 390.046875 C 913.554688 391.132812 914.777344 392.1875 916.027344 393.214844 C 917.277344 394.238281 918.554688 395.234375 919.851562 396.199219 C 921.152344 397.160156 922.472656 398.09375 923.816406 398.992188 C 925.164062 399.890625 926.527344 400.753906 927.917969 401.585938 C 929.304688 402.417969 930.710938 403.214844 932.136719 403.976562 C 933.5625 404.738281 935.007812 405.46875 936.46875 406.160156 C 937.933594 406.851562 939.410156 407.503906 940.90625 408.125 C 942.398438 408.742188 943.90625 409.324219 945.429688 409.871094 C 946.953125 410.414062 948.488281 410.921875 950.035156 411.390625 C 951.582031 411.863281 953.140625 412.292969 954.710938 412.6875 C 956.28125 413.078125 957.859375 413.433594 959.445312 413.75 C 961.03125 414.0625 962.625 414.339844 964.222656 414.578125 C 965.824219 414.816406 967.429688 415.011719 969.039062 415.171875 C 970.648438 415.332031 972.261719 415.449219 973.875 415.527344 C 975.492188 415.609375 977.109375 415.648438 978.726562 415.648438 L 985.519531 415.648438 L 985.519531 316.816406 Z M 879.894531 316.816406 " fill-opacity="1" fill-rule="nonzero"/></g><g clip-path="url(#7f76fb940a)"><g clip-path="url(#24f6c87b7b)"><path fill="#dfdede" d="M 953.332031 415.664062 L 1017.789062 415.664062 L 1017.789062 480.121094 L 953.332031 480.121094 Z M 953.332031 415.664062 " fill-opacity="1" fill-rule="nonzero"/></g></g></svg>